<svg width="441" height="56" viewBox="0 0 441 56" fill="none" xmlns="http://www.w3.org/2000/svg">
<path fill-rule="evenodd" clip-rule="evenodd" d="M4.51767 3.80207C12.1296 13.307 17.8385 19.01 25.4503 26.6139C29.2563 30.4159 46.3831 45.6238 46.3831 47.5248H0.711731V55.1287H61.6068V1.90103H53.995V43.7229C52.092 41.8219 25.4504 15.208 19.7414 9.50499L10.2266 0C10.2266 0 10.2266 0 8.32361 0L4.51767 3.80207Z" fill="#8416FB"/>
<path d="M82.3979 19.7904H101.223V35H96.5758V23.4779H87.0353V35H82.3979V19.7904ZM109.222 35.143C108.302 35.143 107.502 35.0749 106.821 34.9387C106.147 34.7957 105.589 34.571 105.146 34.2645C104.71 33.9581 104.383 33.5563 104.165 33.0592C103.954 32.5553 103.849 31.9322 103.849 31.1899V28.2686C103.849 27.5127 103.941 26.8692 104.124 26.338C104.315 25.8068 104.618 25.3778 105.034 25.0509C105.456 24.7241 106.007 24.4857 106.688 24.3359C107.369 24.1793 108.207 24.101 109.201 24.101H113.093C114.039 24.101 114.85 24.1793 115.524 24.3359C116.205 24.4857 116.76 24.7207 117.189 25.0407C117.625 25.3608 117.941 25.7796 118.139 26.2971C118.343 26.8147 118.445 27.4276 118.445 28.1358V31.1287C118.445 31.8845 118.34 32.5212 118.129 33.0388C117.924 33.5495 117.604 33.9615 117.169 34.2748C116.739 34.588 116.185 34.8127 115.504 34.9489C114.829 35.0783 114.026 35.143 113.093 35.143H109.222ZM112.061 32.242C112.94 32.242 113.576 32.1059 113.971 31.8335C114.373 31.5611 114.574 31.0606 114.574 30.3319V28.9121C114.574 28.2039 114.377 27.7102 113.982 27.431C113.593 27.1518 112.953 27.0122 112.061 27.0122H110.243C109.773 27.0122 109.375 27.0428 109.048 27.1041C108.728 27.1654 108.466 27.2743 108.261 27.431C108.064 27.5808 107.921 27.7817 107.832 28.0336C107.751 28.2856 107.71 28.5988 107.71 28.9734V30.3523C107.71 31.0674 107.907 31.5611 108.302 31.8335C108.704 32.1059 109.351 32.242 110.243 32.242H112.061ZM125.82 35.143C124.928 35.143 124.159 35.0715 123.512 34.9285C122.865 34.7787 122.33 34.5472 121.908 34.2339C121.493 33.9207 121.183 33.5155 120.979 33.0184C120.781 32.5144 120.682 31.905 120.682 31.1899V28.2686C120.682 27.4991 120.767 26.8487 120.938 26.3176C121.115 25.7864 121.401 25.3574 121.796 25.0305C122.191 24.7036 122.718 24.4687 123.379 24.3257C124.046 24.1759 124.86 24.101 125.82 24.101H129.487C131.272 24.101 132.579 24.3904 133.41 24.9692C134.241 25.5481 134.656 26.4844 134.656 27.7783C134.656 28.0575 134.632 28.3503 134.584 28.6567H130.928V28.5954C130.928 28.0098 130.761 27.6012 130.427 27.3697C130.093 27.1313 129.549 27.0122 128.793 27.0122H126.893C126.014 27.0122 125.405 27.1518 125.064 27.431C124.731 27.7102 124.564 28.2243 124.564 28.9734V30.3523C124.564 31.0401 124.741 31.527 125.095 31.813C125.456 32.099 126.055 32.242 126.893 32.242H128.588C129.017 32.242 129.382 32.2216 129.681 32.1808C129.981 32.1331 130.226 32.048 130.417 31.9254C130.608 31.8028 130.744 31.6258 130.825 31.3942C130.907 31.1627 130.948 30.8597 130.948 30.4851H134.799C134.813 30.5941 134.819 30.7064 134.819 30.8222C134.819 30.9312 134.819 31.0401 134.819 31.1491C134.819 31.8913 134.717 32.5178 134.513 33.0286C134.315 33.5325 134.002 33.9411 133.573 34.2543C133.151 34.5676 132.606 34.7957 131.939 34.9387C131.278 35.0749 130.482 35.143 129.549 35.143H125.82ZM137.383 24.244H142.644L146.107 30.6486L149.58 24.244H154.83V35H151.05V27.8906L147.2 35H145.024L141.173 27.8906V35H137.383V24.244ZM162.807 35.143C161.888 35.143 161.088 35.0749 160.407 34.9387C159.733 34.7957 159.174 34.571 158.732 34.2645C158.296 33.9581 157.969 33.5563 157.751 33.0592C157.54 32.5553 157.435 31.9322 157.435 31.1899V28.2686C157.435 27.5127 157.527 26.8692 157.71 26.338C157.901 25.8068 158.204 25.3778 158.619 25.0509C159.042 24.7241 159.593 24.4857 160.274 24.3359C160.955 24.1793 161.793 24.101 162.787 24.101H166.679C167.625 24.101 168.436 24.1793 169.11 24.3359C169.791 24.4857 170.346 24.7207 170.775 25.0407C171.211 25.3608 171.527 25.7796 171.725 26.2971C171.929 26.8147 172.031 27.4276 172.031 28.1358V31.1287C172.031 31.8845 171.926 32.5212 171.715 33.0388C171.51 33.5495 171.19 33.9615 170.754 34.2748C170.325 34.588 169.77 34.8127 169.089 34.9489C168.415 35.0783 167.612 35.143 166.679 35.143H162.807ZM165.647 32.242C166.526 32.242 167.162 32.1059 167.557 31.8335C167.959 31.5611 168.16 31.0606 168.16 30.3319V28.9121C168.16 28.2039 167.962 27.7102 167.568 27.431C167.179 27.1518 166.539 27.0122 165.647 27.0122H163.829C163.359 27.0122 162.961 27.0428 162.634 27.1041C162.314 27.1654 162.052 27.2743 161.847 27.431C161.65 27.5808 161.507 27.7817 161.418 28.0336C161.337 28.2856 161.296 28.5988 161.296 28.9734V30.3523C161.296 31.0674 161.493 31.5611 161.888 31.8335C162.29 32.1059 162.937 32.242 163.829 32.242H165.647ZM177.813 27.0939H173.584V24.244H185.903V27.0939H181.684V35H177.813V27.0939ZM195.842 32.048C196.706 32.048 197.33 31.9118 197.711 31.6394C198.092 31.367 198.283 30.8971 198.283 30.2298V28.8916C198.283 28.1971 198.089 27.7204 197.701 27.4616C197.313 27.2028 196.693 27.0734 195.842 27.0734H194.085C193.206 27.0734 192.576 27.2062 192.195 27.4718C191.82 27.7374 191.633 28.2039 191.633 28.8712V30.1685C191.633 30.8903 191.81 31.384 192.164 31.6496C192.525 31.9152 193.165 32.048 194.085 32.048H195.842ZM187.823 24.244H191.694V26.2154C191.783 25.4051 192.212 24.8501 192.982 24.5504C193.758 24.2508 194.926 24.101 196.485 24.101C197.493 24.101 198.354 24.1623 199.069 24.2848C199.791 24.4006 200.38 24.6015 200.837 24.8875C201.3 25.1735 201.633 25.5481 201.838 26.0111C202.049 26.4674 202.154 27.0292 202.154 27.6965V31.2512C202.154 32.5791 201.708 33.5325 200.816 34.1113C199.924 34.6902 198.501 34.9796 196.546 34.9796C195.825 34.9796 195.188 34.9557 194.636 34.9081C194.085 34.8604 193.608 34.7651 193.206 34.6221C192.811 34.4722 192.488 34.2748 192.236 34.0296C191.991 33.7845 191.81 33.461 191.694 33.0592V38.6364H187.823V24.244ZM214.208 28.1971V28.1562C214.208 27.625 214.037 27.2607 213.697 27.0632C213.356 26.8589 212.801 26.7568 212.032 26.7568H210.438C209.676 26.7568 209.117 26.8589 208.763 27.0632C208.416 27.2607 208.242 27.625 208.242 28.1562V28.1971H214.208ZM209.376 35.143C207.728 35.143 206.482 34.8025 205.637 34.1215C204.8 33.4406 204.381 32.4634 204.381 31.1899V28.2686C204.381 26.9134 204.803 25.8817 205.648 25.1735C206.499 24.4585 207.735 24.101 209.356 24.101H212.972C214.606 24.101 215.845 24.4585 216.69 25.1735C217.534 25.8817 217.956 26.9134 217.956 28.2686V30.5668H208.242C208.242 30.6213 208.239 30.6724 208.232 30.7201C208.225 30.7677 208.222 30.812 208.222 30.8529C208.222 31.4862 208.402 31.9356 208.763 32.2012C209.131 32.46 209.72 32.5893 210.53 32.5893H212.154C212.495 32.5893 212.784 32.5791 213.023 32.5587C213.268 32.5383 213.472 32.4906 213.636 32.4157C213.806 32.3408 213.942 32.2284 214.044 32.0786C214.153 31.922 214.235 31.7041 214.289 31.4249H217.936V31.5883C217.936 32.889 217.537 33.8083 216.741 34.3463C215.944 34.8774 214.688 35.143 212.972 35.143H209.376ZM223.717 27.0939H219.488V24.244H231.807V27.0939H227.589V35H223.717V27.0939ZM233.728 24.244H237.599V27.5127H242.185C242.907 27.5127 243.541 27.5706 244.085 27.6863C244.63 27.7953 245.08 27.9894 245.434 28.2686C245.795 28.5478 246.06 28.9291 246.23 29.4126C246.407 29.8893 246.496 30.4885 246.496 31.2104C246.496 31.9526 246.407 32.5689 246.23 33.0592C246.06 33.5427 245.795 33.9275 245.434 34.2135C245.08 34.4995 244.63 34.7038 244.085 34.8264C243.541 34.9421 242.907 35 242.185 35H233.728V24.244ZM237.599 32.242H241.644C242.243 32.242 242.543 31.9186 242.543 31.2717C242.543 30.8971 242.471 30.6315 242.328 30.4749C242.192 30.3115 241.964 30.2298 241.644 30.2298H237.599V32.242ZM259.223 24.244H263.095V28.0336H268.743V24.244H272.615V35H268.743V30.9652H263.095V35H259.223V24.244ZM284.985 33.7027C284.583 34.2203 283.967 34.5914 283.136 34.8161C282.305 35.034 281.246 35.143 279.959 35.143C279.013 35.143 278.209 35.0885 277.548 34.9796C276.888 34.8706 276.353 34.6799 275.945 34.4076C275.543 34.1352 275.25 33.764 275.066 33.2942C274.889 32.8243 274.801 32.242 274.801 31.5475C274.801 30.8392 274.896 30.2536 275.087 29.7905C275.284 29.3275 275.601 28.97 276.037 28.718C276.479 28.4592 277.041 28.2788 277.722 28.1766C278.41 28.0677 279.248 28.0132 280.235 28.0132C281.365 28.0132 282.319 28.0847 283.095 28.2277C283.878 28.3639 284.508 28.5988 284.985 28.9325V27.7783C284.985 27.0019 284.484 26.6138 283.483 26.6138H280.317C279.568 26.6138 279.193 26.8862 279.193 27.431H275.301V27.2982C275.301 26.1133 275.744 25.2859 276.629 24.816C277.514 24.3393 278.89 24.101 280.756 24.101H284.545C286.01 24.101 287.092 24.387 287.794 24.959C288.502 25.531 288.856 26.4299 288.856 27.6557V35H284.985V33.7027ZM283.013 32.4872C283.687 32.4872 284.178 32.4123 284.484 32.2625C284.791 32.1059 284.944 31.813 284.944 31.384C284.944 30.9482 284.791 30.669 284.484 30.5464C284.178 30.417 283.687 30.3523 283.013 30.3523H280.654C279.986 30.3523 279.499 30.4307 279.193 30.5873C278.887 30.7371 278.733 31.0299 278.733 31.4657C278.733 31.8948 278.887 32.174 279.193 32.3033C279.499 32.4259 279.986 32.4872 280.654 32.4872H283.013ZM291.4 24.244H295.271V32.0684H298.345V24.244H302.217V32.0684H305.291V24.244H309.163V35H291.4V24.244ZM312.156 24.244H316.027V31.6905L321.553 24.244H326.763V35H322.891V27.5944L317.324 35H312.156V24.244ZM347.999 32.048C348.864 32.048 349.487 31.9118 349.868 31.6394C350.249 31.367 350.44 30.8971 350.44 30.2298V28.8916C350.44 28.1971 350.246 27.7204 349.858 27.4616C349.47 27.2028 348.85 27.0734 347.999 27.0734H346.242C345.363 27.0734 344.734 27.2062 344.352 27.4718C343.978 27.7374 343.79 28.2039 343.79 28.8712V30.1685C343.79 30.8903 343.967 31.384 344.322 31.6496C344.682 31.9152 345.323 32.048 346.242 32.048H347.999ZM339.98 24.244H343.852V26.2154C343.94 25.4051 344.369 24.8501 345.139 24.5504C345.915 24.2508 347.083 24.101 348.642 24.101C349.65 24.101 350.512 24.1623 351.227 24.2848C351.948 24.4006 352.538 24.6015 352.994 24.8875C353.457 25.1735 353.79 25.5481 353.995 26.0111C354.206 26.4674 354.311 27.0292 354.311 27.6965V31.2512C354.311 32.5791 353.865 33.5325 352.973 34.1113C352.081 34.6902 350.658 34.9796 348.704 34.9796C347.982 34.9796 347.345 34.9557 346.793 34.9081C346.242 34.8604 345.765 34.7651 345.363 34.6221C344.968 34.4722 344.645 34.2748 344.393 34.0296C344.148 33.7845 343.967 33.461 343.852 33.0592V38.6364H339.98V24.244ZM366.314 33.7027C365.912 34.2203 365.296 34.5914 364.465 34.8161C363.634 35.034 362.575 35.143 361.288 35.143C360.341 35.143 359.538 35.0885 358.877 34.9796C358.217 34.8706 357.682 34.6799 357.274 34.4076C356.872 34.1352 356.579 33.764 356.395 33.2942C356.218 32.8243 356.13 32.242 356.13 31.5475C356.13 30.8392 356.225 30.2536 356.416 29.7905C356.613 29.3275 356.93 28.97 357.366 28.718C357.808 28.4592 358.37 28.2788 359.051 28.1766C359.739 28.0677 360.576 28.0132 361.564 28.0132C362.694 28.0132 363.648 28.0847 364.424 28.2277C365.207 28.3639 365.837 28.5988 366.314 28.9325V27.7783C366.314 27.0019 365.813 26.6138 364.812 26.6138H361.646C360.896 26.6138 360.522 26.8862 360.522 27.431H356.63V27.2982C356.63 26.1133 357.073 25.2859 357.958 24.816C358.843 24.3393 360.219 24.101 362.085 24.101H365.874C367.338 24.101 368.421 24.387 369.123 24.959C369.831 25.531 370.185 26.4299 370.185 27.6557V35H366.314V33.7027ZM364.342 32.4872C365.016 32.4872 365.507 32.4123 365.813 32.2625C366.12 32.1059 366.273 31.813 366.273 31.384C366.273 30.9482 366.12 30.669 365.813 30.5464C365.507 30.417 365.016 30.3523 364.342 30.3523H361.983C361.315 30.3523 360.828 30.4307 360.522 30.5873C360.215 30.7371 360.062 31.0299 360.062 31.4657C360.062 31.8948 360.215 32.174 360.522 32.3033C360.828 32.4259 361.315 32.4872 361.983 32.4872H364.342ZM377.938 35.143C377.019 35.143 376.222 35.0749 375.548 34.9387C374.873 34.7957 374.315 34.571 373.872 34.2645C373.437 33.9581 373.11 33.5563 372.892 33.0592C372.674 32.5553 372.565 31.9322 372.565 31.1899V28.1358C372.565 26.6853 372.623 25.4629 372.739 24.4687C372.861 23.4677 373.103 22.6403 373.464 21.9866C373.825 21.3328 374.336 20.8153 374.996 20.4339C375.663 20.0458 376.549 19.7496 377.652 19.5453L381.309 18.8302C381.881 18.7213 382.286 18.5817 382.524 18.4114C382.763 18.2412 382.895 17.9348 382.923 17.4921H386.396C386.368 18.7587 386.079 19.7359 385.527 20.4237C384.976 21.1047 384.196 21.5439 383.188 21.7414L378.837 22.5994C378.183 22.722 377.672 22.8684 377.305 23.0387C376.937 23.2021 376.664 23.4166 376.487 23.6822C376.31 23.9478 376.205 24.2848 376.171 24.6934C376.137 25.0952 376.12 25.6025 376.12 26.2154C376.201 25.3778 376.644 24.816 377.448 24.53C378.251 24.244 379.439 24.101 381.012 24.101C382.034 24.101 382.919 24.1623 383.668 24.2848C384.424 24.4006 385.04 24.6117 385.517 24.9182C386.001 25.2246 386.362 25.6366 386.6 26.1541C386.838 26.6649 386.957 27.3254 386.957 28.1358V31.1287C386.957 31.8845 386.852 32.5212 386.641 33.0388C386.436 33.5495 386.116 33.9615 385.681 34.2748C385.252 34.588 384.697 34.8127 384.016 34.9489C383.341 35.0783 382.538 35.143 381.605 35.143H377.938ZM383.086 28.9121C383.086 28.2039 382.889 27.7102 382.494 27.431C382.105 27.1518 381.465 27.0122 380.573 27.0122H378.97C378.493 27.0122 378.095 27.0428 377.774 27.1041C377.454 27.1654 377.192 27.2743 376.988 27.431C376.784 27.5808 376.641 27.7817 376.559 28.0336C376.477 28.2856 376.436 28.5988 376.436 28.9734V30.3523C376.436 31.0674 376.634 31.5611 377.029 31.8335C377.431 32.1059 378.077 32.242 378.97 32.242H380.573C381.452 32.242 382.088 32.1059 382.483 31.8335C382.885 31.5611 383.086 31.0606 383.086 30.3319V28.9121ZM394.537 35.143C393.617 35.143 392.817 35.0749 392.136 34.9387C391.462 34.7957 390.904 34.571 390.461 34.2645C390.025 33.9581 389.698 33.5563 389.48 33.0592C389.269 32.5553 389.164 31.9322 389.164 31.1899V28.2686C389.164 27.5127 389.256 26.8692 389.44 26.338C389.63 25.8068 389.933 25.3778 390.349 25.0509C390.771 24.7241 391.322 24.4857 392.003 24.3359C392.684 24.1793 393.522 24.101 394.516 24.101H398.408C399.355 24.101 400.165 24.1793 400.839 24.3359C401.52 24.4857 402.075 24.7207 402.504 25.0407C402.94 25.3608 403.257 25.7796 403.454 26.2971C403.658 26.8147 403.76 27.4276 403.76 28.1358V31.1287C403.76 31.8845 403.655 32.5212 403.444 33.0388C403.24 33.5495 402.919 33.9615 402.484 34.2748C402.055 34.588 401.5 34.8127 400.819 34.9489C400.144 35.0783 399.341 35.143 398.408 35.143H394.537ZM397.376 32.242C398.255 32.242 398.891 32.1059 399.286 31.8335C399.688 31.5611 399.889 31.0606 399.889 30.3319V28.9121C399.889 28.2039 399.692 27.7102 399.297 27.431C398.909 27.1518 398.268 27.0122 397.376 27.0122H395.558C395.088 27.0122 394.69 27.0428 394.363 27.1041C394.043 27.1654 393.781 27.2743 393.576 27.431C393.379 27.5808 393.236 27.7817 393.147 28.0336C393.066 28.2856 393.025 28.5988 393.025 28.9734V30.3523C393.025 31.0674 393.222 31.5611 393.617 31.8335C394.019 32.1059 394.666 32.242 395.558 32.242H397.376ZM409.542 27.0939H405.313V24.244H417.632V27.0939H413.413V35H409.542V27.0939ZM434.016 24.244H437.888V35H434.016V24.244ZM419.552 24.244H423.424V27.5127H428.01C428.732 27.5127 429.365 27.5706 429.91 27.6863C430.455 27.7953 430.904 27.9894 431.258 28.2686C431.619 28.5478 431.885 28.9291 432.055 29.4126C432.232 29.8893 432.321 30.4885 432.321 31.2104C432.321 31.9526 432.232 32.5689 432.055 33.0592C431.885 33.5427 431.619 33.9275 431.258 34.2135C430.904 34.4995 430.455 34.7038 429.91 34.8264C429.365 34.9421 428.732 35 428.01 35H419.552V24.244ZM423.424 32.242H427.469C428.068 32.242 428.368 31.9186 428.368 31.2717C428.368 30.8971 428.296 30.6315 428.153 30.4749C428.017 30.3115 427.789 30.2298 427.469 30.2298H423.424V32.242Z" fill="white"/>
</svg>
