<svg width="428" height="168" viewBox="0 0 428 168" fill="none" xmlns="http://www.w3.org/2000/svg">
<path fill-rule="evenodd" clip-rule="evenodd" d="M175.386 93.4362C186.792 106.743 196.297 114.347 207.703 125.753C211.505 129.555 236.218 152.367 238.119 156.169H171.584V167.575H259.03V89.6341L249.525 91.5351V152.367C245.723 148.565 205.802 108.644 200.099 102.941L184.891 87.7331C182.99 87.7331 184.891 87.733 182.99 85.832L175.386 93.4362Z" fill="black"/>
<path d="M14.898 3.854C19.006 3.854 22.074 5.076 24.102 7.52C26.182 9.964 27.222 13.318 27.222 17.582V22.496H21.45V17.27C21.45 12.018 19.318 9.392 15.054 9.392C12.922 9.392 11.31 10.094 10.218 11.498C9.178 12.85 8.658 14.774 8.658 17.27V46.13C8.658 48.626 9.178 50.576 10.218 51.98C11.31 53.332 12.922 54.008 15.054 54.008C19.318 54.008 21.45 51.382 21.45 46.13V39.032H27.222V45.818C27.222 50.082 26.182 53.436 24.102 55.88C22.074 58.324 19.006 59.546 14.898 59.546C10.842 59.546 7.774 58.324 5.694 55.88C3.666 53.436 2.652 50.082 2.652 45.818V17.582C2.652 13.318 3.666 9.964 5.694 7.52C7.774 5.076 10.842 3.854 14.898 3.854ZM44.9969 4.4C49.1569 4.4 52.1729 5.388 54.0449 7.364C55.9169 9.34 56.8529 12.382 56.8529 16.49V19.064C56.8529 22.08 56.3589 24.472 55.3709 26.24C54.3829 27.956 52.7449 29.178 50.4569 29.906C55.3449 31.258 57.7889 35.158 57.7889 41.606V46.208C57.7889 50.368 56.7489 53.54 54.6689 55.724C52.6409 57.908 49.5209 59 45.3089 59H32.7509V4.4H44.9969ZM43.5149 27.566C46.0629 27.566 47.9089 27.046 49.0529 26.006C50.2489 24.966 50.8469 23.068 50.8469 20.312V17.114C50.8469 14.67 50.3789 12.876 49.4429 11.732C48.5069 10.536 46.9729 9.938 44.8409 9.938H38.8349V27.566H43.5149ZM45.3089 53.462C47.5449 53.462 49.1829 52.864 50.2229 51.668C51.2629 50.472 51.7829 48.6 51.7829 46.052V41.216C51.7829 38.252 51.1849 36.172 49.9889 34.976C48.7929 33.728 46.8429 33.104 44.1389 33.104H38.8349V53.462H45.3089ZM77.4138 35.678C74.7618 35.678 72.7598 36.302 71.4078 37.55C70.1078 38.746 69.4578 40.826 69.4578 43.79V52.37C69.4578 54.138 69.3798 55.49 69.2238 56.426C69.0678 57.31 68.8078 58.168 68.4438 59H62.2818C63.0098 57.544 63.3738 55.36 63.3738 52.448V43.946C63.3738 40.878 63.8938 38.408 64.9338 36.536C66.0258 34.612 67.7678 33.286 70.1598 32.558C65.6878 31.102 63.4518 27.358 63.4518 21.326V16.88C63.4518 12.72 64.4138 9.6 66.3378 7.52C68.3138 5.44 71.4078 4.4 75.6198 4.4H87.7878V59H81.7038V35.678H77.4138ZM75.7758 9.938C73.5398 9.938 71.9278 10.562 70.9398 11.81C69.9518 13.058 69.4578 14.93 69.4578 17.426V22.652C69.4578 25.46 70.0818 27.41 71.3298 28.502C72.6298 29.594 74.5538 30.14 77.1018 30.14H81.7038V9.938H75.7758ZM105.927 3.854C110.035 3.854 113.103 5.076 115.131 7.52C117.211 9.964 118.251 13.318 118.251 17.582V18.986C118.251 21.846 117.679 24.238 116.535 26.162C115.391 28.086 113.727 29.464 111.543 30.296C113.779 31.076 115.443 32.454 116.535 34.43C117.679 36.354 118.251 38.72 118.251 41.528V45.818C118.251 50.082 117.211 53.436 115.131 55.88C113.103 58.324 110.035 59.546 105.927 59.546C101.871 59.546 98.803 58.324 96.723 55.88C94.695 53.436 93.681 50.082 93.681 45.818V40.514H99.375V46.13C99.375 48.626 99.895 50.576 100.935 51.98C102.027 53.332 103.639 54.008 105.771 54.008C107.955 54.008 109.567 53.306 110.607 51.902C111.647 50.498 112.167 48.418 112.167 45.662V41.372C112.167 38.72 111.569 36.718 110.373 35.366C109.177 33.962 107.435 33.26 105.147 33.26H102.573V27.8H105.459C107.487 27.8 109.099 27.15 110.295 25.85C111.543 24.498 112.167 22.652 112.167 20.312V17.816C112.167 14.956 111.647 12.85 110.607 11.498C109.567 10.094 107.955 9.392 105.771 9.392C103.639 9.392 102.027 10.094 100.935 11.498C99.895 12.85 99.375 14.774 99.375 17.27V20.936H93.759V17.504C93.759 13.188 94.773 9.834 96.801 7.442C98.829 5.05 101.871 3.854 105.927 3.854ZM128.213 59H122.597L133.049 4.4H141.863L152.315 59H146.231L144.125 48.002H130.319L128.213 59ZM143.267 42.776L137.105 11.264L131.099 42.776H143.267ZM165.409 9.938H155.347V4.4H181.555V9.938H171.493V59H165.409V9.938ZM197.551 25.928C206.027 25.928 210.265 30.322 210.265 39.11V45.662C210.265 49.926 209.251 53.228 207.223 55.568C205.247 57.856 202.179 59 198.019 59H186.085V4.4H192.169V25.928H197.551ZM198.019 53.462C200.203 53.462 201.789 52.864 202.777 51.668C203.765 50.42 204.259 48.522 204.259 45.974V38.72C204.259 36.12 203.713 34.248 202.621 33.104C201.529 31.96 199.839 31.388 197.551 31.388H192.169V53.462H198.019ZM227.57 3.854C231.678 3.854 234.746 5.076 236.774 7.52C238.854 9.964 239.894 13.318 239.894 17.582V22.496H234.122V17.27C234.122 12.018 231.99 9.392 227.726 9.392C225.594 9.392 223.982 10.094 222.89 11.498C221.85 12.85 221.33 14.774 221.33 17.27V46.13C221.33 48.626 221.85 50.576 222.89 51.98C223.982 53.332 225.594 54.008 227.726 54.008C231.99 54.008 234.122 51.382 234.122 46.13V39.032H239.894V45.818C239.894 50.082 238.854 53.436 236.774 55.88C234.746 58.324 231.678 59.546 227.57 59.546C223.514 59.546 220.446 58.324 218.366 55.88C216.338 53.436 215.324 50.082 215.324 45.818V17.582C215.324 13.318 216.338 9.964 218.366 7.52C220.446 5.076 223.514 3.854 227.57 3.854ZM259.541 35.678C256.889 35.678 254.887 36.302 253.535 37.55C252.235 38.746 251.585 40.826 251.585 43.79V52.37C251.585 54.138 251.507 55.49 251.351 56.426C251.195 57.31 250.935 58.168 250.571 59H244.409C245.137 57.544 245.501 55.36 245.501 52.448V43.946C245.501 40.878 246.021 38.408 247.061 36.536C248.153 34.612 249.895 33.286 252.287 32.558C247.815 31.102 245.579 27.358 245.579 21.326V16.88C245.579 12.72 246.541 9.6 248.465 7.52C250.441 5.44 253.535 4.4 257.747 4.4H269.915V59H263.831V35.678H259.541ZM257.903 9.938C255.667 9.938 254.055 10.562 253.067 11.81C252.079 13.058 251.585 14.93 251.585 17.426V22.652C251.585 25.46 252.209 27.41 253.457 28.502C254.757 29.594 256.681 30.14 259.229 30.14H263.831V9.938H257.903Z" fill="black"/>
</svg>
