<svg width="487" height="320" viewBox="0 0 487 320" fill="none" xmlns="http://www.w3.org/2000/svg">
<path fill-rule="evenodd" clip-rule="evenodd" d="M240.697 435.734C238.008 425.709 234.671 411.725 229.764 388.037C224.858 364.348 218.139 330.814 215.476 299.293C212.568 267.631 213.189 238.331 213.775 201.188C214.22 164.289 214.63 119.548 215.392 90.0035C216.296 60.214 217.939 45.5171 214.826 36.2257C212.099 26.8309 204.758 22.5971 197.125 21.1277C189.491 19.6583 181.951 20.8501 177.223 27.9011C172.354 35.1965 170.58 47.8622 168.748 65.7091C166.917 83.556 165.064 105.954 163.278 129.368C161.736 152.923 160.646 177.39 159.455 192.999C158.122 208.852 156.793 216.234 153.647 222.241C150.397 227.863 145.576 232.253 141.51 232.515C137.443 232.777 134.272 228.667 132.101 220.57C130.315 212.37 129.669 199.938 130.343 182.401C131.158 164.62 133.293 141.733 134.769 117.163C136.104 92.8367 136.781 66.8273 136.749 50.5125C136.33 34.3011 134.958 27.6431 132.108 22.4139C129.361 17.5703 125.032 13.77 119.883 13.0819C114.876 12.1494 108.945 13.9435 104.603 20.8912C100.261 27.8389 97.4054 39.5545 93.3556 75.3517C89.3059 111.149 84.2037 170.783 81.3322 201.719C78.4607 232.655 77.8199 234.893 75.5696 236.528C73.2159 237.778 69.3562 238.811 66.2407 237.992C63.37 237.314 61.2434 234.784 58.91 231.483C56.5766 228.181 54.2811 224.25 54.2744 186.439C54.5124 148.77 56.7945 77.0795 56.2227 40.2465C55.8956 3.5547 52.4699 1.57891 48.0931 0.684168C43.7162 -0.21052 38.2471 0.220249 32.3439 3.66C26.4408 7.0997 20.1037 13.5484 14.6662 61.9079C9.47347 110.409 4.93561 200.679 2.75489 249.613C0.470758 298.162 0.157791 305.477 2.31677 324.322C4.617 342.923 9.24793 373.297 14.9435 400.7C20.8838 428.244 27.7474 453.062 32.5426 470.168C37.1965 487.519 39.782 497.158 44.6252 511.359C49.4684 525.559 56.7106 544.077 65.0451 561.269C73.483 578.846 83.0133 595.098 91.4337 608.754C99.854 622.411 107.164 633.471 113.817 642.849C120.327 652.47 126.321 660.164 142.751 677.462C159.181 694.76 185.84 720.891 218.861 750.691C251.882 780.492 291.406 813.717 324.927 841.524C358.447 869.331 386.312 892.246 410.969 880.067C435.626 867.888 457.178 821.001 472.701 790.191C488.083 759.626 497.19 744.997 465.105 701.722C432.879 658.692 359.112 586.488 315.893 541.028C272.673 495.568 259.999 476.852 252.764 464.531C245.285 452.069 243.386 445.759 240.697 435.734Z" fill="#45F8FA"/>
</svg>
