<svg width="347" height="655" viewBox="0 0 347 655" fill="none" xmlns="http://www.w3.org/2000/svg">
<path fill-rule="evenodd" clip-rule="evenodd" d="M399.601 315.923C392.255 323.261 382.366 333.705 366.26 351.769C350.155 369.834 327.551 395.519 309.467 421.486C291.102 447.454 276.974 473.139 258.891 505.599C240.808 537.776 218.769 576.727 204.641 602.695C190.514 628.945 184.58 642.493 177.234 648.985C170.17 655.759 161.694 655.759 154.347 653.219C147.001 650.678 141.067 645.88 140.502 637.412C139.937 628.663 144.74 616.808 152.087 600.437C159.433 584.066 169.04 563.744 179.212 542.574C189.666 521.405 200.968 499.671 207.749 485.559C214.53 471.164 217.073 464.107 217.356 457.333C217.356 450.841 215.378 444.631 211.988 442.373C208.597 440.115 203.794 442.091 197.86 448.018C192.209 454.228 185.428 464.672 177.234 480.196C169.04 496.002 159.433 516.889 148.414 538.905C137.394 560.639 124.962 583.502 116.768 597.614C108.291 611.445 103.771 616.526 98.6847 619.63C93.8814 622.453 88.2304 623.582 83.427 621.606C78.6236 619.913 74.3854 615.396 74.1028 607.211C73.8203 599.026 77.2109 587.453 91.621 554.429C106.031 521.405 131.461 467.212 144.458 438.986C157.455 410.761 158.02 408.503 156.89 405.962C155.477 403.704 152.652 400.882 149.544 400.035C146.718 399.188 143.61 400.317 139.937 402.011C136.264 403.704 132.308 405.962 113.377 438.704C94.729 471.446 60.823 534.671 41.8921 566.284C23.2437 597.897 19.288 597.897 15.0498 596.485C10.8115 595.074 6.29068 591.969 2.90007 586.042C-0.490533 580.115 -2.75094 571.365 16.7451 526.768C36.5236 482.172 77.776 401.728 100.38 358.261C122.702 315.076 126.092 308.584 137.394 293.342C148.696 278.383 167.91 254.391 186.558 233.504C205.489 212.617 223.855 194.552 236.569 182.133C249.284 169.432 256.348 162.375 267.65 152.496C278.952 142.617 294.492 130.198 310.315 119.472C326.421 108.464 342.808 99.1498 356.936 91.5289C371.064 83.908 382.931 77.9806 393.385 73.1822C403.839 68.1016 412.881 64.4323 435.768 57.6581C458.654 50.884 494.821 41.5695 538.333 32.2551C581.846 22.9406 632.705 13.9084 675.653 6.56977C718.601 -0.768891 754.202 -6.69627 769.46 16.1665C784.718 39.0292 779.914 90.3999 777.936 124.835C775.958 158.988 776.524 176.206 727.077 197.657C677.631 218.826 577.608 244.512 517.425 262.294C457.241 280.076 436.898 289.955 424.466 297.011C411.751 304.068 406.947 308.584 399.601 315.923Z" fill="#45F8FA"/>
</svg>
