<svg width="258" height="111" viewBox="0 0 258 111" fill="none" xmlns="http://www.w3.org/2000/svg">
<path d="M1.07384 47.8154C4.49844 68.3077 19.9091 81.9692 37.0321 92.2154C57.5797 102.462 76.4149 107.585 100.387 109.292C144.907 112.708 189.427 107.585 230.522 90.5077C240.796 85.3846 261.343 75.1385 256.206 61.4769C252.782 49.5231 235.659 37.5692 225.385 32.4462C203.125 20.4923 162.03 3.41538 136.345 0C160.318 3.41538 203.125 23.9077 223.673 34.1539C232.234 39.2769 256.206 54.6462 252.782 68.3077C251.069 78.5539 235.659 85.3846 227.097 88.8C186.002 104.169 141.482 109.292 98.6748 104.169C76.4149 100.754 57.5797 97.3385 38.7444 87.0923C23.3337 78.5538 11.3476 64.8923 6.21073 46.1077C-0.638457 15.3692 90.1133 5.12308 107.236 3.41538C84.9764 5.12308 -5.77535 10.2462 1.07384 47.8154Z" fill="#45F8FA"/>
</svg>
