<svg width="354" height="205" viewBox="0 0 354 205" fill="none" xmlns="http://www.w3.org/2000/svg">
<path d="M38.088 108.2H41.952V119.144L49.968 108.2H53.616V125H49.776V114.08L41.76 125H38.088V108.2ZM57.5109 112.088H61.2309V117.128H66.8469V112.088H70.5909V125H66.8469V120.176H61.2309V125H57.5109V112.088ZM85.023 115.16H80.655V125H76.935V115.16H72.567V112.088H85.023V115.16ZM99.0317 118.592C99.0317 118.64 99.0077 118.976 98.9597 119.6H89.1917C89.3677 120.4 89.7837 121.032 90.4397 121.496C91.0957 121.96 91.9117 122.192 92.8877 122.192C93.5597 122.192 94.1517 122.096 94.6637 121.904C95.1917 121.696 95.6797 121.376 96.1277 120.944L98.1197 123.104C96.9037 124.496 95.1277 125.192 92.7917 125.192C91.3357 125.192 90.0477 124.912 88.9277 124.352C87.8077 123.776 86.9437 122.984 86.3357 121.976C85.7277 120.968 85.4237 119.824 85.4237 118.544C85.4237 117.28 85.7197 116.144 86.3117 115.136C86.9197 114.112 87.7437 113.32 88.7837 112.76C89.8397 112.184 91.0157 111.896 92.3117 111.896C93.5757 111.896 94.7197 112.168 95.7437 112.712C96.7677 113.256 97.5677 114.04 98.1437 115.064C98.7357 116.072 99.0317 117.248 99.0317 118.592ZM92.3357 114.728C91.4877 114.728 90.7757 114.968 90.1997 115.448C89.6237 115.928 89.2717 116.584 89.1437 117.416H95.5037C95.3757 116.6 95.0237 115.952 94.4477 115.472C93.8717 114.976 93.1677 114.728 92.3357 114.728ZM109.51 111.896C110.71 111.896 111.798 112.176 112.774 112.736C113.766 113.28 114.542 114.056 115.102 115.064C115.662 116.056 115.942 117.216 115.942 118.544C115.942 119.872 115.662 121.04 115.102 122.048C114.542 123.04 113.766 123.816 112.774 124.376C111.798 124.92 110.71 125.192 109.51 125.192C107.862 125.192 106.566 124.672 105.622 123.632V129.656H101.878V112.088H105.454V113.576C106.382 112.456 107.734 111.896 109.51 111.896ZM108.862 122.12C109.822 122.12 110.606 121.8 111.214 121.16C111.838 120.504 112.15 119.632 112.15 118.544C112.15 117.456 111.838 116.592 111.214 115.952C110.606 115.296 109.822 114.968 108.862 114.968C107.902 114.968 107.11 115.296 106.486 115.952C105.878 116.592 105.574 117.456 105.574 118.544C105.574 119.632 105.878 120.504 106.486 121.16C107.11 121.8 107.902 122.12 108.862 122.12ZM125.55 116.216C127.23 116.232 128.518 116.616 129.414 117.368C130.31 118.104 130.758 119.152 130.758 120.512C130.758 121.936 130.254 123.048 129.246 123.848C128.254 124.632 126.854 125.024 125.046 125.024L118.566 125V112.088H122.286V116.216H125.55ZM124.71 122.36C125.43 122.376 125.982 122.224 126.366 121.904C126.75 121.584 126.942 121.104 126.942 120.464C126.942 119.84 126.75 119.384 126.366 119.096C125.998 118.808 125.446 118.656 124.71 118.64L122.286 118.616V122.36H124.71ZM145.649 118.592C145.649 118.64 145.625 118.976 145.577 119.6H135.809C135.985 120.4 136.401 121.032 137.057 121.496C137.713 121.96 138.529 122.192 139.505 122.192C140.177 122.192 140.769 122.096 141.281 121.904C141.809 121.696 142.297 121.376 142.745 120.944L144.737 123.104C143.521 124.496 141.745 125.192 139.409 125.192C137.953 125.192 136.665 124.912 135.545 124.352C134.425 123.776 133.561 122.984 132.953 121.976C132.345 120.968 132.041 119.824 132.041 118.544C132.041 117.28 132.337 116.144 132.929 115.136C133.537 114.112 134.361 113.32 135.401 112.76C136.457 112.184 137.633 111.896 138.929 111.896C140.193 111.896 141.337 112.168 142.361 112.712C143.385 113.256 144.185 114.04 144.761 115.064C145.353 116.072 145.649 117.248 145.649 118.592ZM138.953 114.728C138.105 114.728 137.393 114.968 136.817 115.448C136.241 115.928 135.889 116.584 135.761 117.416H142.121C141.993 116.6 141.641 115.952 141.065 115.472C140.489 114.976 139.785 114.728 138.953 114.728ZM156.127 111.896C157.327 111.896 158.415 112.176 159.391 112.736C160.383 113.28 161.159 114.056 161.719 115.064C162.279 116.056 162.559 117.216 162.559 118.544C162.559 119.872 162.279 121.04 161.719 122.048C161.159 123.04 160.383 123.816 159.391 124.376C158.415 124.92 157.327 125.192 156.127 125.192C154.479 125.192 153.183 124.672 152.239 123.632V129.656H148.495V112.088H152.071V113.576C152.999 112.456 154.351 111.896 156.127 111.896ZM155.479 122.12C156.439 122.12 157.223 121.8 157.831 121.16C158.455 120.504 158.767 119.632 158.767 118.544C158.767 117.456 158.455 116.592 157.831 115.952C157.223 115.296 156.439 114.968 155.479 114.968C154.519 114.968 153.727 115.296 153.103 115.952C152.495 116.592 152.191 117.456 152.191 118.544C152.191 119.632 152.495 120.504 153.103 121.16C153.727 121.8 154.519 122.12 155.479 122.12ZM165.183 112.088H168.903V117.128H174.519V112.088H178.263V125H174.519V120.176H168.903V125H165.183V112.088ZM187.895 125.192C186.535 125.192 185.311 124.912 184.223 124.352C183.151 123.776 182.311 122.984 181.703 121.976C181.095 120.968 180.791 119.824 180.791 118.544C180.791 117.264 181.095 116.12 181.703 115.112C182.311 114.104 183.151 113.32 184.223 112.76C185.311 112.184 186.535 111.896 187.895 111.896C189.255 111.896 190.471 112.184 191.543 112.76C192.615 113.32 193.455 114.104 194.063 115.112C194.671 116.12 194.975 117.264 194.975 118.544C194.975 119.824 194.671 120.968 194.063 121.976C193.455 122.984 192.615 123.776 191.543 124.352C190.471 124.912 189.255 125.192 187.895 125.192ZM187.895 122.12C188.855 122.12 189.639 121.8 190.247 121.16C190.871 120.504 191.183 119.632 191.183 118.544C191.183 117.456 190.871 116.592 190.247 115.952C189.639 115.296 188.855 114.968 187.895 114.968C186.935 114.968 186.143 115.296 185.519 115.952C184.895 116.592 184.583 117.456 184.583 118.544C184.583 119.632 184.895 120.504 185.519 121.16C186.143 121.8 186.935 122.12 187.895 122.12ZM210.102 118.592C210.102 118.64 210.078 118.976 210.03 119.6H200.262C200.438 120.4 200.854 121.032 201.51 121.496C202.166 121.96 202.982 122.192 203.958 122.192C204.63 122.192 205.222 122.096 205.734 121.904C206.262 121.696 206.75 121.376 207.198 120.944L209.19 123.104C207.974 124.496 206.198 125.192 203.862 125.192C202.406 125.192 201.118 124.912 199.998 124.352C198.878 123.776 198.014 122.984 197.406 121.976C196.798 120.968 196.494 119.824 196.494 118.544C196.494 117.28 196.79 116.144 197.382 115.136C197.99 114.112 198.814 113.32 199.854 112.76C200.91 112.184 202.086 111.896 203.382 111.896C204.646 111.896 205.79 112.168 206.814 112.712C207.838 113.256 208.638 114.04 209.214 115.064C209.806 116.072 210.102 117.248 210.102 118.592ZM203.406 114.728C202.558 114.728 201.846 114.968 201.27 115.448C200.694 115.928 200.342 116.584 200.214 117.416H206.574C206.446 116.6 206.094 115.952 205.518 115.472C204.942 114.976 204.238 114.728 203.406 114.728ZM43.848 154.192C42.488 154.192 41.264 153.912 40.176 153.352C39.104 152.776 38.264 151.984 37.656 150.976C37.048 149.968 36.744 148.824 36.744 147.544C36.744 146.264 37.048 145.12 37.656 144.112C38.264 143.104 39.104 142.32 40.176 141.76C41.264 141.184 42.488 140.896 43.848 140.896C45.208 140.896 46.424 141.184 47.496 141.76C48.568 142.32 49.408 143.104 50.016 144.112C50.624 145.12 50.928 146.264 50.928 147.544C50.928 148.824 50.624 149.968 50.016 150.976C49.408 151.984 48.568 152.776 47.496 153.352C46.424 153.912 45.208 154.192 43.848 154.192ZM43.848 151.12C44.808 151.12 45.592 150.8 46.2 150.16C46.824 149.504 47.136 148.632 47.136 147.544C47.136 146.456 46.824 145.592 46.2 144.952C45.592 144.296 44.808 143.968 43.848 143.968C42.888 143.968 42.096 144.296 41.472 144.952C40.848 145.592 40.536 146.456 40.536 147.544C40.536 148.632 40.848 149.504 41.472 150.16C42.096 150.8 42.888 151.12 43.848 151.12ZM71.3351 147.496C71.3351 149.496 70.6631 151.08 69.3191 152.248C67.9911 153.4 66.0871 154.064 63.6071 154.24V158.656H60.1751V154.24C57.6951 154.064 55.7831 153.408 54.4391 152.272C53.1111 151.12 52.4471 149.528 52.4471 147.496C52.4471 145.496 53.1031 143.944 54.4151 142.84C55.7431 141.736 57.6631 141.096 60.1751 140.92V136.192H63.6071V140.92C66.0871 141.096 67.9911 141.744 69.3191 142.864C70.6631 143.984 71.3351 145.528 71.3351 147.496ZM56.0711 147.496C56.0711 148.648 56.3991 149.536 57.0551 150.16C57.7111 150.784 58.7511 151.176 60.1751 151.336V143.824C58.7511 143.968 57.7111 144.344 57.0551 144.952C56.3991 145.544 56.0711 146.392 56.0711 147.496ZM63.6071 151.336C65.0311 151.176 66.0711 150.784 66.7271 150.16C67.3991 149.536 67.7351 148.648 67.7351 147.496C67.7351 146.392 67.3991 145.544 66.7271 144.952C66.0711 144.344 65.0311 143.968 63.6071 143.824V151.336ZM79.9183 154.192C78.5583 154.192 77.3343 153.912 76.2463 153.352C75.1743 152.776 74.3343 151.984 73.7263 150.976C73.1183 149.968 72.8143 148.824 72.8143 147.544C72.8143 146.264 73.1183 145.12 73.7263 144.112C74.3343 143.104 75.1743 142.32 76.2463 141.76C77.3343 141.184 78.5583 140.896 79.9183 140.896C81.2783 140.896 82.4943 141.184 83.5663 141.76C84.6383 142.32 85.4783 143.104 86.0863 144.112C86.6943 145.12 86.9983 146.264 86.9983 147.544C86.9983 148.824 86.6943 149.968 86.0863 150.976C85.4783 151.984 84.6383 152.776 83.5663 153.352C82.4943 153.912 81.2783 154.192 79.9183 154.192ZM79.9183 151.12C80.8783 151.12 81.6623 150.8 82.2703 150.16C82.8943 149.504 83.2063 148.632 83.2063 147.544C83.2063 146.456 82.8943 145.592 82.2703 144.952C81.6623 144.296 80.8783 143.968 79.9183 143.968C78.9583 143.968 78.1663 144.296 77.5423 144.952C76.9183 145.592 76.6063 146.456 76.6063 147.544C76.6063 148.632 76.9183 149.504 77.5423 150.16C78.1663 150.8 78.9583 151.12 79.9183 151.12ZM97.1814 140.896C98.3814 140.896 99.4694 141.176 100.445 141.736C101.437 142.28 102.213 143.056 102.773 144.064C103.333 145.056 103.613 146.216 103.613 147.544C103.613 148.872 103.333 150.04 102.773 151.048C102.213 152.04 101.437 152.816 100.445 153.376C99.4694 153.92 98.3814 154.192 97.1814 154.192C95.5334 154.192 94.2374 153.672 93.2934 152.632V158.656H89.5494V141.088H93.1254V142.576C94.0534 141.456 95.4054 140.896 97.1814 140.896ZM96.5334 151.12C97.4934 151.12 98.2774 150.8 98.8854 150.16C99.5094 149.504 99.8214 148.632 99.8214 147.544C99.8214 146.456 99.5094 145.592 98.8854 144.952C98.2774 144.296 97.4934 143.968 96.5334 143.968C95.5734 143.968 94.7814 144.296 94.1574 144.952C93.5494 145.592 93.2454 146.456 93.2454 147.544C93.2454 148.632 93.5494 149.504 94.1574 150.16C94.7814 150.8 95.5734 151.12 96.5334 151.12ZM118.838 154V146.272L114.974 152.752H113.39L109.622 146.248V154H106.238V141.088H110.15L114.278 148.552L118.67 141.088H122.174L122.222 154H118.838ZM138.192 141.088V154H134.448V144.16H130.368L130.248 146.44C130.184 148.136 130.024 149.544 129.768 150.664C129.512 151.784 129.096 152.664 128.52 153.304C127.944 153.944 127.144 154.264 126.12 154.264C125.576 154.264 124.928 154.168 124.176 153.976L124.368 150.904C124.624 150.936 124.808 150.952 124.92 150.952C125.48 150.952 125.896 150.752 126.168 150.352C126.456 149.936 126.648 149.416 126.744 148.792C126.84 148.152 126.912 147.312 126.96 146.272L127.152 141.088H138.192ZM154.344 147.592C154.344 147.64 154.32 147.976 154.272 148.6H144.504C144.68 149.4 145.096 150.032 145.752 150.496C146.408 150.96 147.224 151.192 148.2 151.192C148.872 151.192 149.464 151.096 149.976 150.904C150.504 150.696 150.992 150.376 151.44 149.944L153.432 152.104C152.216 153.496 150.44 154.192 148.104 154.192C146.648 154.192 145.36 153.912 144.24 153.352C143.12 152.776 142.256 151.984 141.648 150.976C141.04 149.968 140.736 148.824 140.736 147.544C140.736 146.28 141.032 145.144 141.624 144.136C142.232 143.112 143.056 142.32 144.096 141.76C145.152 141.184 146.328 140.896 147.624 140.896C148.888 140.896 150.032 141.168 151.056 141.712C152.08 142.256 152.88 143.04 153.456 144.064C154.048 145.072 154.344 146.248 154.344 147.592ZM147.648 143.728C146.8 143.728 146.088 143.968 145.512 144.448C144.936 144.928 144.584 145.584 144.456 146.416H150.816C150.688 145.6 150.336 144.952 149.76 144.472C149.184 143.976 148.48 143.728 147.648 143.728ZM157.214 141.088H160.934V146.128H166.55V141.088H170.294V154H166.55V149.176H160.934V154H157.214V141.088ZM173.878 141.088H177.598V148.768L183.886 141.088H187.318V154H183.598V146.32L177.334 154H173.878V141.088ZM203.469 147.592C203.469 147.64 203.445 147.976 203.397 148.6H193.629C193.805 149.4 194.221 150.032 194.877 150.496C195.533 150.96 196.349 151.192 197.325 151.192C197.997 151.192 198.589 151.096 199.101 150.904C199.629 150.696 200.117 150.376 200.565 149.944L202.557 152.104C201.341 153.496 199.565 154.192 197.229 154.192C195.773 154.192 194.485 153.912 193.365 153.352C192.245 152.776 191.381 151.984 190.773 150.976C190.165 149.968 189.861 148.824 189.861 147.544C189.861 146.28 190.157 145.144 190.749 144.136C191.357 143.112 192.181 142.32 193.221 141.76C194.277 141.184 195.453 140.896 196.749 140.896C198.013 140.896 199.157 141.168 200.181 141.712C201.205 142.256 202.005 143.04 202.581 144.064C203.173 145.072 203.469 146.248 203.469 147.592ZM196.773 143.728C195.925 143.728 195.213 143.968 194.637 144.448C194.061 144.928 193.709 145.584 193.581 146.416H199.941C199.813 145.6 199.461 144.952 198.885 144.472C198.309 143.976 197.605 143.728 196.773 143.728Z" fill="black"/>
<path d="M54.5938 75.7812H43.6562H38.1875V79.0625H103.812V75.7812H54.5938Z" fill="#D1CBEC"/>
<path d="M55.6875 30.9375H42.5625L41.4688 47.3438H56.7812L55.6875 30.9375Z" fill="#D1CBEC"/>
<path d="M75.375 34.2188H88.5V41.875H75.375V34.2188Z" fill="#D1CBEC"/>
<path d="M66.0781 72.5H97.7969C98.156 72.5001 98.5116 72.4294 98.8434 72.292C99.1752 72.1546 99.4767 71.9533 99.7306 71.6994C99.9845 71.4454 100.186 71.1439 100.323 70.8121C100.461 70.4803 100.531 70.1246 100.531 69.7655V61.0155C100.531 60.6564 100.461 60.3009 100.323 59.9691C100.186 59.6373 99.9845 59.3358 99.7306 59.0819C99.4767 58.828 99.1752 58.6266 98.8434 58.4892C98.5116 58.3518 98.156 58.2811 97.7969 58.2813H96.7031C96.344 58.2811 95.9884 58.3518 95.6566 58.4892C95.3248 58.6266 95.0233 58.828 94.7694 59.0819C94.5155 59.3358 94.3141 59.6373 94.1767 59.9691C94.0393 60.3009 93.9686 60.6564 93.9688 61.0155V65.9375H69.9062V61.0155C69.9064 60.6564 69.8357 60.3009 69.6983 59.9691C69.561 59.6373 69.3595 59.3358 69.1056 59.0819C68.8517 58.828 68.5502 58.6266 68.2184 58.4892C67.8866 58.3518 67.531 58.2811 67.1719 58.2813H66.0781C65.719 58.2811 65.3634 58.3518 65.0316 58.4892C64.6998 58.6266 64.3983 58.828 64.1444 59.0819C63.8905 59.3358 63.689 59.6373 63.5517 59.9691C63.4143 60.3009 63.3436 60.6564 63.3438 61.0155V69.7655C63.3436 70.1246 63.4143 70.4803 63.5517 70.8121C63.689 71.1439 63.8905 71.4454 64.1444 71.6994C64.3983 71.9533 64.6998 72.1546 65.0316 72.292C65.3634 72.4294 65.719 72.5001 66.0781 72.5Z" fill="#D1CBEC"/>
<path d="M103.812 74.6875H99.4375V73.2232C100.092 72.9125 100.644 72.4228 101.031 71.8108C101.419 71.1989 101.624 70.4898 101.625 69.7656V61.0156C101.624 60.0955 101.292 59.2065 100.689 58.511C100.087 57.8155 99.2543 57.3598 98.3438 57.2271V53.3594C98.3426 52.3444 97.9389 51.3714 97.2213 50.6537C96.5036 49.9361 95.5306 49.5324 94.5156 49.5312H69.3594C68.3444 49.5324 67.3714 49.9361 66.6537 50.6537C65.9361 51.3714 65.5324 52.3444 65.5312 53.3594V57.2271C64.6207 57.3598 63.7883 57.8155 63.1859 58.511C62.5835 59.2065 62.2513 60.0955 62.25 61.0156V69.7656C62.2513 70.6858 62.5835 71.5747 63.1859 72.2702C63.7883 72.9658 64.6207 73.4214 65.5312 73.5541V74.6875H55.6875V71.4062C55.6875 71.1162 55.5723 70.838 55.3671 70.6329C55.162 70.4277 54.8838 70.3125 54.5938 70.3125H50.2188V48.4375H56.7812C56.931 48.4376 57.0792 48.4069 57.2166 48.3474C57.354 48.2878 57.4777 48.2006 57.58 48.0913C57.6823 47.9819 57.761 47.8527 57.8113 47.7116C57.8616 47.5706 57.8823 47.4207 57.8723 47.2713L56.7785 30.865C56.7601 30.5882 56.6372 30.3286 56.4346 30.139C56.2321 29.9494 55.965 29.8438 55.6875 29.8438H42.5625C42.285 29.8438 42.0179 29.9494 41.8154 30.139C41.6128 30.3286 41.4899 30.5882 41.4715 30.865L40.3777 47.2713C40.3677 47.4207 40.3884 47.5706 40.4387 47.7116C40.489 47.8527 40.5677 47.9819 40.67 48.0913C40.7723 48.2006 40.896 48.2878 41.0334 48.3474C41.1708 48.4069 41.319 48.4376 41.4688 48.4375H48.0312V70.3125H43.6562C43.3662 70.3125 43.088 70.4277 42.8829 70.6329C42.6777 70.838 42.5625 71.1162 42.5625 71.4062V74.6875H38.1875C37.8974 74.6875 37.6192 74.8027 37.4141 75.0079C37.209 75.213 37.0938 75.4912 37.0938 75.7812V79.0625C37.0938 79.3526 37.209 79.6308 37.4141 79.8359C37.6192 80.041 37.8974 80.1562 38.1875 80.1562H103.812C104.103 80.1562 104.381 80.041 104.586 79.8359C104.791 79.6308 104.906 79.3526 104.906 79.0625V75.7812C104.906 75.4912 104.791 75.213 104.586 75.0079C104.381 74.8027 104.103 74.6875 103.812 74.6875ZM67.7188 53.3594C67.7191 52.9244 67.8921 52.5073 68.1997 52.1997C68.5073 51.8921 68.9244 51.7191 69.3594 51.7188H94.5156C94.9506 51.7191 95.3677 51.8921 95.6753 52.1997C95.9829 52.5073 96.1559 52.9244 96.1562 53.3594V57.2271C95.2457 57.3598 94.4133 57.8155 93.8109 58.511C93.2085 59.2065 92.8763 60.0955 92.875 61.0156V64.8438H71V61.0156C70.9987 60.0955 70.6665 59.2065 70.0641 58.511C69.4617 57.8155 68.6293 57.3598 67.7188 57.2271V53.3594ZM64.4375 69.7656V61.0156C64.4379 60.5806 64.6108 60.1635 64.9184 59.8559C65.226 59.5483 65.6431 59.3754 66.0781 59.375H67.1719C67.6069 59.3754 68.024 59.5483 68.3316 59.8559C68.6392 60.1635 68.8121 60.5806 68.8125 61.0156V65.9375C68.8125 66.2276 68.9277 66.5058 69.1329 66.7109C69.338 66.916 69.6162 67.0312 69.9062 67.0312H93.9688C94.2588 67.0312 94.537 66.916 94.7421 66.7109C94.9473 66.5058 95.0625 66.2276 95.0625 65.9375V61.0156C95.0629 60.5806 95.2358 60.1635 95.5434 59.8559C95.851 59.5483 96.2681 59.3754 96.7031 59.375H97.7969C98.2319 59.3754 98.649 59.5483 98.9566 59.8559C99.2642 60.1635 99.4371 60.5806 99.4375 61.0156V69.7656C99.4371 70.2006 99.2642 70.6177 98.9566 70.9253C98.649 71.2329 98.2319 71.4059 97.7969 71.4062H66.0781C65.6431 71.4059 65.226 71.2329 64.9184 70.9253C64.6108 70.6177 64.4379 70.2006 64.4375 69.7656ZM97.25 73.5938V74.6875H95.0625V73.5938H97.25ZM92.875 73.5938V74.6875H72.0938V73.5938H92.875ZM69.9062 73.5938V74.6875H67.7188V73.5938H69.9062ZM42.6377 46.25L43.5852 32.0312H54.6648L55.6123 46.25H42.6377ZM44.75 72.5H53.5V74.6875H44.75V72.5ZM102.719 77.9688H39.2812V76.875H102.719V77.9688Z" fill="#8573D1"/>
<path d="M72.0938 46.25H91.7812C92.0713 46.25 92.3495 46.1348 92.5546 45.9296C92.7598 45.7245 92.875 45.4463 92.875 45.1562V30.9375C92.875 30.6474 92.7598 30.3692 92.5546 30.1641C92.3495 29.959 92.0713 29.8438 91.7812 29.8438H72.0938C71.8037 29.8438 71.5255 29.959 71.3204 30.1641C71.1152 30.3692 71 30.6474 71 30.9375V45.1562C71 45.4463 71.1152 45.7245 71.3204 45.9296C71.5255 46.1348 71.8037 46.25 72.0938 46.25ZM73.1875 32.0312H90.6875V44.0625H73.1875V32.0312Z" fill="#8573D1"/>
<path d="M88.5 33.125H75.375C75.0849 33.125 74.8067 33.2402 74.6016 33.4454C74.3965 33.6505 74.2812 33.9287 74.2812 34.2188V41.875C74.2812 42.1651 74.3965 42.4433 74.6016 42.6484C74.8067 42.8535 75.0849 42.9688 75.375 42.9688H88.5C88.7901 42.9688 89.0683 42.8535 89.2734 42.6484C89.4785 42.4433 89.5938 42.1651 89.5938 41.875V34.2188C89.5938 33.9287 89.4785 33.6505 89.2734 33.4454C89.0683 33.2402 88.7901 33.125 88.5 33.125ZM87.4062 40.7812H76.4688V35.3125H87.4062V40.7812Z" fill="#8573D1"/>
</svg>
