<svg width="382" height="209" viewBox="0 0 382 209" fill="none" xmlns="http://www.w3.org/2000/svg">
<path d="M60.264 108.2V125H38.088V108.2H41.952V121.832H47.256V108.2H51.12V121.832H56.4V108.2H60.264ZM64.1438 112.088H67.8638V119.768L74.1518 112.088H77.5838V125H73.8638V117.32L67.5998 125H64.1438V112.088ZM88.7908 111.896C89.9908 111.896 91.0788 112.176 92.0548 112.736C93.0468 113.28 93.8228 114.056 94.3828 115.064C94.9428 116.056 95.2228 117.216 95.2228 118.544C95.2228 119.872 94.9428 121.04 94.3828 122.048C93.8228 123.04 93.0468 123.816 92.0548 124.376C91.0788 124.92 89.9908 125.192 88.7908 125.192C87.1428 125.192 85.8468 124.672 84.9028 123.632V129.656H81.1588V112.088H84.7348V113.576C85.6628 112.456 87.0148 111.896 88.7908 111.896ZM88.1428 122.12C89.1028 122.12 89.8868 121.8 90.4948 121.16C91.1188 120.504 91.4308 119.632 91.4308 118.544C91.4308 117.456 91.1188 116.592 90.4948 115.952C89.8868 115.296 89.1028 114.968 88.1428 114.968C87.1828 114.968 86.3908 115.296 85.7668 115.952C85.1588 116.592 84.8548 117.456 84.8548 118.544C84.8548 119.632 85.1588 120.504 85.7668 121.16C86.3908 121.8 87.1828 122.12 88.1428 122.12ZM103.895 125.192C102.535 125.192 101.311 124.912 100.223 124.352C99.1509 123.776 98.3109 122.984 97.7029 121.976C97.0949 120.968 96.7909 119.824 96.7909 118.544C96.7909 117.264 97.0949 116.12 97.7029 115.112C98.3109 114.104 99.1509 113.32 100.223 112.76C101.311 112.184 102.535 111.896 103.895 111.896C105.255 111.896 106.471 112.184 107.543 112.76C108.615 113.32 109.455 114.104 110.063 115.112C110.671 116.12 110.975 117.264 110.975 118.544C110.975 119.824 110.671 120.968 110.063 121.976C109.455 122.984 108.615 123.776 107.543 124.352C106.471 124.912 105.255 125.192 103.895 125.192ZM103.895 122.12C104.855 122.12 105.639 121.8 106.247 121.16C106.871 120.504 107.183 119.632 107.183 118.544C107.183 117.456 106.871 116.592 106.247 115.952C105.639 115.296 104.855 114.968 103.895 114.968C102.935 114.968 102.143 115.296 101.519 115.952C100.895 116.592 100.583 117.456 100.583 118.544C100.583 119.632 100.895 120.504 101.519 121.16C102.143 121.8 102.935 122.12 103.895 122.12ZM119.238 120.104H117.294V125H113.55V112.088H117.294V117.104H119.31L122.814 112.088H126.798L122.286 118.28L127.11 125H122.694L119.238 120.104ZM134.598 125.192C133.238 125.192 132.014 124.912 130.926 124.352C129.854 123.776 129.014 122.984 128.406 121.976C127.798 120.968 127.494 119.824 127.494 118.544C127.494 117.264 127.798 116.12 128.406 115.112C129.014 114.104 129.854 113.32 130.926 112.76C132.014 112.184 133.238 111.896 134.598 111.896C135.958 111.896 137.174 112.184 138.246 112.76C139.318 113.32 140.158 114.104 140.766 115.112C141.374 116.12 141.678 117.264 141.678 118.544C141.678 119.824 141.374 120.968 140.766 121.976C140.158 122.984 139.318 123.776 138.246 124.352C137.174 124.912 135.958 125.192 134.598 125.192ZM134.598 122.12C135.558 122.12 136.342 121.8 136.95 121.16C137.574 120.504 137.886 119.632 137.886 118.544C137.886 117.456 137.574 116.592 136.95 115.952C136.342 115.296 135.558 114.968 134.598 114.968C133.638 114.968 132.846 115.296 132.222 115.952C131.598 116.592 131.286 117.456 131.286 118.544C131.286 119.632 131.598 120.504 132.222 121.16C132.846 121.8 133.638 122.12 134.598 122.12ZM162.085 118.496C162.085 120.496 161.413 122.08 160.069 123.248C158.741 124.4 156.837 125.064 154.357 125.24V129.656H150.925V125.24C148.445 125.064 146.533 124.408 145.189 123.272C143.861 122.12 143.197 120.528 143.197 118.496C143.197 116.496 143.853 114.944 145.165 113.84C146.493 112.736 148.413 112.096 150.925 111.92V107.192H154.357V111.92C156.837 112.096 158.741 112.744 160.069 113.864C161.413 114.984 162.085 116.528 162.085 118.496ZM146.821 118.496C146.821 119.648 147.149 120.536 147.805 121.16C148.461 121.784 149.501 122.176 150.925 122.336V114.824C149.501 114.968 148.461 115.344 147.805 115.952C147.149 116.544 146.821 117.392 146.821 118.496ZM154.357 122.336C155.781 122.176 156.821 121.784 157.477 121.16C158.149 120.536 158.485 119.648 158.485 118.496C158.485 117.392 158.149 116.544 157.477 115.952C156.821 115.344 155.781 114.968 154.357 114.824V122.336ZM170.668 125.192C169.308 125.192 168.084 124.912 166.996 124.352C165.924 123.776 165.084 122.984 164.476 121.976C163.868 120.968 163.564 119.824 163.564 118.544C163.564 117.264 163.868 116.12 164.476 115.112C165.084 114.104 165.924 113.32 166.996 112.76C168.084 112.184 169.308 111.896 170.668 111.896C172.028 111.896 173.244 112.184 174.316 112.76C175.388 113.32 176.228 114.104 176.836 115.112C177.444 116.12 177.748 117.264 177.748 118.544C177.748 119.824 177.444 120.968 176.836 121.976C176.228 122.984 175.388 123.776 174.316 124.352C173.244 124.912 172.028 125.192 170.668 125.192ZM170.668 122.12C171.628 122.12 172.412 121.8 173.02 121.16C173.644 120.504 173.956 119.632 173.956 118.544C173.956 117.456 173.644 116.592 173.02 115.952C172.412 115.296 171.628 114.968 170.668 114.968C169.708 114.968 168.916 115.296 168.292 115.952C167.668 116.592 167.356 117.456 167.356 118.544C167.356 119.632 167.668 120.504 168.292 121.16C168.916 121.8 169.708 122.12 170.668 122.12ZM187.931 111.896C189.131 111.896 190.219 112.176 191.195 112.736C192.187 113.28 192.963 114.056 193.523 115.064C194.083 116.056 194.363 117.216 194.363 118.544C194.363 119.872 194.083 121.04 193.523 122.048C192.963 123.04 192.187 123.816 191.195 124.376C190.219 124.92 189.131 125.192 187.931 125.192C186.283 125.192 184.987 124.672 184.043 123.632V129.656H180.299V112.088H183.875V113.576C184.803 112.456 186.155 111.896 187.931 111.896ZM187.283 122.12C188.243 122.12 189.027 121.8 189.635 121.16C190.259 120.504 190.571 119.632 190.571 118.544C190.571 117.456 190.259 116.592 189.635 115.952C189.027 115.296 188.243 114.968 187.283 114.968C186.323 114.968 185.531 115.296 184.907 115.952C184.299 116.592 183.995 117.456 183.995 118.544C183.995 119.632 184.299 120.504 184.907 121.16C185.531 121.8 186.323 122.12 187.283 122.12ZM209.588 125V117.272L205.724 123.752H204.14L200.372 117.248V125H196.988V112.088H200.9L205.028 119.552L209.42 112.088H212.924L212.972 125H209.588ZM221.574 111.896C223.574 111.896 225.11 112.376 226.182 113.336C227.254 114.28 227.79 115.712 227.79 117.632V125H224.286V123.392C223.582 124.592 222.27 125.192 220.35 125.192C219.358 125.192 218.494 125.024 217.758 124.688C217.038 124.352 216.486 123.888 216.102 123.296C215.718 122.704 215.526 122.032 215.526 121.28C215.526 120.08 215.974 119.136 216.87 118.448C217.782 117.76 219.182 117.416 221.07 117.416H224.046C224.046 116.6 223.798 115.976 223.302 115.544C222.806 115.096 222.062 114.872 221.07 114.872C220.382 114.872 219.702 114.984 219.03 115.208C218.374 115.416 217.814 115.704 217.35 116.072L216.006 113.456C216.71 112.96 217.55 112.576 218.526 112.304C219.518 112.032 220.534 111.896 221.574 111.896ZM221.286 122.672C221.926 122.672 222.494 122.528 222.99 122.24C223.486 121.936 223.838 121.496 224.046 120.92V119.6H221.478C219.942 119.6 219.174 120.104 219.174 121.112C219.174 121.592 219.358 121.976 219.726 122.264C220.11 122.536 220.63 122.672 221.286 122.672ZM241.89 115.16H237.522V125H233.802V115.16H229.434V112.088H241.89V115.16ZM243.886 112.088H247.606V117.128H253.222V112.088H256.966V125H253.222V120.176H247.606V125H243.886V112.088ZM265.566 111.896C267.566 111.896 269.102 112.376 270.174 113.336C271.246 114.28 271.782 115.712 271.782 117.632V125H268.278V123.392C267.574 124.592 266.262 125.192 264.342 125.192C263.35 125.192 262.486 125.024 261.75 124.688C261.03 124.352 260.478 123.888 260.094 123.296C259.71 122.704 259.518 122.032 259.518 121.28C259.518 120.08 259.966 119.136 260.862 118.448C261.774 117.76 263.174 117.416 265.062 117.416H268.038C268.038 116.6 267.79 115.976 267.294 115.544C266.798 115.096 266.054 114.872 265.062 114.872C264.374 114.872 263.694 114.984 263.022 115.208C262.366 115.416 261.806 115.704 261.342 116.072L259.998 113.456C260.702 112.96 261.542 112.576 262.518 112.304C263.51 112.032 264.526 111.896 265.566 111.896ZM265.278 122.672C265.918 122.672 266.486 122.528 266.982 122.24C267.478 121.936 267.83 121.496 268.038 120.92V119.6H265.47C263.934 119.6 263.166 120.104 263.166 121.112C263.166 121.592 263.35 121.976 263.718 122.264C264.102 122.536 264.622 122.672 265.278 122.672ZM286.506 112.088V125H283.17V121.304H280.41L277.962 125H273.978L276.93 120.776C276.034 120.424 275.346 119.92 274.866 119.264C274.402 118.592 274.17 117.784 274.17 116.84C274.17 115.32 274.714 114.152 275.802 113.336C276.906 112.504 278.418 112.088 280.338 112.088H286.506ZM280.41 115.136C279.61 115.136 279.002 115.28 278.586 115.568C278.186 115.856 277.986 116.32 277.986 116.96C277.986 117.6 278.178 118.072 278.562 118.376C278.962 118.664 279.562 118.808 280.362 118.808H283.17V115.136H280.41ZM50.64 141.088V154H46.896V144.16H41.52V154H37.8V141.088H50.64ZM66.7817 147.592C66.7817 147.64 66.7577 147.976 66.7097 148.6H56.9417C57.1177 149.4 57.5337 150.032 58.1897 150.496C58.8457 150.96 59.6617 151.192 60.6377 151.192C61.3097 151.192 61.9017 151.096 62.4137 150.904C62.9417 150.696 63.4297 150.376 63.8777 149.944L65.8697 152.104C64.6537 153.496 62.8777 154.192 60.5417 154.192C59.0857 154.192 57.7977 153.912 56.6777 153.352C55.5577 152.776 54.6937 151.984 54.0857 150.976C53.4777 149.968 53.1737 148.824 53.1737 147.544C53.1737 146.28 53.4697 145.144 54.0617 144.136C54.6697 143.112 55.4937 142.32 56.5337 141.76C57.5897 141.184 58.7657 140.896 60.0617 140.896C61.3257 140.896 62.4697 141.168 63.4937 141.712C64.5177 142.256 65.3177 143.04 65.8937 144.064C66.4857 145.072 66.7817 146.248 66.7817 147.592ZM60.0857 143.728C59.2377 143.728 58.5257 143.968 57.9497 144.448C57.3737 144.928 57.0217 145.584 56.8937 146.416H63.2537C63.1257 145.6 62.7737 144.952 62.1977 144.472C61.6217 143.976 60.9177 143.728 60.0857 143.728ZM81.2676 141.088V154H77.5236V149.2C76.4356 149.744 75.2356 150.016 73.9236 150.016C72.1796 150.016 70.8596 149.624 69.9636 148.84C69.0836 148.04 68.6436 146.808 68.6436 145.144V141.088H72.3876V144.904C72.3876 145.688 72.5876 146.256 72.9876 146.608C73.4036 146.96 73.9956 147.136 74.7636 147.136C75.7396 147.136 76.6596 146.928 77.5236 146.512V141.088H81.2676ZM89.8785 140.896C91.8785 140.896 93.4145 141.376 94.4865 142.336C95.5585 143.28 96.0945 144.712 96.0945 146.632V154H92.5905V152.392C91.8865 153.592 90.5745 154.192 88.6545 154.192C87.6625 154.192 86.7985 154.024 86.0625 153.688C85.3425 153.352 84.7905 152.888 84.4065 152.296C84.0225 151.704 83.8305 151.032 83.8305 150.28C83.8305 149.08 84.2785 148.136 85.1745 147.448C86.0865 146.76 87.4865 146.416 89.3745 146.416H92.3505C92.3505 145.6 92.1025 144.976 91.6065 144.544C91.1105 144.096 90.3665 143.872 89.3745 143.872C88.6865 143.872 88.0065 143.984 87.3345 144.208C86.6785 144.416 86.1185 144.704 85.6545 145.072L84.3105 142.456C85.0145 141.96 85.8545 141.576 86.8305 141.304C87.8225 141.032 88.8385 140.896 89.8785 140.896ZM89.5905 151.672C90.2305 151.672 90.7985 151.528 91.2945 151.24C91.7905 150.936 92.1425 150.496 92.3505 149.92V148.6H89.7825C88.2465 148.6 87.4785 149.104 87.4785 150.112C87.4785 150.592 87.6625 150.976 88.0305 151.264C88.4145 151.536 88.9345 151.672 89.5905 151.672ZM110.195 144.16H105.827V154H102.107V144.16H97.7389V141.088H110.195V144.16ZM119.175 145.216C120.855 145.232 122.143 145.616 123.039 146.368C123.935 147.104 124.383 148.152 124.383 149.512C124.383 150.936 123.879 152.048 122.871 152.848C121.879 153.632 120.479 154.024 118.671 154.024L112.191 154V141.088H115.911V145.216H119.175ZM118.335 151.36C119.055 151.376 119.607 151.224 119.991 150.904C120.375 150.584 120.567 150.104 120.567 149.464C120.567 148.84 120.375 148.384 119.991 148.096C119.623 147.808 119.071 147.656 118.335 147.64L115.911 147.616V151.36H118.335Z" fill="black"/>
<path d="M97.25 39.5H44.75C43.0095 39.5 41.3403 38.8086 40.1096 37.5779C38.8789 36.3472 38.1875 34.678 38.1875 32.9375C38.1875 31.197 38.8789 29.5278 40.1096 28.2971C41.3403 27.0664 43.0095 26.375 44.75 26.375H97.25C95.5095 26.375 93.8403 27.0664 92.6096 28.2971C91.3789 29.5278 90.6875 31.197 90.6875 32.9375C90.6875 34.678 91.3789 36.3472 92.6096 37.5779C93.8403 38.8086 95.5095 39.5 97.25 39.5Z" fill="#D1CBEC"/>
<path d="M97.25 26.375C95.9521 26.375 94.6833 26.7599 93.6041 27.481C92.5249 28.2021 91.6837 29.227 91.187 30.4261C90.6903 31.6253 90.5604 32.9448 90.8136 34.2178C91.0668 35.4908 91.6918 36.6601 92.6096 37.5779C93.5274 38.4957 94.6967 39.1207 95.9697 39.3739C97.2427 39.6271 98.5622 39.4972 99.7614 39.0005C100.961 38.5038 101.985 37.6626 102.707 36.5834C103.428 35.5042 103.813 34.2354 103.813 32.9375C103.813 31.197 103.121 29.5278 101.89 28.2971C100.66 27.0664 98.9905 26.375 97.25 26.375ZM97.25 35.125C96.8174 35.125 96.3944 34.9967 96.0347 34.7563C95.675 34.516 95.3946 34.1743 95.229 33.7746C95.0634 33.3749 95.0201 32.9351 95.1045 32.5107C95.1889 32.0864 95.3973 31.6966 95.7032 31.3907C96.0091 31.0848 96.3989 30.8764 96.8232 30.792C97.2476 30.7076 97.6874 30.7509 98.0871 30.9165C98.4868 31.0821 98.8285 31.3625 99.0688 31.7222C99.3092 32.0819 99.4375 32.5049 99.4375 32.9375C99.4375 33.5177 99.207 34.0741 98.7968 34.4843C98.3866 34.8945 97.8302 35.125 97.25 35.125Z" fill="#D1CBEC"/>
<path d="M97.25 25.2812H44.75C42.7194 25.2812 40.772 26.0879 39.3362 27.5237C37.9004 28.9595 37.0938 30.9069 37.0938 32.9375C37.0938 34.9681 37.9004 36.9155 39.3362 38.3513C40.772 39.7871 42.7194 40.5938 44.75 40.5938H48.0312V87.625C48.0312 87.9151 48.1465 88.1933 48.3516 88.3984C48.5567 88.6035 48.8349 88.7188 49.125 88.7188H88.5C88.7901 88.7188 89.0683 88.6035 89.2734 88.3984C89.4785 88.1933 89.5938 87.9151 89.5938 87.625V40.5938H97.25C99.2806 40.5938 101.228 39.7871 102.664 38.3513C104.1 36.9155 104.906 34.9681 104.906 32.9375C104.906 30.9069 104.1 28.9595 102.664 27.5237C101.228 26.0879 99.2806 25.2812 97.25 25.2812ZM87.4062 86.5312H50.2188V40.5938H87.4062V86.5312ZM44.75 38.4062C43.2996 38.4062 41.9086 37.8301 40.883 36.8045C39.8574 35.7789 39.2812 34.3879 39.2812 32.9375C39.2812 31.4871 39.8574 30.0961 40.883 29.0705C41.9086 28.0449 43.2996 27.4688 44.75 27.4688H91.899C91.1693 28.1804 90.5895 29.0309 90.1936 29.9701C89.7977 30.9093 89.5937 31.9183 89.5937 32.9375C89.5937 33.9567 89.7977 34.9657 90.1936 35.9049C90.5895 36.8441 91.1693 37.6946 91.899 38.4062H44.75ZM97.25 38.4062C96.1684 38.4062 95.1111 38.0855 94.2117 37.4846C93.3124 36.8837 92.6115 36.0296 92.1975 35.0303C91.7836 34.031 91.6753 32.9314 91.8863 31.8706C92.0973 30.8098 92.6182 29.8353 93.383 29.0705C94.1478 28.3057 95.1223 27.7848 96.1831 27.5738C97.2439 27.3628 98.3435 27.4711 99.3428 27.885C100.342 28.2989 101.196 28.9999 101.797 29.8992C102.398 30.7986 102.719 31.8559 102.719 32.9375C102.717 34.3874 102.14 35.7775 101.115 36.8027C100.09 37.8279 98.6999 38.4046 97.25 38.4062Z" fill="#8573D1"/>
<path d="M97.25 29.6562C96.601 29.6562 95.9666 29.8487 95.427 30.2092C94.8874 30.5698 94.4669 31.0822 94.2185 31.6818C93.9702 32.2814 93.9052 32.9411 94.0318 33.5776C94.1584 34.2141 94.4709 34.7988 94.9298 35.2577C95.3887 35.7166 95.9734 36.0291 96.6099 36.1557C97.2464 36.2823 97.9061 36.2173 98.5057 35.969C99.1053 35.7206 99.6177 35.3001 99.9783 34.7605C100.339 34.2209 100.531 33.5865 100.531 32.9375C100.53 32.0676 100.184 31.2336 99.5691 30.6184C98.9539 30.0033 98.1199 29.6573 97.25 29.6562ZM97.25 34.0312C97.0337 34.0312 96.8222 33.9671 96.6424 33.8469C96.4625 33.7267 96.3223 33.5559 96.2395 33.3561C96.1567 33.1562 96.1351 32.9363 96.1773 32.7241C96.2195 32.512 96.3236 32.3171 96.4766 32.1641C96.6296 32.0111 96.8245 31.907 97.0366 31.8648C97.2488 31.8226 97.4687 31.8442 97.6686 31.927C97.8684 32.0098 98.0392 32.15 98.1594 32.3298C98.2796 32.5097 98.3438 32.7212 98.3438 32.9375C98.3434 33.2275 98.2281 33.5055 98.023 33.7105C97.818 33.9156 97.54 34.0309 97.25 34.0312Z" fill="#8573D1"/>
<path d="M56.7813 69.0315H79.75C79.9435 69.0315 80.1336 68.9801 80.3009 68.8826C80.4681 68.7851 80.6064 68.645 80.7018 68.4766C80.7971 68.3082 80.8461 68.1175 80.8437 67.9239C80.8412 67.7304 80.7875 67.5409 80.6879 67.375L74.1254 56.4375C74.0282 56.2755 73.8908 56.1415 73.7264 56.0484C73.562 55.9554 73.3764 55.9064 73.1875 55.9064C72.9986 55.9064 72.813 55.9554 72.6486 56.0484C72.4842 56.1415 72.3468 56.2755 72.2496 56.4375L71 58.5205L67.016 51.8806C66.9188 51.7187 66.7814 51.5846 66.617 51.4916C66.4527 51.3985 66.267 51.3496 66.0781 51.3496C65.8893 51.3496 65.7036 51.3985 65.5392 51.4916C65.3749 51.5846 65.2374 51.7187 65.1402 51.8806L55.8434 67.375C55.7438 67.5409 55.69 67.7304 55.6876 67.9239C55.6851 68.1175 55.7341 68.3082 55.8295 68.4766C55.9248 68.645 56.0632 68.7851 56.2304 68.8826C56.3976 68.9801 56.5877 69.0315 56.7813 69.0315ZM73.1875 59.1262L77.8182 66.844H75.9943L72.2756 60.6461L73.1875 59.1262ZM66.0781 54.5692L73.4432 66.844H58.7131L66.0781 54.5692Z" fill="#8573D1"/>
<path d="M78.1094 54.8125C78.8665 54.8125 79.6066 54.588 80.2362 54.1673C80.8657 53.7467 81.3564 53.1488 81.6461 52.4493C81.9358 51.7498 82.0117 50.9801 81.8639 50.2375C81.7162 49.495 81.3516 48.8129 80.8163 48.2775C80.2809 47.7421 79.5988 47.3775 78.8562 47.2298C78.1136 47.0821 77.3439 47.1579 76.6444 47.4477C75.9449 47.7374 75.347 48.2281 74.9264 48.8576C74.5058 49.4871 74.2813 50.2272 74.2812 50.9844C74.2824 51.9993 74.6861 52.9723 75.4038 53.69C76.1214 54.4077 77.0944 54.8113 78.1094 54.8125ZM78.1094 49.3438C78.4339 49.3438 78.7511 49.44 79.0209 49.6202C79.2907 49.8005 79.5009 50.0568 79.6251 50.3565C79.7493 50.6563 79.7818 50.9862 79.7185 51.3044C79.6552 51.6227 79.4989 51.915 79.2695 52.1445C79.04 52.3739 78.7477 52.5302 78.4294 52.5935C78.1112 52.6568 77.7813 52.6243 77.4815 52.5001C77.1818 52.3759 76.9255 52.1657 76.7452 51.8959C76.565 51.6261 76.4688 51.3089 76.4688 50.9844C76.4692 50.5494 76.6422 50.1324 76.9498 49.8248C77.2574 49.5172 77.6744 49.3442 78.1094 49.3438Z" fill="#8573D1"/>
<path d="M56.7812 73.4062H80.8438C81.1338 73.4062 81.412 73.2909 81.6171 73.0858C81.8223 72.8807 81.9375 72.6026 81.9375 72.3125C81.9375 72.0224 81.8223 71.7442 81.6171 71.5391C81.412 71.334 81.1338 71.2188 80.8438 71.2188H56.7812C56.4912 71.2188 56.213 71.334 56.0079 71.5391C55.8027 71.7442 55.6875 72.0224 55.6875 72.3125C55.6875 72.6026 55.8027 72.8807 56.0079 73.0858C56.213 73.2909 56.4912 73.4062 56.7812 73.4062Z" fill="#8573D1"/>
<path d="M56.7812 76.6875H76.4688C76.7588 76.6875 77.037 76.5723 77.2421 76.3671C77.4473 76.162 77.5625 75.8838 77.5625 75.5938C77.5625 75.3037 77.4473 75.0255 77.2421 74.8204C77.037 74.6152 76.7588 74.5 76.4688 74.5H56.7812C56.4912 74.5 56.213 74.6152 56.0079 74.8204C55.8027 75.0255 55.6875 75.3037 55.6875 75.5938C55.6875 75.8838 55.8027 76.162 56.0079 76.3671C56.213 76.5723 56.4912 76.6875 56.7812 76.6875Z" fill="#8573D1"/>
<path d="M80.8438 74.5H79.75C79.4599 74.5 79.1817 74.6152 78.9766 74.8204C78.7715 75.0255 78.6562 75.3037 78.6562 75.5938C78.6562 75.8838 78.7715 76.162 78.9766 76.3671C79.1817 76.5723 79.4599 76.6875 79.75 76.6875H80.8438C81.1338 76.6875 81.412 76.5723 81.6171 76.3671C81.8223 76.162 81.9375 75.8838 81.9375 75.5938C81.9375 75.3037 81.8223 75.0255 81.6171 74.8204C81.412 74.6152 81.1338 74.5 80.8438 74.5Z" fill="#8573D1"/>
</svg>
