<svg width="417" height="219" viewBox="0 0 417 219" fill="none" xmlns="http://www.w3.org/2000/svg">
<path d="M50.928 100.368H45.552V114H41.712V100.368H36.36V97.2H50.928V100.368ZM57.441 100.896C59.441 100.896 60.977 101.376 62.049 102.336C63.121 103.28 63.657 104.712 63.657 106.632V114H60.153V112.392C59.449 113.592 58.137 114.192 56.217 114.192C55.225 114.192 54.361 114.024 53.625 113.688C52.905 113.352 52.353 112.888 51.969 112.296C51.585 111.704 51.393 111.032 51.393 110.28C51.393 109.08 51.841 108.136 52.737 107.448C53.649 106.76 55.049 106.416 56.937 106.416H59.913C59.913 105.6 59.665 104.976 59.169 104.544C58.673 104.096 57.929 103.872 56.937 103.872C56.249 103.872 55.569 103.984 54.897 104.208C54.241 104.416 53.681 104.704 53.217 105.072L51.873 102.456C52.577 101.96 53.417 101.576 54.393 101.304C55.385 101.032 56.401 100.896 57.441 100.896ZM57.153 111.672C57.793 111.672 58.361 111.528 58.857 111.24C59.353 110.936 59.705 110.496 59.913 109.92V108.6H57.345C55.809 108.6 55.041 109.104 55.041 110.112C55.041 110.592 55.225 110.976 55.593 111.264C55.977 111.536 56.497 111.672 57.153 111.672ZM74.3734 101.976C75.6054 101.976 76.6854 102.232 77.6134 102.744C78.5414 103.24 79.2534 103.944 79.7494 104.856C80.2614 105.768 80.5174 106.824 80.5174 108.024C80.5174 109.256 80.2134 110.352 79.6054 111.312C79.0134 112.256 78.1814 112.992 77.1094 113.52C76.0374 114.032 74.8214 114.288 73.4614 114.288C71.2054 114.288 69.4294 113.568 68.1334 112.128C66.8534 110.672 66.2134 108.544 66.2134 105.744C66.2134 103.152 66.7734 101.088 67.8934 99.552C69.0294 98 70.7654 96.984 73.1014 96.504L79.2454 95.28L79.7494 98.496L74.3254 99.576C72.8534 99.864 71.7574 100.344 71.0374 101.016C70.3334 101.688 69.9174 102.64 69.7894 103.872C70.3494 103.264 71.0214 102.8 71.8054 102.48C72.5894 102.144 73.4454 101.976 74.3734 101.976ZM73.4854 111.384C74.4454 111.384 75.2134 111.072 75.7894 110.448C76.3814 109.824 76.6774 109.032 76.6774 108.072C76.6774 107.096 76.3814 106.32 75.7894 105.744C75.2134 105.168 74.4454 104.88 73.4854 104.88C72.5094 104.88 71.7254 105.168 71.1334 105.744C70.5414 106.32 70.2454 107.096 70.2454 108.072C70.2454 109.048 70.5494 109.848 71.1574 110.472C71.7654 111.08 72.5414 111.384 73.4854 111.384ZM95.2543 101.088V114H91.5103V104.16H87.4303L87.3103 106.44C87.2463 108.136 87.0863 109.544 86.8303 110.664C86.5743 111.784 86.1583 112.664 85.5823 113.304C85.0063 113.944 84.2063 114.264 83.1823 114.264C82.6383 114.264 81.9903 114.168 81.2383 113.976L81.4303 110.904C81.6863 110.936 81.8703 110.952 81.9823 110.952C82.5423 110.952 82.9583 110.752 83.2303 110.352C83.5183 109.936 83.7103 109.416 83.8063 108.792C83.9023 108.152 83.9743 107.312 84.0223 106.272L84.2143 101.088H95.2543ZM98.8547 101.088H102.575V108.768L108.863 101.088H112.295V114H108.575V106.32L102.311 114H98.8547V101.088ZM127.51 101.088V114H123.766V109.2C122.678 109.744 121.478 110.016 120.166 110.016C118.422 110.016 117.102 109.624 116.206 108.84C115.326 108.04 114.886 106.808 114.886 105.144V101.088H118.63V104.904C118.63 105.688 118.83 106.256 119.23 106.608C119.646 106.96 120.238 107.136 121.006 107.136C121.982 107.136 122.902 106.928 123.766 106.512V101.088H127.51ZM136.793 109.104H134.849V114H131.105V101.088H134.849V106.104H136.865L140.369 101.088H144.353L139.841 107.28L144.665 114H140.249L136.793 109.104ZM146.503 101.088H150.223V108.768L156.511 101.088H159.943V114H156.223V106.32L149.959 114H146.503V101.088Z" fill="black"/>
<path d="M38.1875 30.625V61.25H103.812V30.625H38.1875ZM99.4375 56.875H42.5625V35H99.4375V56.875Z" fill="#D1CBEC"/>
<path d="M71 15.3125C72.8122 15.3125 74.2812 13.8434 74.2812 12.0312C74.2812 10.2191 72.8122 8.75 71 8.75C69.1878 8.75 67.7188 10.2191 67.7188 12.0312C67.7188 13.8434 69.1878 15.3125 71 15.3125Z" fill="#D1CBEC"/>
<path d="M103.812 29.5312H97.5986L75.0879 13.5871C75.3405 12.9247 75.4283 12.2108 75.3438 11.5068C75.2593 10.8029 75.005 10.1301 74.6028 9.54629C74.2006 8.96246 73.6625 8.48512 73.0349 8.15537C72.4073 7.82561 71.709 7.65332 71 7.65332C70.291 7.65332 69.5927 7.82561 68.9651 8.15537C68.3375 8.48512 67.7994 8.96246 67.3972 9.54629C66.995 10.1301 66.7407 10.8029 66.6562 11.5068C66.5717 12.2108 66.6595 12.9247 66.9121 13.5871L44.4014 29.5312H38.1875C37.8974 29.5312 37.6192 29.6465 37.4141 29.8516C37.209 30.0567 37.0938 30.3349 37.0938 30.625V61.25C37.0938 61.5401 37.209 61.8183 37.4141 62.0234C37.6192 62.2285 37.8974 62.3437 38.1875 62.3437H103.812C104.103 62.3437 104.381 62.2285 104.586 62.0234C104.791 61.8183 104.906 61.5401 104.906 61.25V30.625C104.906 30.3349 104.791 30.0567 104.586 29.8516C104.381 29.6465 104.103 29.5312 103.812 29.5312ZM71 9.84373C71.4326 9.84373 71.8556 9.97203 72.2153 10.2124C72.575 10.4528 72.8554 10.7944 73.021 11.1941C73.1866 11.5938 73.2299 12.0337 73.1455 12.458C73.0611 12.8823 72.8527 13.2721 72.5468 13.578C72.2409 13.884 71.8511 14.0923 71.4268 14.1767C71.0024 14.2611 70.5626 14.2178 70.1629 14.0522C69.7632 13.8867 69.4215 13.6063 69.1812 13.2465C68.9408 12.8868 68.8125 12.4639 68.8125 12.0312C68.8133 11.4513 69.044 10.8953 69.454 10.4853C69.8641 10.0752 70.4201 9.84449 71 9.84373ZM68.1781 15.3713C68.9665 16.0395 69.9665 16.4062 71 16.4062C72.0335 16.4062 73.0335 16.0395 73.8219 15.3713L93.8143 29.5312H48.1857L68.1781 15.3713ZM102.719 60.1562H39.2812V31.7187H102.719V60.1562Z" fill="#8573D1"/>
<path d="M42.5625 57.9688H99.4375C99.7276 57.9688 100.006 57.8535 100.211 57.6484C100.416 57.4433 100.531 57.1651 100.531 56.875V35C100.531 34.7099 100.416 34.4318 100.211 34.2267C100.006 34.0216 99.7276 33.9062 99.4375 33.9062H42.5625C42.2724 33.9062 41.9942 34.0216 41.7891 34.2267C41.584 34.4318 41.4688 34.7099 41.4688 35V56.875C41.4688 57.1651 41.584 57.4433 41.7891 57.6484C41.9942 57.8535 42.2724 57.9688 42.5625 57.9688ZM43.6562 36.0938H98.3438V55.7812H43.6562V36.0938Z" fill="#8573D1"/>
<path d="M53.5 39.375H46.9375C46.6474 39.375 46.3692 39.4902 46.1641 39.6954C45.959 39.9005 45.8438 40.1787 45.8438 40.4688V51.4062C45.8438 51.6963 45.959 51.9745 46.1641 52.1796C46.3692 52.3848 46.6474 52.5 46.9375 52.5H53.5C53.7901 52.5 54.0683 52.3848 54.2734 52.1796C54.4785 51.9745 54.5938 51.6963 54.5938 51.4062V40.4688C54.5938 40.1787 54.4785 39.9005 54.2734 39.6954C54.0683 39.4902 53.7901 39.375 53.5 39.375ZM52.4062 50.3125H48.0312V41.5625H52.4062V50.3125Z" fill="#8573D1"/>
<path d="M86.3125 41.5625C86.6026 41.5625 86.8808 41.4473 87.0859 41.2421C87.291 41.037 87.4062 40.7588 87.4062 40.4688C87.4062 40.1787 87.291 39.9005 87.0859 39.6954C86.8808 39.4902 86.6026 39.375 86.3125 39.375H79.75C79.4599 39.375 79.1817 39.4902 78.9766 39.6954C78.7715 39.9005 78.6562 40.1787 78.6562 40.4688V51.4062C78.6562 51.6963 78.7715 51.9745 78.9766 52.1796C79.1817 52.3848 79.4599 52.5 79.75 52.5H86.3125C86.6026 52.5 86.8808 52.3848 87.0859 52.1796C87.291 51.9745 87.4062 51.6963 87.4062 51.4062C87.4062 51.1162 87.291 50.838 87.0859 50.6329C86.8808 50.4277 86.6026 50.3125 86.3125 50.3125H80.8438V41.5625H86.3125Z" fill="#8573D1"/>
<path d="M96.1562 41.5625C96.4463 41.5625 96.7245 41.4473 96.9296 41.2421C97.1348 41.037 97.25 40.7588 97.25 40.4688C97.25 40.1787 97.1348 39.9005 96.9296 39.6954C96.7245 39.4902 96.4463 39.375 96.1562 39.375H89.5938C89.3037 39.375 89.0255 39.4902 88.8204 39.6954C88.6152 39.9005 88.5 40.1787 88.5 40.4688V51.4062C88.5 51.6963 88.6152 51.9745 88.8204 52.1796C89.0255 52.3848 89.3037 52.5 89.5938 52.5H96.1562C96.4463 52.5 96.7245 52.3848 96.9296 52.1796C97.1348 51.9745 97.25 51.6963 97.25 51.4062C97.25 51.1162 97.1348 50.838 96.9296 50.6329C96.7245 50.4277 96.4463 50.3125 96.1562 50.3125H90.6875V47.0312H95.0625C95.3526 47.0312 95.6308 46.916 95.8359 46.7109C96.041 46.5058 96.1562 46.2276 96.1562 45.9375C96.1562 45.6474 96.041 45.3692 95.8359 45.1641C95.6308 44.959 95.3526 44.8438 95.0625 44.8438H90.6875V41.5625H96.1562Z" fill="#8573D1"/>
<path d="M63.3438 39.375H56.7812C56.4912 39.375 56.213 39.4902 56.0079 39.6954C55.8027 39.9005 55.6875 40.1787 55.6875 40.4688V51.4062C55.6875 51.6963 55.8027 51.9745 56.0079 52.1796C56.213 52.3848 56.4912 52.5 56.7812 52.5C57.0713 52.5 57.3495 52.3848 57.5546 52.1796C57.7598 51.9745 57.875 51.6963 57.875 51.4062V47.0312H62.25C62.5401 47.0312 62.8183 46.916 63.0234 46.7109C63.2285 46.5058 63.3438 46.2276 63.3438 45.9375C63.3438 45.6474 63.2285 45.3692 63.0234 45.1641C62.8183 44.959 62.5401 44.8438 62.25 44.8438H57.875V41.5625H63.3438C63.6338 41.5625 63.912 41.4473 64.1171 41.2421C64.3223 41.037 64.4375 40.7588 64.4375 40.4688C64.4375 40.1787 64.3223 39.9005 64.1171 39.6954C63.912 39.4902 63.6338 39.375 63.3438 39.375Z" fill="#8573D1"/>
<path d="M73.1875 39.375H66.625C66.3349 39.375 66.0567 39.4902 65.8516 39.6954C65.6465 39.9005 65.5312 40.1787 65.5312 40.4688V51.4062C65.5312 51.6963 65.6465 51.9745 65.8516 52.1796C66.0567 52.3848 66.3349 52.5 66.625 52.5C66.9151 52.5 67.1933 52.3848 67.3984 52.1796C67.6035 51.9745 67.7188 51.6963 67.7188 51.4062V47.0312H72.0938C72.3838 47.0312 72.662 46.916 72.8671 46.7109C73.0723 46.5058 73.1875 46.2276 73.1875 45.9375C73.1875 45.6474 73.0723 45.3692 72.8671 45.1641C72.662 44.959 72.3838 44.8438 72.0938 44.8438H67.7188V41.5625H73.1875C73.4776 41.5625 73.7558 41.4473 73.9609 41.2421C74.166 41.037 74.2812 40.7588 74.2812 40.4688C74.2812 40.1787 74.166 39.9005 73.9609 39.6954C73.7558 39.4902 73.4776 39.375 73.1875 39.375Z" fill="#8573D1"/>
<path d="M76.4688 39.375C76.1787 39.375 75.9005 39.4902 75.6954 39.6954C75.4902 39.9005 75.375 40.1787 75.375 40.4688V51.4062C75.375 51.6963 75.4902 51.9745 75.6954 52.1796C75.9005 52.3848 76.1787 52.5 76.4688 52.5C76.7588 52.5 77.037 52.3848 77.2421 52.1796C77.4473 51.9745 77.5625 51.6963 77.5625 51.4062V40.4688C77.5625 40.1787 77.4473 39.9005 77.2421 39.6954C77.037 39.4902 76.7588 39.375 76.4688 39.375Z" fill="#8573D1"/>
</svg>
