<svg width="366" height="217" viewBox="0 0 366 217" fill="none" xmlns="http://www.w3.org/2000/svg">
<path d="M53.064 97.2V114H49.224V100.368H43.464L43.344 103.872C43.264 106.256 43.072 108.192 42.768 109.68C42.464 111.152 41.952 112.288 41.232 113.088C40.528 113.872 39.536 114.264 38.256 114.264C37.728 114.264 37.088 114.176 36.336 114L36.576 110.712C36.784 110.776 37.016 110.808 37.272 110.808C38.2 110.808 38.848 110.264 39.216 109.176C39.584 108.072 39.816 106.352 39.912 104.016L40.152 97.2H53.064ZM61.9879 100.896C63.9879 100.896 65.5239 101.376 66.5959 102.336C67.6679 103.28 68.2039 104.712 68.2039 106.632V114H64.6999V112.392C63.9959 113.592 62.6839 114.192 60.7639 114.192C59.7719 114.192 58.9079 114.024 58.1719 113.688C57.4519 113.352 56.8999 112.888 56.5159 112.296C56.1319 111.704 55.9399 111.032 55.9399 110.28C55.9399 109.08 56.3879 108.136 57.2839 107.448C58.1959 106.76 59.5959 106.416 61.4839 106.416H64.4599C64.4599 105.6 64.2119 104.976 63.7159 104.544C63.2199 104.096 62.4759 103.872 61.4839 103.872C60.7959 103.872 60.1159 103.984 59.4439 104.208C58.7879 104.416 58.2279 104.704 57.7639 105.072L56.4199 102.456C57.1239 101.96 57.9639 101.576 58.9399 101.304C59.9319 101.032 60.9479 100.896 61.9879 100.896ZM61.6999 111.672C62.3399 111.672 62.9079 111.528 63.4039 111.24C63.8999 110.936 64.2519 110.496 64.4599 109.92V108.6H61.8919C60.3559 108.6 59.5879 109.104 59.5879 110.112C59.5879 110.592 59.7719 110.976 60.1399 111.264C60.5239 111.536 61.0439 111.672 61.6999 111.672ZM79.7151 107.28C80.4831 107.52 81.0751 107.888 81.4911 108.384C81.9231 108.88 82.1391 109.472 82.1391 110.16C82.1391 110.976 81.8591 111.696 81.2991 112.32C80.7391 112.928 79.9711 113.4 78.9951 113.736C78.0191 114.072 76.9151 114.24 75.6831 114.24C74.6751 114.24 73.6831 114.136 72.7071 113.928C71.7311 113.72 70.8271 113.408 69.9951 112.992L71.0031 110.376C72.3631 111.032 73.8671 111.36 75.5151 111.36C76.3951 111.36 77.0831 111.232 77.5791 110.976C78.0911 110.704 78.3471 110.328 78.3471 109.848C78.3471 109.432 78.1711 109.12 77.8191 108.912C77.4671 108.688 76.9551 108.576 76.2831 108.576H73.6431V106.248H75.9471C76.6031 106.248 77.1071 106.144 77.4591 105.936C77.8111 105.728 77.9871 105.424 77.9871 105.024C77.9871 104.608 77.7631 104.288 77.3151 104.064C76.8831 103.84 76.2591 103.728 75.4431 103.728C74.1951 103.728 72.8351 104.024 71.3631 104.616L70.4511 102.024C72.2431 101.24 73.9871 100.848 75.6831 100.848C76.8511 100.848 77.8911 100.992 78.8031 101.28C79.7311 101.568 80.4591 101.992 80.9871 102.552C81.5151 103.096 81.7791 103.736 81.7791 104.472C81.7791 105.08 81.5951 105.632 81.2271 106.128C80.8591 106.608 80.3551 106.992 79.7151 107.28ZM97.4145 107.592C97.4145 107.64 97.3905 107.976 97.3425 108.6H87.5745C87.7505 109.4 88.1665 110.032 88.8225 110.496C89.4785 110.96 90.2945 111.192 91.2705 111.192C91.9425 111.192 92.5345 111.096 93.0465 110.904C93.5745 110.696 94.0625 110.376 94.5105 109.944L96.5025 112.104C95.2865 113.496 93.5105 114.192 91.1745 114.192C89.7185 114.192 88.4305 113.912 87.3105 113.352C86.1905 112.776 85.3265 111.984 84.7185 110.976C84.1105 109.968 83.8065 108.824 83.8065 107.544C83.8065 106.28 84.1025 105.144 84.6945 104.136C85.3025 103.112 86.1265 102.32 87.1665 101.76C88.2225 101.184 89.3985 100.896 90.6945 100.896C91.9585 100.896 93.1025 101.168 94.1265 101.712C95.1505 102.256 95.9505 103.04 96.5265 104.064C97.1185 105.072 97.4145 106.248 97.4145 107.592ZM90.7185 103.728C89.8705 103.728 89.1585 103.968 88.5825 104.448C88.0065 104.928 87.6545 105.584 87.5265 106.416H93.8865C93.7585 105.6 93.4065 104.952 92.8305 104.472C92.2545 103.976 91.5505 103.728 90.7185 103.728ZM107.892 100.896C109.092 100.896 110.18 101.176 111.156 101.736C112.148 102.28 112.924 103.056 113.484 104.064C114.044 105.056 114.324 106.216 114.324 107.544C114.324 108.872 114.044 110.04 113.484 111.048C112.924 112.04 112.148 112.816 111.156 113.376C110.18 113.92 109.092 114.192 107.892 114.192C106.244 114.192 104.948 113.672 104.004 112.632V118.656H100.26V101.088H103.836V102.576C104.764 101.456 106.116 100.896 107.892 100.896ZM107.244 111.12C108.204 111.12 108.988 110.8 109.596 110.16C110.22 109.504 110.532 108.632 110.532 107.544C110.532 106.456 110.22 105.592 109.596 104.952C108.988 104.296 108.204 103.968 107.244 103.968C106.284 103.968 105.492 104.296 104.868 104.952C104.26 105.592 103.956 106.456 103.956 107.544C103.956 108.632 104.26 109.504 104.868 110.16C105.492 110.8 106.284 111.12 107.244 111.12ZM116.948 101.088H120.668V106.128H126.284V101.088H130.028V114H126.284V109.176H120.668V114H116.948V101.088ZM138.629 100.896C140.629 100.896 142.165 101.376 143.237 102.336C144.309 103.28 144.845 104.712 144.845 106.632V114H141.341V112.392C140.637 113.592 139.325 114.192 137.405 114.192C136.413 114.192 135.549 114.024 134.812 113.688C134.093 113.352 133.541 112.888 133.157 112.296C132.773 111.704 132.581 111.032 132.581 110.28C132.581 109.08 133.029 108.136 133.925 107.448C134.837 106.76 136.237 106.416 138.125 106.416H141.101C141.101 105.6 140.853 104.976 140.357 104.544C139.861 104.096 139.117 103.872 138.125 103.872C137.437 103.872 136.757 103.984 136.085 104.208C135.429 104.416 134.869 104.704 134.405 105.072L133.061 102.456C133.765 101.96 134.605 101.576 135.581 101.304C136.573 101.032 137.589 100.896 138.629 100.896ZM138.341 111.672C138.981 111.672 139.549 111.528 140.045 111.24C140.541 110.936 140.893 110.496 141.101 109.92V108.6H138.533C136.997 108.6 136.229 109.104 136.229 110.112C136.229 110.592 136.413 110.976 136.781 111.264C137.165 111.536 137.685 111.672 138.341 111.672ZM159.569 101.088V114H156.233V110.304H153.473L151.025 114H147.041L149.993 109.776C149.097 109.424 148.409 108.92 147.929 108.264C147.465 107.592 147.233 106.784 147.233 105.84C147.233 104.32 147.777 103.152 148.865 102.336C149.969 101.504 151.481 101.088 153.401 101.088H159.569ZM153.473 104.136C152.673 104.136 152.065 104.28 151.649 104.568C151.249 104.856 151.049 105.32 151.049 105.96C151.049 106.6 151.241 107.072 151.625 107.376C152.025 107.664 152.625 107.808 153.425 107.808H156.233V104.136H153.473ZM177.572 100.896C178.772 100.896 179.86 101.176 180.836 101.736C181.828 102.28 182.604 103.056 183.164 104.064C183.724 105.056 184.004 106.216 184.004 107.544C184.004 108.872 183.724 110.04 183.164 111.048C182.604 112.04 181.828 112.816 180.836 113.376C179.86 113.92 178.772 114.192 177.572 114.192C175.924 114.192 174.628 113.672 173.684 112.632V118.656H169.94V101.088H173.516V102.576C174.444 101.456 175.796 100.896 177.572 100.896ZM176.924 111.12C177.884 111.12 178.668 110.8 179.276 110.16C179.9 109.504 180.212 108.632 180.212 107.544C180.212 106.456 179.9 105.592 179.276 104.952C178.668 104.296 177.884 103.968 176.924 103.968C175.964 103.968 175.172 104.296 174.548 104.952C173.94 105.592 173.636 106.456 173.636 107.544C173.636 108.632 173.94 109.504 174.548 110.16C175.172 110.8 175.964 111.12 176.924 111.12ZM199.18 107.592C199.18 107.64 199.156 107.976 199.108 108.6H189.34C189.516 109.4 189.932 110.032 190.588 110.496C191.244 110.96 192.06 111.192 193.036 111.192C193.708 111.192 194.3 111.096 194.812 110.904C195.34 110.696 195.828 110.376 196.276 109.944L198.268 112.104C197.052 113.496 195.276 114.192 192.94 114.192C191.484 114.192 190.196 113.912 189.076 113.352C187.956 112.776 187.092 111.984 186.484 110.976C185.876 109.968 185.572 108.824 185.572 107.544C185.572 106.28 185.868 105.144 186.46 104.136C187.068 103.112 187.892 102.32 188.932 101.76C189.988 101.184 191.164 100.896 192.46 100.896C193.724 100.896 194.868 101.168 195.892 101.712C196.916 102.256 197.716 103.04 198.292 104.064C198.884 105.072 199.18 106.248 199.18 107.592ZM192.484 103.728C191.636 103.728 190.924 103.968 190.348 104.448C189.772 104.928 189.42 105.584 189.292 106.416H195.652C195.524 105.6 195.172 104.952 194.596 104.472C194.02 103.976 193.316 103.728 192.484 103.728ZM210.262 107.28C211.03 107.52 211.622 107.888 212.038 108.384C212.47 108.88 212.686 109.472 212.686 110.16C212.686 110.976 212.406 111.696 211.846 112.32C211.286 112.928 210.518 113.4 209.542 113.736C208.566 114.072 207.462 114.24 206.23 114.24C205.222 114.24 204.23 114.136 203.254 113.928C202.278 113.72 201.374 113.408 200.542 112.992L201.55 110.376C202.91 111.032 204.414 111.36 206.062 111.36C206.942 111.36 207.63 111.232 208.126 110.976C208.638 110.704 208.894 110.328 208.894 109.848C208.894 109.432 208.718 109.12 208.366 108.912C208.014 108.688 207.502 108.576 206.83 108.576H204.19V106.248H206.494C207.15 106.248 207.654 106.144 208.006 105.936C208.358 105.728 208.534 105.424 208.534 105.024C208.534 104.608 208.31 104.288 207.862 104.064C207.43 103.84 206.806 103.728 205.99 103.728C204.742 103.728 203.382 104.024 201.91 104.616L200.998 102.024C202.79 101.24 204.534 100.848 206.23 100.848C207.398 100.848 208.438 100.992 209.35 101.28C210.278 101.568 211.006 101.992 211.534 102.552C212.062 103.096 212.326 103.736 212.326 104.472C212.326 105.08 212.142 105.632 211.774 106.128C211.406 106.608 210.902 106.992 210.262 107.28ZM221.097 109.104H219.153V114H215.409V101.088H219.153V106.104H221.169L224.673 101.088H228.657L224.145 107.28L228.969 114H224.553L221.097 109.104ZM235.589 100.896C237.589 100.896 239.125 101.376 240.197 102.336C241.269 103.28 241.805 104.712 241.805 106.632V114H238.301V112.392C237.597 113.592 236.285 114.192 234.365 114.192C233.373 114.192 232.509 114.024 231.773 113.688C231.053 113.352 230.501 112.888 230.117 112.296C229.733 111.704 229.541 111.032 229.541 110.28C229.541 109.08 229.989 108.136 230.885 107.448C231.797 106.76 233.197 106.416 235.085 106.416H238.061C238.061 105.6 237.813 104.976 237.317 104.544C236.821 104.096 236.077 103.872 235.085 103.872C234.397 103.872 233.717 103.984 233.045 104.208C232.389 104.416 231.829 104.704 231.365 105.072L230.021 102.456C230.725 101.96 231.565 101.576 232.541 101.304C233.533 101.032 234.549 100.896 235.589 100.896ZM235.301 111.672C235.941 111.672 236.509 111.528 237.005 111.24C237.501 110.936 237.853 110.496 238.061 109.92V108.6H235.493C233.957 108.6 233.189 109.104 233.189 110.112C233.189 110.592 233.373 110.976 233.741 111.264C234.125 111.536 234.645 111.672 235.301 111.672Z" fill="black"/>
<g clip-path="url(#clip0_183_173)">
<path fill-rule="evenodd" clip-rule="evenodd" d="M62.4067 13.2788L74.3935 13.4785C74.5933 13.4785 74.8929 13.6782 74.8929 13.9777V17.9714C74.8929 18.2709 74.5933 18.4706 74.3935 18.4706H63.106C62.9062 18.4706 62.7064 18.2709 62.7064 17.9714L62.0072 13.778C61.9073 13.4785 62.207 13.2788 62.4067 13.2788Z" fill="#D1CBEC"/>
<path fill-rule="evenodd" clip-rule="evenodd" d="M64.904 1.49762C64.5044 1.49762 64.2048 1.1981 64.2048 0.798732C64.2048 0.299525 64.5044 0 64.904 0H65.0039C68.8996 0 72.7953 0 74.9928 0.0998415C76.0916 0.199683 76.8907 0.199683 77.3902 0.399366C78.0894 0.698891 78.489 1.09826 78.6887 1.79715C78.7886 2.29636 78.8885 3.09509 78.8885 3.89382C78.9884 4.69255 78.9884 5.49128 78.9884 6.4897C78.9884 7.6878 78.9884 9.08558 78.8885 10.084V11.1823C78.8885 12.4802 78.8885 12.8796 78.489 13.2789C78.2892 13.5784 77.9895 13.7781 77.1904 13.878C76.5911 13.9778 75.6921 13.9778 74.0938 13.9778C72.4956 14.0777 70.298 13.9778 68.1004 13.9778C65.9029 13.9778 63.7053 13.878 62.207 13.7781C60.5088 13.7781 59.6098 13.6783 59.0105 13.2789C58.3113 12.8796 58.1115 12.2805 58.0116 11.1823C57.9117 9.78447 58.0116 7.18859 58.0116 5.2916V4.49287C58.0116 2.49604 58.0116 1.49762 58.8107 0.898574C59.5099 0.299525 60.7086 0.199683 61.8074 0.199683C62.207 0.199683 62.6065 0.499208 62.6065 0.998415C62.6065 1.39778 62.3069 1.69731 61.8074 1.69731C61.0083 1.79715 60.1093 1.79715 59.8096 1.99683C59.6098 2.19651 59.6098 2.99525 59.5099 4.49287V5.2916C59.5099 7.18859 59.5099 9.68463 59.6098 11.0824C59.6098 11.5816 59.7097 11.8811 59.8096 11.981C60.1093 12.1807 60.9084 12.1807 62.207 12.2805C63.8052 12.3803 65.9029 12.3803 68.1004 12.4802C70.298 12.4802 72.4956 12.4802 74.0938 12.4802C75.5922 12.4802 76.4912 12.4802 76.9906 12.3803C77.2903 12.2805 77.3902 12.2805 77.3902 12.2805C77.3902 12.2805 77.3902 11.981 77.3902 11.1823V10.084C77.3902 9.08558 77.3902 7.6878 77.3902 6.4897C77.3902 5.59112 77.3902 4.69255 77.3902 3.99366C77.3902 3.19493 77.2903 2.59588 77.1904 2.19651C77.0905 1.99683 77.0905 1.89699 76.8907 1.89699C76.5911 1.69731 75.8918 1.69731 74.8929 1.59746C72.6954 1.59746 68.8996 1.59746 65.0039 1.49762H64.904Z" fill="#8573D1"/>
<path d="M78.6887 5.1917C78.2892 5.1917 77.9895 4.79234 77.9895 4.39297C77.9895 3.9936 78.2892 3.59424 78.6887 3.59424C85.4812 3.59424 92.2737 3.59424 95.9696 3.69408C97.7676 3.69408 98.7665 3.79392 99.3659 3.89376C100.265 4.09345 100.465 4.49281 100.565 5.09186C100.565 5.39139 100.664 5.79075 100.664 6.28996C100.664 6.68933 100.664 7.18853 100.664 7.5879C100.664 8.08711 100.565 8.48647 100.465 8.88584C100.365 9.38505 100.065 9.78441 99.6655 10.0839C99.3659 10.2836 98.8664 10.4833 97.9674 10.4833C97.2682 10.5831 96.1694 10.5831 94.2715 10.5831C90.7754 10.4833 84.5822 10.3835 78.3891 10.1838H78.1893C77.6898 10.1838 77.3902 9.88425 77.3902 9.48489C77.3902 8.98568 77.7897 8.68616 78.1893 8.68616H78.3891C84.5822 8.786 90.7754 8.98568 94.3714 8.98568C96.0695 8.98568 97.1683 8.98568 97.8675 8.98568C98.4669 8.98568 98.6666 8.88584 98.7665 8.786C98.8664 8.68616 98.9663 8.58631 98.9663 8.48647C99.0662 8.18695 99.0662 7.88742 99.0662 7.5879C99.1661 7.18853 99.1661 6.68933 99.0662 6.28996C99.0662 5.99043 99.0662 5.59107 99.0662 5.39139C99.0662 5.29154 99.0662 5.39139 98.9663 5.39139C98.5668 5.29154 97.6677 5.29154 95.9696 5.1917C92.5734 5.1917 85.681 5.1917 78.6887 5.1917Z" fill="#8573D1"/>
<path d="M58.8107 3.69408C59.2103 3.69408 59.5099 3.9936 59.5099 4.39297C59.5099 4.89218 59.2103 5.1917 58.8107 5.1917H41.7296C39.9316 5.1917 38.9327 5.1917 38.3334 5.1917C38.0337 5.29154 38.0337 5.29154 37.9338 5.29154C37.9338 5.39139 37.8339 5.59107 37.8339 5.79075C37.734 6.09028 37.6341 6.48964 37.6341 6.78917C37.6341 7.08869 37.6341 7.38822 37.734 7.5879C37.734 7.78758 37.734 7.98727 37.8339 8.18695C37.8339 8.28679 37.9338 8.48647 38.0337 8.58631C38.1336 8.68616 38.2335 8.786 38.5331 8.786C38.9327 8.88584 39.532 8.98568 40.3311 8.98568C41.2302 8.98568 42.5287 8.98568 44.3267 8.98568H58.7108C59.2103 8.98568 59.5099 9.38505 59.5099 9.78441C59.5099 10.1838 59.2103 10.5831 58.7108 10.5831H44.3267C42.6286 10.5831 41.33 10.5831 40.3311 10.4833C39.3323 10.4833 38.633 10.3835 38.1336 10.2836C37.5342 10.1838 37.1347 9.88425 36.835 9.58473C36.6352 9.2852 36.4355 8.88584 36.3356 8.58631C36.2357 8.38663 36.2357 8.08711 36.1358 7.78758C36.1358 7.48806 36.1358 7.18853 36.1358 6.78917C36.1358 6.3898 36.2357 5.89059 36.3356 5.49123C36.4355 5.09186 36.5353 4.69249 36.7351 4.39297C37.0348 3.9936 37.3345 3.79392 38.2335 3.69408C38.8328 3.59424 39.9316 3.59424 41.7296 3.59424L58.8107 3.69408Z" fill="#8573D1"/>
<path d="M61.1082 13.5785C61.1082 13.1791 61.4078 12.7797 61.8074 12.7797C62.207 12.6799 62.6065 12.9794 62.6065 13.4786C62.7064 14.0777 62.8063 14.7766 62.8063 15.3756C62.9062 15.9747 63.0061 16.5737 63.106 16.9731C63.2059 17.3725 63.3057 17.5721 63.4056 17.7718C63.6054 17.9715 63.7053 18.0714 63.9051 18.1712C64.1049 18.271 64.4045 18.271 64.8041 18.3709C65.2036 18.3709 65.7031 18.3709 66.5022 18.3709C68.1004 18.3709 70.1981 18.3709 71.5966 18.271H71.8962C72.995 18.271 73.1948 18.271 73.3946 18.1712C73.4945 18.0714 73.5944 17.8717 73.7941 17.672C73.894 17.4723 73.9939 17.1728 74.0938 16.7734C74.2936 16.374 74.3935 15.775 74.4934 15.1759C74.5933 14.4771 74.6931 13.878 74.793 13.1791C74.793 12.7797 75.1926 12.4802 75.5922 12.4802C75.9917 12.5801 76.2914 12.9794 76.2914 13.3788C76.1915 14.0777 76.0916 14.7766 75.9917 15.3756C75.8918 16.0745 75.7919 16.6736 75.5922 17.1728C75.4923 17.672 75.2925 18.0714 75.0927 18.4707C74.8929 18.8701 74.5933 19.1696 74.2936 19.3693C73.7941 19.7687 73.3946 19.7687 71.8962 19.8685H71.5966C70.1981 19.8685 67.9007 19.9683 66.5022 19.9683C65.7031 19.9683 65.1038 19.9683 64.6043 19.8685C64.005 19.7687 63.6054 19.6688 63.2059 19.569C62.8063 19.3693 62.5066 19.0698 62.207 18.6704C62.0072 18.3709 61.8074 17.8717 61.6076 17.3725C61.5077 16.8733 61.4078 16.2742 61.3079 15.5753C61.2081 14.9763 61.2081 14.2774 61.1082 13.5785Z" fill="#8573D1"/>
<path d="M65.3035 19.1695C65.3035 18.7701 65.7031 18.3707 66.1026 18.3707C66.5022 18.3707 66.9018 18.7701 66.9018 19.1695C66.9018 20.1679 66.9018 21.1663 67.0016 21.8652C67.0016 22.0649 67.0016 22.2646 67.1015 22.4642C67.2014 22.5641 67.2014 22.6639 67.3013 22.7638C67.4012 22.8636 67.601 22.9635 67.7009 23.0633C67.9007 23.263 68.0005 23.263 68.2003 23.3628H68.3002C68.4001 23.3628 68.5 23.3628 68.5999 23.3628C68.6998 23.3628 68.7997 23.3628 68.8996 23.3628C68.9994 23.263 69.0993 23.263 69.1992 23.1631C69.399 23.0633 69.5988 22.9635 69.6987 22.7638C69.7986 22.5641 69.9983 22.4642 69.9983 22.2646C70.1981 21.7654 70.1981 21.0665 70.298 20.5673V20.4674C70.298 19.8684 70.298 19.469 70.298 19.0696C70.3979 18.6703 70.6976 18.2709 71.0971 18.3707C71.5966 18.3707 71.8962 18.6703 71.8962 19.1695C71.7963 19.5688 71.7963 20.068 71.7963 20.5673C71.7963 21.2661 71.6965 22.0649 71.4967 22.7638C71.2969 23.1631 71.0971 23.4627 70.8973 23.7622C70.5977 24.0617 70.298 24.2614 70.0982 24.4611C69.7986 24.6608 69.4989 24.7606 69.2991 24.7606C69.0993 24.8604 68.8996 24.8604 68.6998 24.8604C68.5999 24.9603 68.4001 24.9603 68.2003 24.9603C68.1004 24.9603 67.8008 24.8604 67.601 24.7606C67.4012 24.6608 67.1015 24.5609 66.9018 24.3612C66.6021 24.2614 66.4023 24.0617 66.2025 23.862C66.0028 23.6623 65.803 23.3628 65.7031 23.0633C65.6032 22.7638 65.5033 22.4642 65.4034 22.0649C65.3035 21.2661 65.3035 20.2677 65.3035 19.1695Z" fill="#8573D1"/>
<path d="M67.9007 24.1615C67.9007 23.7622 68.2003 23.3628 68.6998 23.3628C69.0993 23.3628 69.399 23.7622 69.399 24.1615L69.2991 56.7099C69.2991 57.1092 68.9995 57.5086 68.5999 57.5086C68.2003 57.5086 67.8008 57.1092 67.8008 56.7099L67.9007 24.1615Z" fill="#8573D1"/>
<path d="M95.2704 62.8002C94.8708 62.8002 94.4713 62.4008 94.4713 62.0015C94.4713 61.6021 94.8708 61.2027 95.2704 61.2027C96.6688 61.2027 98.0673 61.2027 98.8664 61.2027C99.0662 61.1029 99.266 61.1029 99.266 61.1029C99.266 61.1029 99.266 61.0031 99.266 60.9032C99.3659 60.7035 99.3659 60.404 99.3659 60.1045C99.3659 59.7051 99.3659 59.3058 99.266 58.9064C99.266 58.6069 99.266 58.3073 99.1661 58.1077C99.0662 57.908 98.9663 57.8081 98.7665 57.8081C98.4669 57.6084 97.9674 57.6085 97.0684 57.5086C96.1694 57.5086 94.7709 57.5086 92.6733 57.5086H57.4123C51.319 57.5086 44.8262 57.5086 41.4299 57.6084C39.8317 57.7083 38.8328 57.7083 38.3334 57.908C38.0337 57.908 38.0337 58.0078 37.9338 58.1077C37.8339 58.3073 37.8339 58.507 37.734 58.8065C37.734 59.2059 37.734 59.6053 37.734 59.9048C37.734 60.3042 37.8339 60.6037 37.9338 60.9032C37.9338 61.1029 38.0337 61.2027 38.1336 61.3026C38.1336 61.3026 38.1336 61.3026 39.1325 61.4024C40.3311 61.4024 42.7285 61.4024 47.2235 61.4024C51.7186 61.4024 58.3113 61.4024 66.1026 61.3026L91.3747 61.2027C91.8741 61.2027 92.1738 61.5023 92.1738 61.9016C92.1738 62.301 91.8741 62.7004 91.4746 62.7004L66.1026 62.9001C58.3113 62.9001 51.7186 62.9 47.2235 62.9999C42.6286 62.9999 40.3311 62.9999 39.0326 62.9001C37.4343 62.8002 37.2346 62.6005 36.9349 62.301C36.7351 62.0015 36.5353 61.702 36.4355 61.3026C36.3356 60.9032 36.2357 60.5039 36.2357 60.0046C36.2357 59.6053 36.2357 59.1061 36.2357 58.6069C36.3356 58.2075 36.4355 57.8081 36.5353 57.4088C36.835 56.9096 37.1347 56.61 37.9338 56.4104C38.633 56.2107 39.6319 56.1108 41.4299 56.1108C44.9261 56.011 51.319 56.011 57.4123 56.011H92.6733C94.6711 56.011 96.0695 56.011 97.1683 56.011C98.1672 56.011 98.8664 56.1108 99.3659 56.3105C99.9652 56.61 100.365 57.0094 100.565 57.4088C100.764 57.8081 100.764 58.3073 100.864 58.7067C100.864 59.2059 100.864 59.6053 100.864 60.1045C100.864 60.5039 100.864 60.9032 100.764 61.2027C100.664 61.702 100.565 62.0015 100.265 62.301C99.9652 62.5007 99.5656 62.6005 99.0662 62.7004C98.1672 62.8002 96.7687 62.8002 95.2704 62.8002Z" fill="#8573D1"/>
<path d="M75.1926 53.5152C74.793 53.5152 74.3935 53.2156 74.2936 52.8163C74.1937 52.4169 74.4934 52.0175 74.8929 51.9177L80.1871 51.119C80.5866 51.0191 80.9862 51.3186 81.0861 51.718C81.0861 52.1174 80.8863 52.5167 80.3869 52.6166L75.1926 53.5152Z" fill="#8573D1"/>
<path d="M74.793 50.42C74.3935 50.6197 73.894 50.5199 73.6943 50.1205C73.4945 49.7211 73.5944 49.3218 73.9939 49.0222L77.2903 47.2251C77.59 47.0254 78.0894 47.1252 78.2892 47.5246C78.489 47.8241 78.3891 48.3233 77.9895 48.523L74.793 50.42Z" fill="#8573D1"/>
<path d="M73.0949 46.9255C72.7952 47.1252 72.2958 47.1252 71.9961 46.7258C71.7963 46.4263 71.7963 45.9271 72.1959 45.7274L74.4934 43.8304C74.793 43.6307 75.2925 43.6307 75.5921 44.0301C75.7919 44.3296 75.7919 44.8288 75.3924 45.1283L73.0949 46.9255Z" fill="#8573D1"/>
<path d="M65.5033 46.2265C65.803 46.526 65.9029 47.0252 65.6032 47.3248C65.3035 47.6243 64.8041 47.7241 64.5044 47.4246L61.9073 45.4278C61.6076 45.1283 61.5077 44.629 61.8074 44.3295C62.1071 44.03 62.6065 43.9302 62.9062 44.2297L65.5033 46.2265Z" fill="#8573D1"/>
<path d="M63.5055 49.3218C63.8052 49.5215 64.005 49.9209 63.7053 50.3202C63.5055 50.7196 63.0061 50.8194 62.7064 50.6198L58.3113 47.924C58.0116 47.7244 57.8118 47.2252 58.1115 46.8258C58.3113 46.5263 58.7108 46.4264 59.1104 46.6261L63.5055 49.3218Z" fill="#8573D1"/>
<path d="M63.0061 52.217C63.5055 52.3168 63.7053 52.7162 63.7053 53.1156C63.6054 53.5149 63.2058 53.8145 62.8063 53.7146L56.4134 52.816C56.0138 52.7162 55.7141 52.4167 55.814 51.9175C55.814 51.5181 56.2136 51.2186 56.6131 51.3184L63.0061 52.217Z" fill="#8573D1"/>
<path fill-rule="evenodd" clip-rule="evenodd" d="M68.6998 4.49292C70.0982 4.49292 71.2969 5.69102 71.2969 7.0888C71.2969 8.58642 70.0982 9.68468 68.6998 9.68468C67.2014 9.68468 66.1026 8.58642 66.1026 7.0888C66.1026 5.69102 67.2014 4.49292 68.6998 4.49292Z" fill="#D1CBEC"/>
<path d="M68.6998 3.79395C69.5988 3.79395 70.3979 4.19331 71.0971 4.79236C71.6965 5.39141 71.9961 6.19014 71.9961 7.08872C71.9961 8.08713 71.6965 8.88586 71.0971 9.48491C70.3979 10.084 69.5988 10.4833 68.6998 10.4833C67.8008 10.4833 66.9018 10.084 66.3024 9.48491C65.7031 8.88586 65.3035 8.08713 65.3035 7.08872C65.3035 6.19014 65.7031 5.39141 66.3024 4.79236C66.9018 4.09347 67.8008 3.79395 68.6998 3.79395ZM69.9983 5.79078C69.5988 5.49125 69.1992 5.29157 68.6998 5.29157C68.2003 5.29157 67.7009 5.49125 67.4012 5.79078C67.1015 6.19014 66.9018 6.58951 66.9018 7.08872C66.9018 7.58792 67.1015 8.08713 67.4012 8.38665C67.7009 8.78602 68.2003 8.9857 68.6998 8.9857C69.1992 8.9857 69.5988 8.78602 69.9983 8.38665C70.298 8.08713 70.4978 7.58792 70.4978 7.08872C70.4978 6.58951 70.298 6.19014 69.9983 5.79078Z" fill="#8573D1"/>
</g>
<defs>
<clipPath id="clip0_183_173">
<rect width="65" height="63" fill="white" transform="translate(36)"/>
</clipPath>
</defs>
</svg>
