<svg width="330" height="180" viewBox="0 0 330 180" fill="none" xmlns="http://www.w3.org/2000/svg">
<path d="M46.032 125.288C44.32 125.288 42.768 124.92 41.376 124.184C40 123.432 38.912 122.4 38.112 121.088C37.328 119.76 36.936 118.264 36.936 116.6C36.936 114.936 37.328 113.448 38.112 112.136C38.912 110.808 40 109.776 41.376 109.04C42.768 108.288 44.328 107.912 46.056 107.912C47.512 107.912 48.824 108.168 49.992 108.68C51.176 109.192 52.168 109.928 52.968 110.888L50.472 113.192C49.336 111.88 47.928 111.224 46.248 111.224C45.208 111.224 44.28 111.456 43.464 111.92C42.648 112.368 42.008 113 41.544 113.816C41.096 114.632 40.872 115.56 40.872 116.6C40.872 117.64 41.096 118.568 41.544 119.384C42.008 120.2 42.648 120.84 43.464 121.304C44.28 121.752 45.208 121.976 46.248 121.976C47.928 121.976 49.336 121.312 50.472 119.984L52.968 122.288C52.168 123.264 51.176 124.008 49.992 124.52C48.808 125.032 47.488 125.288 46.032 125.288ZM65.0781 118.256C66.5981 118.768 67.3581 119.792 67.3581 121.328C67.3581 122.496 66.9181 123.4 66.0381 124.04C65.1581 124.68 63.8461 125 62.1021 125H55.2141V112.088H61.8141C63.4301 112.088 64.6941 112.384 65.6061 112.976C66.5181 113.552 66.9741 114.368 66.9741 115.424C66.9741 116.064 66.8061 116.632 66.4701 117.128C66.1501 117.608 65.6861 117.984 65.0781 118.256ZM58.6461 117.392H61.4781C62.7901 117.392 63.4461 116.928 63.4461 116C63.4461 115.088 62.7901 114.632 61.4781 114.632H58.6461V117.392ZM61.7901 122.456C63.1661 122.456 63.8541 121.984 63.8541 121.04C63.8541 120.544 63.6941 120.184 63.3741 119.96C63.0541 119.72 62.5501 119.6 61.8621 119.6H58.6461V122.456H61.7901ZM82.6958 118.592C82.6958 118.64 82.6718 118.976 82.6238 119.6H72.8558C73.0318 120.4 73.4478 121.032 74.1038 121.496C74.7598 121.96 75.5758 122.192 76.5518 122.192C77.2238 122.192 77.8158 122.096 78.3278 121.904C78.8558 121.696 79.3438 121.376 79.7918 120.944L81.7838 123.104C80.5678 124.496 78.7918 125.192 76.4558 125.192C74.9998 125.192 73.7118 124.912 72.5918 124.352C71.4718 123.776 70.6078 122.984 69.9998 121.976C69.3918 120.968 69.0878 119.824 69.0878 118.544C69.0878 117.28 69.3838 116.144 69.9758 115.136C70.5838 114.112 71.4078 113.32 72.4478 112.76C73.5038 112.184 74.6798 111.896 75.9758 111.896C77.2398 111.896 78.3838 112.168 79.4078 112.712C80.4318 113.256 81.2318 114.04 81.8078 115.064C82.3998 116.072 82.6958 117.248 82.6958 118.592ZM75.9998 114.728C75.1518 114.728 74.4398 114.968 73.8638 115.448C73.2878 115.928 72.9358 116.584 72.8078 117.416H79.1678C79.0398 116.6 78.6878 115.952 78.1118 115.472C77.5358 114.976 76.8318 114.728 75.9998 114.728ZM95.9683 115.16H91.6003V125H87.8803V115.16H83.5123V112.088H95.9683V115.16ZM103.473 125.192C102.113 125.192 100.889 124.912 99.801 124.352C98.729 123.776 97.889 122.984 97.281 121.976C96.673 120.968 96.369 119.824 96.369 118.544C96.369 117.264 96.673 116.12 97.281 115.112C97.889 114.104 98.729 113.32 99.801 112.76C100.889 112.184 102.113 111.896 103.473 111.896C104.833 111.896 106.049 112.184 107.121 112.76C108.193 113.32 109.033 114.104 109.641 115.112C110.249 116.12 110.553 117.264 110.553 118.544C110.553 119.824 110.249 120.968 109.641 121.976C109.033 122.984 108.193 123.776 107.121 124.352C106.049 124.912 104.833 125.192 103.473 125.192ZM103.473 122.12C104.433 122.12 105.217 121.8 105.825 121.16C106.449 120.504 106.761 119.632 106.761 118.544C106.761 117.456 106.449 116.592 105.825 115.952C105.217 115.296 104.433 114.968 103.473 114.968C102.513 114.968 101.721 115.296 101.097 115.952C100.473 116.592 100.161 117.456 100.161 118.544C100.161 119.632 100.473 120.504 101.097 121.16C101.721 121.8 102.513 122.12 103.473 122.12ZM122.992 118.256C124.512 118.768 125.272 119.792 125.272 121.328C125.272 122.496 124.832 123.4 123.952 124.04C123.072 124.68 121.76 125 120.016 125H113.128V112.088H119.728C121.344 112.088 122.608 112.384 123.52 112.976C124.432 113.552 124.888 114.368 124.888 115.424C124.888 116.064 124.72 116.632 124.384 117.128C124.064 117.608 123.6 117.984 122.992 118.256ZM116.56 117.392H119.392C120.704 117.392 121.36 116.928 121.36 116C121.36 115.088 120.704 114.632 119.392 114.632H116.56V117.392ZM119.704 122.456C121.08 122.456 121.768 121.984 121.768 121.04C121.768 120.544 121.608 120.184 121.288 119.96C120.968 119.72 120.464 119.6 119.776 119.6H116.56V122.456H119.704ZM134.85 116.216C136.53 116.232 137.802 116.608 138.666 117.344C139.53 118.08 139.962 119.136 139.962 120.512C139.962 121.952 139.474 123.064 138.498 123.848C137.522 124.632 136.138 125.024 134.346 125.024L128.058 125V112.088H131.778V116.216H134.85ZM141.354 112.088H145.074V125H141.354V112.088ZM134.01 122.36C134.73 122.376 135.282 122.224 135.666 121.904C136.05 121.584 136.242 121.104 136.242 120.464C136.242 119.84 136.05 119.384 135.666 119.096C135.298 118.808 134.746 118.656 134.01 118.64L131.778 118.616V122.36H134.01ZM161.235 118.592C161.235 118.64 161.211 118.976 161.163 119.6H151.395C151.571 120.4 151.987 121.032 152.643 121.496C153.299 121.96 154.115 122.192 155.091 122.192C155.763 122.192 156.355 122.096 156.867 121.904C157.395 121.696 157.883 121.376 158.331 120.944L160.323 123.104C159.107 124.496 157.331 125.192 154.995 125.192C153.539 125.192 152.251 124.912 151.131 124.352C150.011 123.776 149.147 122.984 148.539 121.976C147.931 120.968 147.627 119.824 147.627 118.544C147.627 117.28 147.923 116.144 148.515 115.136C149.123 114.112 149.947 113.32 150.987 112.76C152.043 112.184 153.219 111.896 154.515 111.896C155.779 111.896 156.923 112.168 157.947 112.712C158.971 113.256 159.771 114.04 160.347 115.064C160.939 116.072 161.235 117.248 161.235 118.592ZM154.539 114.728C153.691 114.728 152.979 114.968 152.403 115.448C151.827 115.928 151.475 116.584 151.347 117.416H157.707C157.579 116.6 157.227 115.952 156.651 115.472C156.075 114.976 155.371 114.728 154.539 114.728ZM176.59 120.104H174.646V125H170.902V112.088H174.646V117.104H176.662L180.166 112.088H184.15L179.638 118.28L184.462 125H180.046L176.59 120.104ZM191.95 125.192C190.59 125.192 189.366 124.912 188.278 124.352C187.206 123.776 186.366 122.984 185.758 121.976C185.15 120.968 184.846 119.824 184.846 118.544C184.846 117.264 185.15 116.12 185.758 115.112C186.366 114.104 187.206 113.32 188.278 112.76C189.366 112.184 190.59 111.896 191.95 111.896C193.31 111.896 194.526 112.184 195.598 112.76C196.67 113.32 197.51 114.104 198.118 115.112C198.726 116.12 199.03 117.264 199.03 118.544C199.03 119.824 198.726 120.968 198.118 121.976C197.51 122.984 196.67 123.776 195.598 124.352C194.526 124.912 193.31 125.192 191.95 125.192ZM191.95 122.12C192.91 122.12 193.694 121.8 194.302 121.16C194.926 120.504 195.238 119.632 195.238 118.544C195.238 117.456 194.926 116.592 194.302 115.952C193.694 115.296 192.91 114.968 191.95 114.968C190.99 114.968 190.198 115.296 189.574 115.952C188.95 116.592 188.638 117.456 188.638 118.544C188.638 119.632 188.95 120.504 189.574 121.16C190.198 121.8 190.99 122.12 191.95 122.12ZM209.213 111.896C210.413 111.896 211.501 112.176 212.477 112.736C213.469 113.28 214.245 114.056 214.805 115.064C215.365 116.056 215.645 117.216 215.645 118.544C215.645 119.872 215.365 121.04 214.805 122.048C214.245 123.04 213.469 123.816 212.477 124.376C211.501 124.92 210.413 125.192 209.213 125.192C207.565 125.192 206.269 124.672 205.325 123.632V129.656H201.581V112.088H205.157V113.576C206.085 112.456 207.437 111.896 209.213 111.896ZM208.565 122.12C209.525 122.12 210.309 121.8 210.917 121.16C211.541 120.504 211.853 119.632 211.853 118.544C211.853 117.456 211.541 116.592 210.917 115.952C210.309 115.296 209.525 114.968 208.565 114.968C207.605 114.968 206.813 115.296 206.189 115.952C205.581 116.592 205.277 117.456 205.277 118.544C205.277 119.632 205.581 120.504 206.189 121.16C206.813 121.8 207.605 122.12 208.565 122.12ZM224.317 125.192C222.957 125.192 221.733 124.912 220.645 124.352C219.573 123.776 218.733 122.984 218.125 121.976C217.517 120.968 217.213 119.824 217.213 118.544C217.213 117.264 217.517 116.12 218.125 115.112C218.733 114.104 219.573 113.32 220.645 112.76C221.733 112.184 222.957 111.896 224.317 111.896C225.677 111.896 226.893 112.184 227.965 112.76C229.037 113.32 229.877 114.104 230.485 115.112C231.093 116.12 231.397 117.264 231.397 118.544C231.397 119.824 231.093 120.968 230.485 121.976C229.877 122.984 229.037 123.776 227.965 124.352C226.893 124.912 225.677 125.192 224.317 125.192ZM224.317 122.12C225.277 122.12 226.061 121.8 226.669 121.16C227.293 120.504 227.605 119.632 227.605 118.544C227.605 117.456 227.293 116.592 226.669 115.952C226.061 115.296 225.277 114.968 224.317 114.968C223.357 114.968 222.565 115.296 221.941 115.952C221.317 116.592 221.005 117.456 221.005 118.544C221.005 119.632 221.317 120.504 221.941 121.16C222.565 121.8 223.357 122.12 224.317 122.12ZM241.436 112.976C242.668 112.976 243.748 113.232 244.676 113.744C245.604 114.24 246.316 114.944 246.812 115.856C247.324 116.768 247.58 117.824 247.58 119.024C247.58 120.256 247.276 121.352 246.668 122.312C246.076 123.256 245.244 123.992 244.172 124.52C243.1 125.032 241.884 125.288 240.524 125.288C238.268 125.288 236.492 124.568 235.196 123.128C233.916 121.672 233.276 119.544 233.276 116.744C233.276 114.152 233.836 112.088 234.956 110.552C236.092 109 237.828 107.984 240.164 107.504L246.308 106.28L246.812 109.496L241.388 110.576C239.916 110.864 238.82 111.344 238.1 112.016C237.396 112.688 236.98 113.64 236.852 114.872C237.412 114.264 238.084 113.8 238.868 113.48C239.652 113.144 240.508 112.976 241.436 112.976ZM240.548 122.384C241.508 122.384 242.276 122.072 242.852 121.448C243.444 120.824 243.74 120.032 243.74 119.072C243.74 118.096 243.444 117.32 242.852 116.744C242.276 116.168 241.508 115.88 240.548 115.88C239.572 115.88 238.788 116.168 238.196 116.744C237.604 117.32 237.308 118.096 237.308 119.072C237.308 120.048 237.612 120.848 238.22 121.472C238.828 122.08 239.604 122.384 240.548 122.384ZM254.925 111.896C256.925 111.896 258.461 112.376 259.533 113.336C260.605 114.28 261.141 115.712 261.141 117.632V125H257.637V123.392C256.933 124.592 255.621 125.192 253.701 125.192C252.709 125.192 251.845 125.024 251.109 124.688C250.389 124.352 249.837 123.888 249.453 123.296C249.069 122.704 248.877 122.032 248.877 121.28C248.877 120.08 249.325 119.136 250.221 118.448C251.133 117.76 252.533 117.416 254.421 117.416H257.397C257.397 116.6 257.149 115.976 256.653 115.544C256.157 115.096 255.413 114.872 254.421 114.872C253.733 114.872 253.053 114.984 252.381 115.208C251.725 115.416 251.165 115.704 250.701 116.072L249.357 113.456C250.061 112.96 250.901 112.576 251.877 112.304C252.869 112.032 253.885 111.896 254.925 111.896ZM254.637 122.672C255.277 122.672 255.845 122.528 256.341 122.24C256.837 121.936 257.189 121.496 257.397 120.92V119.6H254.829C253.293 119.6 252.525 120.104 252.525 121.112C252.525 121.592 252.709 121.976 253.077 122.264C253.461 122.536 253.981 122.672 254.637 122.672Z" fill="black"/>
<path d="M78.6563 30.8438C73.6808 30.8438 68.8171 32.3191 64.6802 35.0833C60.5433 37.8475 57.3189 41.7764 55.4149 46.3731C53.5109 50.9698 53.0127 56.0279 53.9834 60.9077C54.954 65.7876 57.3499 70.27 60.8681 73.7882C64.3863 77.3063 68.8687 79.7022 73.7485 80.6729C78.6284 81.6435 83.6864 81.1454 88.2831 79.2413C92.8798 77.3373 96.8087 74.113 99.5729 69.9761C102.337 65.8391 103.813 60.9754 103.813 56C103.813 49.3281 101.162 42.9296 96.4444 38.2118C91.7267 33.4941 85.3281 30.8438 78.6563 30.8438ZM86.3125 60.375C86.3125 61.5353 85.8516 62.6481 85.0311 63.4686C84.2106 64.2891 83.0978 64.75 81.9375 64.75H75.375C74.2147 64.75 73.1019 64.2891 72.2814 63.4686C71.4609 62.6481 71 61.5353 71 60.375V51.625H86.3125V60.375Z" fill="#D1CBEC"/>
<path d="M78.6562 29.75C75.2182 29.7477 71.8134 30.423 68.6366 31.7374C65.4597 33.0519 62.5731 34.9796 60.1418 37.4104C60.1145 37.409 60.0885 37.4062 60.0625 37.4062H43.6562V23.1875C43.6562 22.8974 43.541 22.6192 43.3359 22.4141C43.1308 22.209 42.8526 22.0938 42.5625 22.0938H38.1875C37.8974 22.0938 37.6192 22.209 37.4141 22.4141C37.209 22.6192 37.0938 22.8974 37.0938 23.1875V88.8125C37.0938 89.1026 37.209 89.3808 37.4141 89.5859C37.6192 89.791 37.8974 89.9062 38.1875 89.9062H42.5625C42.8526 89.9062 43.1308 89.791 43.3359 89.5859C43.541 89.3808 43.6562 89.1026 43.6562 88.8125V74.5938H60.0625C60.0885 74.5938 60.1145 74.591 60.1418 74.5896C62.5731 77.0204 65.4597 78.9481 68.6366 80.2626C71.8134 81.577 75.2182 82.2523 78.6562 82.25C93.1307 82.25 104.906 70.4744 104.906 56C104.906 41.5256 93.1307 29.75 78.6562 29.75ZM41.4688 87.7188H39.2812V24.2812H41.4688V87.7188ZM43.6562 72.4062V39.5938H58.1813C54.4437 44.245 52.4063 50.0331 52.4063 56C52.4063 61.9669 54.4437 67.755 58.1813 72.4062H43.6562ZM78.6562 80.0625C65.3877 80.0625 54.5938 69.2686 54.5938 56C54.5938 42.7314 65.3877 31.9375 78.6562 31.9375C91.9248 31.9375 102.719 42.7314 102.719 56C102.719 69.2686 91.9248 80.0625 78.6562 80.0625Z" fill="#8573D1"/>
<path d="M89.0469 52.7188H87.4062V51.625C87.4062 51.3349 87.291 51.0568 87.0859 50.8517C86.8808 50.6466 86.6026 50.5312 86.3125 50.5312H71C70.7099 50.5312 70.4317 50.6466 70.2266 50.8517C70.0215 51.0568 69.9062 51.3349 69.9062 51.625V60.375C69.9077 61.825 70.4843 63.2151 71.5096 64.2404C72.5349 65.2657 73.925 65.8423 75.375 65.8438H81.9375C83.3875 65.8423 84.7776 65.2657 85.8029 64.2404C86.8282 63.2151 87.4048 61.825 87.4062 60.375H89.0469C89.7719 60.3743 90.4669 60.086 90.9796 59.5733C91.4922 59.0607 91.7805 58.3656 91.7812 57.6406V55.4531C91.7805 54.7281 91.4922 54.0332 90.9796 53.5205C90.4669 53.0079 89.7719 52.7195 89.0469 52.7188ZM85.2188 60.375C85.2176 61.2449 84.8715 62.0789 84.2564 62.694C83.6413 63.3091 82.8074 63.6552 81.9375 63.6562H75.375C74.5051 63.6552 73.6712 63.3091 73.0561 62.694C72.441 62.0789 72.0949 61.2449 72.0938 60.375V52.7188H85.2188V60.375ZM89.5938 57.6406C89.5938 57.7857 89.5361 57.9249 89.4336 58.0274C89.331 58.13 89.1919 58.1875 89.0469 58.1875H87.4062V54.9062H89.0469C89.1919 54.9062 89.331 54.9639 89.4336 55.0664C89.5361 55.169 89.5938 55.3081 89.5938 55.4531V57.6406Z" fill="#8573D1"/>
<path d="M77.0156 48.3438C77.0156 48.6338 77.1309 48.912 77.336 49.1171C77.5411 49.3223 77.8193 49.4375 78.1094 49.4375C78.3995 49.4375 78.6777 49.3223 78.8828 49.1171C79.0879 48.912 79.2031 48.6338 79.2031 48.3438C79.2031 47.9793 79.2988 47.8516 79.5312 47.5419C79.8361 47.1354 80.2969 46.521 80.2969 45.4273C80.2969 44.3335 79.8361 43.7192 79.5312 43.3128C79.2988 43.0032 79.2031 42.8753 79.2031 42.5105C79.2031 42.1457 79.2988 42.0183 79.5312 41.7084C79.8361 41.3019 80.2969 40.6875 80.2969 39.5938C80.2969 39.3037 80.1816 39.0255 79.9765 38.8204C79.7714 38.6152 79.4932 38.5 79.2031 38.5C78.913 38.5 78.6348 38.6152 78.4297 38.8204C78.2246 39.0255 78.1094 39.3037 78.1094 39.5938C78.1094 39.9584 78.0137 40.0859 77.7813 40.3959C77.4764 40.8025 77.0156 41.4168 77.0156 42.5105C77.0156 43.6043 77.4764 44.2187 77.7813 44.6251C78.0137 44.9347 78.1094 45.0626 78.1094 45.4273C78.1094 45.7919 78.0137 45.9195 77.7813 46.2293C77.4764 46.6357 77.0156 47.25 77.0156 48.3438Z" fill="#8573D1"/>
<path d="M72.0938 48.3438C72.0938 48.6338 72.209 48.912 72.4141 49.1171C72.6192 49.3223 72.8974 49.4375 73.1875 49.4375C73.4776 49.4375 73.7558 49.3223 73.9609 49.1171C74.166 48.912 74.2812 48.6338 74.2812 48.3438C74.2812 47.9793 74.377 47.8516 74.6094 47.5419C74.9143 47.1354 75.375 46.521 75.375 45.4273C75.375 44.3335 74.9143 43.7192 74.6094 43.3128C74.377 43.0032 74.2812 42.8753 74.2812 42.5105C74.2812 42.1457 74.377 42.0183 74.6094 41.7084C74.9143 41.3019 75.375 40.6875 75.375 39.5938C75.375 39.3037 75.2598 39.0255 75.0546 38.8204C74.8495 38.6152 74.5713 38.5 74.2812 38.5C73.9912 38.5 73.713 38.6152 73.5079 38.8204C73.3027 39.0255 73.1875 39.3037 73.1875 39.5938C73.1875 39.9584 73.0918 40.0859 72.8594 40.3959C72.5545 40.8025 72.0938 41.4168 72.0938 42.5105C72.0938 43.6043 72.5545 44.2187 72.8594 44.6251C73.0918 44.9347 73.1875 45.0626 73.1875 45.4273C73.1875 45.7919 73.0918 45.9195 72.8594 46.2293C72.5545 46.6357 72.0938 47.25 72.0938 48.3438Z" fill="#8573D1"/>
<path d="M81.9375 48.3438C81.9375 48.6338 82.0527 48.912 82.2579 49.1171C82.463 49.3223 82.7412 49.4375 83.0312 49.4375C83.3213 49.4375 83.5995 49.3223 83.8046 49.1171C84.0098 48.912 84.125 48.6338 84.125 48.3438C84.125 47.9793 84.2207 47.8516 84.4531 47.5419C84.758 47.1354 85.2188 46.521 85.2188 45.4273C85.2188 44.3335 84.758 43.7192 84.4531 43.3128C84.2207 43.0032 84.125 42.8753 84.125 42.5105C84.125 42.1457 84.2207 42.0183 84.4531 41.7084C84.758 41.3019 85.2188 40.6875 85.2188 39.5938C85.2188 39.3037 85.1035 39.0255 84.8984 38.8204C84.6933 38.6152 84.4151 38.5 84.125 38.5C83.8349 38.5 83.5567 38.6152 83.3516 38.8204C83.1465 39.0255 83.0312 39.3037 83.0312 39.5938C83.0312 39.9584 82.9355 40.0859 82.7031 40.3959C82.3982 40.8025 81.9375 41.4168 81.9375 42.5105C81.9375 43.6043 82.3982 44.2187 82.7031 44.6251C82.9355 44.9347 83.0312 45.0626 83.0312 45.4273C83.0312 45.7919 82.9355 45.9195 82.7031 46.2293C82.3982 46.6357 81.9375 47.25 81.9375 48.3438Z" fill="#8573D1"/>
<path d="M89.5938 66.9375H67.7188C67.4287 66.9375 67.1505 67.0527 66.9454 67.2579C66.7402 67.463 66.625 67.7412 66.625 68.0312C66.625 68.3213 66.7402 68.5995 66.9454 68.8046C67.1505 69.0098 67.4287 69.125 67.7188 69.125H89.5938C89.8838 69.125 90.162 69.0098 90.3671 68.8046C90.5723 68.5995 90.6875 68.3213 90.6875 68.0312C90.6875 67.7412 90.5723 67.463 90.3671 67.2579C90.162 67.0527 89.8838 66.9375 89.5938 66.9375Z" fill="#8573D1"/>
</svg>
