<svg width="354" height="233" viewBox="0 0 354 233" fill="none" xmlns="http://www.w3.org/2000/svg">
<path d="M46.032 114.288C44.32 114.288 42.768 113.92 41.376 113.184C40 112.432 38.912 111.4 38.112 110.088C37.328 108.76 36.936 107.264 36.936 105.6C36.936 103.936 37.328 102.448 38.112 101.136C38.912 99.808 40 98.776 41.376 98.04C42.768 97.288 44.328 96.912 46.056 96.912C47.512 96.912 48.824 97.168 49.992 97.68C51.176 98.192 52.168 98.928 52.968 99.888L50.472 102.192C49.336 100.88 47.928 100.224 46.248 100.224C45.208 100.224 44.28 100.456 43.464 100.92C42.648 101.368 42.008 102 41.544 102.816C41.096 103.632 40.872 104.56 40.872 105.6C40.872 106.64 41.096 107.568 41.544 108.384C42.008 109.2 42.648 109.84 43.464 110.304C44.28 110.752 45.208 110.976 46.248 110.976C47.928 110.976 49.336 110.312 50.472 108.984L52.968 111.288C52.168 112.264 51.176 113.008 49.992 113.52C48.808 114.032 47.488 114.288 46.032 114.288ZM68.1501 101.088L62.3181 114.792C61.7261 116.28 60.9901 117.328 60.1101 117.936C59.2461 118.544 58.1981 118.848 56.9661 118.848C56.2941 118.848 55.6301 118.744 54.9741 118.536C54.3181 118.328 53.7821 118.04 53.3661 117.672L54.7341 115.008C55.0221 115.264 55.3501 115.464 55.7181 115.608C56.1021 115.752 56.4781 115.824 56.8461 115.824C57.3581 115.824 57.7741 115.696 58.0941 115.44C58.4141 115.2 58.7021 114.792 58.9581 114.216L59.0061 114.096L53.4141 101.088H57.2781L60.9021 109.848L64.5501 101.088H68.1501ZM79.8203 107.256C81.3403 107.768 82.1003 108.792 82.1003 110.328C82.1003 111.496 81.6603 112.4 80.7803 113.04C79.9003 113.68 78.5883 114 76.8443 114H69.9563V101.088H76.5563C78.1723 101.088 79.4363 101.384 80.3483 101.976C81.2603 102.552 81.7162 103.368 81.7162 104.424C81.7162 105.064 81.5483 105.632 81.2123 106.128C80.8923 106.608 80.4283 106.984 79.8203 107.256ZM73.3883 106.392H76.2203C77.5323 106.392 78.1883 105.928 78.1883 105C78.1883 104.088 77.5323 103.632 76.2203 103.632H73.3883V106.392ZM76.5323 111.456C77.9083 111.456 78.5963 110.984 78.5963 110.04C78.5963 109.544 78.4363 109.184 78.1163 108.96C77.7963 108.72 77.2923 108.6 76.6043 108.6H73.3883V111.456H76.5323ZM97.4379 107.592C97.4379 107.64 97.4139 107.976 97.3659 108.6H87.5979C87.7739 109.4 88.1899 110.032 88.8459 110.496C89.5019 110.96 90.3179 111.192 91.2939 111.192C91.9659 111.192 92.5579 111.096 93.0699 110.904C93.5979 110.696 94.0859 110.376 94.5339 109.944L96.5259 112.104C95.3099 113.496 93.5339 114.192 91.1979 114.192C89.7419 114.192 88.4539 113.912 87.3339 113.352C86.2139 112.776 85.3499 111.984 84.7419 110.976C84.1339 109.968 83.8299 108.824 83.8299 107.544C83.8299 106.28 84.1259 105.144 84.7179 104.136C85.3259 103.112 86.1499 102.32 87.1899 101.76C88.2459 101.184 89.4219 100.896 90.7179 100.896C91.9819 100.896 93.1259 101.168 94.1499 101.712C95.1739 102.256 95.9739 103.04 96.5499 104.064C97.1419 105.072 97.4379 106.248 97.4379 107.592ZM90.7419 103.728C89.8939 103.728 89.1819 103.968 88.6059 104.448C88.0299 104.928 87.6779 105.584 87.5499 106.416H93.9099C93.7819 105.6 93.4299 104.952 92.8539 104.472C92.2779 103.976 91.5739 103.728 90.7419 103.728ZM100.308 101.088H104.028V106.128H109.644V101.088H113.388V114H109.644V109.176H104.028V114H100.308V101.088ZM116.972 101.088H120.692V108.768L126.98 101.088H130.412V114H126.692V106.32L120.428 114H116.972V101.088ZM141.619 100.896C142.819 100.896 143.907 101.176 144.883 101.736C145.875 102.28 146.651 103.056 147.211 104.064C147.771 105.056 148.051 106.216 148.051 107.544C148.051 108.872 147.771 110.04 147.211 111.048C146.651 112.04 145.875 112.816 144.883 113.376C143.907 113.92 142.819 114.192 141.619 114.192C139.971 114.192 138.675 113.672 137.731 112.632V118.656H133.987V101.088H137.563V102.576C138.491 101.456 139.843 100.896 141.619 100.896ZM140.971 111.12C141.931 111.12 142.715 110.8 143.323 110.16C143.947 109.504 144.259 108.632 144.259 107.544C144.259 106.456 143.947 105.592 143.323 104.952C142.715 104.296 141.931 103.968 140.971 103.968C140.011 103.968 139.219 104.296 138.595 104.952C137.987 105.592 137.683 106.456 137.683 107.544C137.683 108.632 137.987 109.504 138.595 110.16C139.219 110.8 140.011 111.12 140.971 111.12ZM150.675 101.088H154.395V106.128H160.011V101.088H163.755V114H160.011V109.176H154.395V114H150.675V101.088ZM172.355 100.896C174.355 100.896 175.891 101.376 176.963 102.336C178.035 103.28 178.571 104.712 178.571 106.632V114H175.067V112.392C174.363 113.592 173.051 114.192 171.131 114.192C170.139 114.192 169.275 114.024 168.539 113.688C167.819 113.352 167.267 112.888 166.883 112.296C166.499 111.704 166.307 111.032 166.307 110.28C166.307 109.08 166.755 108.136 167.651 107.448C168.563 106.76 169.963 106.416 171.851 106.416H174.827C174.827 105.6 174.579 104.976 174.083 104.544C173.587 104.096 172.843 103.872 171.851 103.872C171.163 103.872 170.483 103.984 169.811 104.208C169.155 104.416 168.595 104.704 168.131 105.072L166.787 102.456C167.491 101.96 168.331 101.576 169.307 101.304C170.299 101.032 171.315 100.896 172.355 100.896ZM172.067 111.672C172.707 111.672 173.275 111.528 173.771 111.24C174.267 110.936 174.619 110.496 174.827 109.92V108.6H172.259C170.723 108.6 169.955 109.104 169.955 110.112C169.955 110.592 170.139 110.976 170.507 111.264C170.891 111.536 171.411 111.672 172.067 111.672ZM193.295 101.088V114H189.959V110.304H187.199L184.751 114H180.767L183.719 109.776C182.823 109.424 182.135 108.92 181.655 108.264C181.191 107.592 180.959 106.784 180.959 105.84C180.959 104.32 181.503 103.152 182.591 102.336C183.695 101.504 185.207 101.088 187.127 101.088H193.295ZM187.199 104.136C186.399 104.136 185.791 104.28 185.375 104.568C184.975 104.856 184.775 105.32 184.775 105.96C184.775 106.6 184.967 107.072 185.351 107.376C185.751 107.664 186.351 107.808 187.151 107.808H189.959V104.136H187.199ZM57.4369 130.088V143H53.6929V133.16H48.3169V143H44.5969V130.088H57.4369ZM68.6346 129.896C69.8346 129.896 70.9226 130.176 71.8986 130.736C72.8906 131.28 73.6666 132.056 74.2266 133.064C74.7866 134.056 75.0666 135.216 75.0666 136.544C75.0666 137.872 74.7866 139.04 74.2266 140.048C73.6666 141.04 72.8906 141.816 71.8986 142.376C70.9226 142.92 69.8346 143.192 68.6346 143.192C66.9866 143.192 65.6906 142.672 64.7466 141.632V147.656H61.0026V130.088H64.5786V131.576C65.5066 130.456 66.8586 129.896 68.6346 129.896ZM67.9866 140.12C68.9466 140.12 69.7306 139.8 70.3386 139.16C70.9626 138.504 71.2746 137.632 71.2746 136.544C71.2746 135.456 70.9626 134.592 70.3386 133.952C69.7306 133.296 68.9466 132.968 67.9866 132.968C67.0266 132.968 66.2346 133.296 65.6106 133.952C65.0026 134.592 64.6986 135.456 64.6986 136.544C64.6986 137.632 65.0026 138.504 65.6106 139.16C66.2346 139.8 67.0266 140.12 67.9866 140.12ZM83.7386 143.192C82.3786 143.192 81.1546 142.912 80.0666 142.352C78.9946 141.776 78.1546 140.984 77.5466 139.976C76.9386 138.968 76.6346 137.824 76.6346 136.544C76.6346 135.264 76.9386 134.12 77.5466 133.112C78.1546 132.104 78.9946 131.32 80.0666 130.76C81.1546 130.184 82.3786 129.896 83.7386 129.896C85.0986 129.896 86.3146 130.184 87.3866 130.76C88.4586 131.32 89.2986 132.104 89.9066 133.112C90.5146 134.12 90.8186 135.264 90.8186 136.544C90.8186 137.824 90.5146 138.968 89.9066 139.976C89.2986 140.984 88.4586 141.776 87.3866 142.352C86.3146 142.912 85.0986 143.192 83.7386 143.192ZM83.7386 140.12C84.6986 140.12 85.4826 139.8 86.0906 139.16C86.7146 138.504 87.0266 137.632 87.0266 136.544C87.0266 135.456 86.7146 134.592 86.0906 133.952C85.4826 133.296 84.6986 132.968 83.7386 132.968C82.7786 132.968 81.9866 133.296 81.3626 133.952C80.7386 134.592 80.4266 135.456 80.4266 136.544C80.4266 137.632 80.7386 138.504 81.3626 139.16C81.9866 139.8 82.7786 140.12 83.7386 140.12ZM107.678 139.928V145.784H104.198V143H95.1263V145.784H91.6463V139.928H92.1743C92.9743 139.912 93.5263 139.44 93.8303 138.512C94.1343 137.584 94.3263 136.264 94.4062 134.552L94.5742 130.088H105.83V139.928H107.678ZM97.7903 134.816C97.7423 136.128 97.6383 137.2 97.4783 138.032C97.3343 138.864 97.0543 139.496 96.6383 139.928H102.086V133.16H97.8623L97.7903 134.816ZM122.97 130.088L117.138 143.792C116.546 145.28 115.81 146.328 114.93 146.936C114.066 147.544 113.018 147.848 111.786 147.848C111.114 147.848 110.45 147.744 109.794 147.536C109.138 147.328 108.602 147.04 108.186 146.672L109.554 144.008C109.842 144.264 110.17 144.464 110.538 144.608C110.922 144.752 111.298 144.824 111.666 144.824C112.178 144.824 112.594 144.696 112.914 144.44C113.234 144.2 113.522 143.792 113.778 143.216L113.826 143.096L108.234 130.088H112.098L115.722 138.848L119.37 130.088H122.97ZM130.465 138.104H128.521V143H124.777V130.088H128.521V135.104H130.537L134.041 130.088H138.025L133.513 136.28L138.337 143H133.921L130.465 138.104ZM154.719 139.928V145.832H151.239V143H140.175V130.088H143.895V139.928H149.103V130.088H152.847V139.928H154.719ZM157.073 130.088H160.793V137.768L167.081 130.088H170.513V143H166.793V135.32L160.529 143H157.073V130.088ZM185.585 130.088V143H182.249V139.304H179.489L177.041 143H173.057L176.009 138.776C175.113 138.424 174.425 137.92 173.945 137.264C173.481 136.592 173.249 135.784 173.249 134.84C173.249 133.32 173.793 132.152 174.881 131.336C175.985 130.504 177.497 130.088 179.417 130.088H185.585ZM179.489 133.136C178.689 133.136 178.081 133.28 177.665 133.568C177.265 133.856 177.065 134.32 177.065 134.96C177.065 135.6 177.257 136.072 177.641 136.376C178.041 136.664 178.641 136.808 179.441 136.808H182.249V133.136H179.489Z" fill="black"/>
<g clip-path="url(#clip0_189_273)">
<path fill-rule="evenodd" clip-rule="evenodd" d="M89.7832 60.3474H47.2169C47.2169 57.8605 47.2169 55.3737 47.2169 52.8868C47.2169 51.3947 48.8796 51.7263 49.8773 51.7263C62.3479 51.7263 74.8185 51.7263 87.2891 51.7263C88.453 51.7263 89.7832 51.5605 89.7832 52.8868C89.9494 55.2079 89.7832 57.8605 89.7832 60.3474ZM100.924 11.4395V13.0974C100.924 14.0921 100.591 15.0868 100.092 16.0816C99.5934 17.4079 98.762 18.5684 97.9306 19.5632C96.7667 21.2211 96.4342 21.3868 95.2702 22.5474C94.2726 23.3763 93.1087 24.2053 92.111 24.8684C91.4459 25.2 90.9471 25.6974 90.282 26.0289L88.453 27.0237C88.1204 27.1895 86.7902 27.6868 86.624 27.8526C86.4577 28.1842 85.46 29.1789 85.2938 29.5105C84.9612 30.1737 83.1322 31.6658 82.4671 32.1632C81.1369 32.9921 80.1392 33.4895 78.809 34.1526C77.4789 34.8158 75.8161 34.9816 74.9847 35.8105C73.9871 36.8053 73.322 38.6289 74.3196 39.9553C74.6522 40.4526 75.3173 41.1158 75.6498 41.4474C76.1487 41.7789 78.144 41.2816 79.6404 42.4421C79.8067 42.4421 79.8067 42.6079 79.973 42.7737C81.9683 44.1 81.9683 46.7526 81.1369 48.9079C83.2985 48.9079 85.46 48.9079 87.4553 48.9079C89.7832 48.9079 91.1134 49.4053 91.9447 50.8974C92.7761 52.2237 92.4436 54.5447 92.4436 56.5342C92.4436 58.6895 92.4436 60.8447 92.4436 63H44.5565V53.3842C44.5565 51.8921 44.5565 51.8921 45.0553 50.8974C45.7204 49.4053 47.3832 48.9079 49.5447 48.9079C51.54 48.9079 53.7016 48.9079 55.8632 48.9079C55.5306 48.0789 55.3643 47.7474 55.3643 46.5868C55.3643 45.0947 56.0294 43.4368 57.0271 42.6079C58.5235 41.7789 57.3596 42.2763 58.8561 41.7789C60.3526 41.2816 61.0177 42.4421 62.6804 39.9553C63.6781 38.6289 63.013 36.6395 62.0153 35.8105C61.0177 34.9816 59.5212 34.8158 58.191 34.1526C57.5259 33.8211 56.8608 33.4895 56.362 33.1579C56.0294 32.9921 55.6969 32.8263 55.3643 32.6605C55.1981 32.4947 54.8655 32.3289 54.533 32.1632C52.0388 30.3395 51.3737 28.6816 50.3761 27.8526C50.2098 27.6868 48.8796 27.1895 48.5471 27.0237C48.0482 26.8579 47.882 26.6921 47.5494 26.5263C45.7204 25.5316 43.2263 23.8737 41.7298 22.3816C41.3973 22.05 40.7322 21.5526 40.2333 21.0553C39.2357 20.0605 37.4067 17.4079 36.9079 16.0816C36.5753 15.4184 36.2428 14.4237 36.0765 13.2632V11.4395V11.2737C36.2428 10.2789 36.7416 9.11842 37.2404 8.12368C37.4067 7.95789 37.7392 7.62632 37.9055 7.29474C39.0694 5.63684 41.5635 4.47632 43.7251 4.97368C44.0577 4.97368 44.5565 5.13947 44.889 5.13947C45.2216 5.30526 45.7204 5.63684 45.8867 5.63684C45.8867 4.31053 45.8867 3.48158 45.8867 2.48684C45.8867 0.16579 45.5541 0 46.5518 0C48.5471 0 50.7086 0 52.8702 0C57.1934 0 61.3502 0 65.6734 0C74.1534 0 82.6334 0 91.1134 0V5.63684C91.4459 5.63684 91.7785 5.30526 92.111 5.13947C92.6098 5.13947 92.9424 4.97368 93.2749 4.97368C95.6028 4.64211 97.9306 5.63684 99.2608 7.46053C100.258 8.78684 100.757 10.1132 100.924 11.4395ZM58.0247 47.0842C57.6922 46.2553 58.3573 44.9289 58.6898 44.5974C59.3549 44.1 60.3526 44.2658 61.5165 44.2658C65.8396 44.2658 69.9965 44.2658 74.3196 44.2658C76.4812 44.2658 78.9753 43.9342 78.9753 46.0895C78.9753 47.4158 78.9753 47.9132 78.144 48.5763C77.4789 49.0737 76.4812 48.9079 75.3173 48.9079C71.1604 48.9079 66.8373 48.9079 62.5141 48.9079C61.849 48.9079 60.02 49.0737 59.3549 48.9079C58.5235 48.5763 58.191 47.7474 58.0247 47.0842ZM88.6193 23.8737C88.6193 23.3763 89.1181 22.7132 89.1181 22.2158C89.4506 20.7237 89.7832 20.2263 90.1157 18.5684C90.282 17.4079 90.7808 13.7605 90.7808 12.7658C90.7808 12.4342 90.7808 11.9368 90.7808 11.6053C90.7808 11.1079 90.9471 11.2737 90.9471 10.6105C90.9471 10.2789 90.9471 9.78158 90.9471 9.45C90.9471 8.78684 91.1134 8.95263 91.1134 8.45526C91.6122 8.45526 94.9377 6.13421 97.0993 9.11842C98.762 11.1079 98.5957 13.4289 97.4318 15.5842C96.4342 17.5737 95.104 18.9 93.6075 20.3921L91.2796 22.2158C90.7808 22.5474 89.2844 23.7079 88.6193 23.8737ZM45.8867 8.45526C45.8867 9.28421 46.2192 11.6053 46.2192 12.6C46.2192 13.9263 47.0506 18.9 47.3832 20.3921L48.3808 23.8737C47.5494 23.5421 45.5541 22.05 44.5565 21.3868C42.5612 19.7289 40.7322 17.9053 39.5682 15.5842C38.4043 13.4289 38.4043 11.1079 39.9008 9.11842C42.0624 6.13421 45.5541 8.45526 45.8867 8.45526ZM88.453 2.81842C88.6193 2.81842 88.453 2.98421 88.453 3.48158V7.79211C88.453 8.62105 88.2867 8.95263 88.2867 9.61579C88.2867 11.9368 87.9542 14.0921 87.7879 16.2474C87.4553 18.9 86.624 22.2158 85.46 24.5368C83.2985 28.8474 79.973 31.0026 75.4836 32.4947C73.8208 32.9921 72.4906 34.3184 71.6592 35.9763C71.493 36.4737 70.9941 37.9658 71.1604 38.9605C71.3267 39.4579 71.3267 39.9553 71.6592 40.2868C71.6592 40.6184 71.6592 40.7842 71.8255 40.95C71.9918 41.1158 72.1581 41.2816 72.1581 41.6132H64.842C64.842 41.2816 65.5071 40.6184 65.6734 39.7895C66.0059 38.1316 65.6734 36.8053 65.0083 35.4789C64.842 34.9816 64.0106 34.1526 64.0106 33.8211C63.6781 33.8211 63.5118 33.4895 63.1792 33.3237C61.849 32.4947 61.849 32.6605 60.3526 31.9974C56.362 30.5053 53.5353 28.5158 51.54 24.5368C49.2122 19.8947 48.5471 12.7658 48.5471 5.80263C48.5471 5.13947 48.7133 3.97895 48.5471 3.15C48.5471 2.65263 48.3808 2.65263 49.0459 2.65263C60.3526 2.65263 71.8255 2.65263 83.1322 2.65263C83.7973 2.65263 88.2867 2.48684 88.453 2.81842Z" fill="#8573D1"/>
</g>
<defs>
<clipPath id="clip0_189_273">
<rect width="65" height="63" fill="white" transform="translate(36)"/>
</clipPath>
</defs>
</svg>
