<svg width="327" height="212" viewBox="0 0 327 212" fill="none" xmlns="http://www.w3.org/2000/svg">
<path d="M44.592 118.232H41.904V125H38.04V108.2H41.904V114.992H44.688L49.104 108.2H53.208L47.712 116.312L53.376 125H48.96L44.592 118.232ZM62.8221 111.896C64.0221 111.896 65.1101 112.176 66.0861 112.736C67.0781 113.28 67.8541 114.056 68.4141 115.064C68.9741 116.056 69.2541 117.216 69.2541 118.544C69.2541 119.872 68.9741 121.04 68.4141 122.048C67.8541 123.04 67.0781 123.816 66.0861 124.376C65.1101 124.92 64.0221 125.192 62.8221 125.192C61.1741 125.192 59.8781 124.672 58.9341 123.632V129.656H55.1901V112.088H58.7661V113.576C59.6941 112.456 61.0461 111.896 62.8221 111.896ZM62.1741 122.12C63.1341 122.12 63.9181 121.8 64.5261 121.16C65.1501 120.504 65.4621 119.632 65.4621 118.544C65.4621 117.456 65.1501 116.592 64.5261 115.952C63.9181 115.296 63.1341 114.968 62.1741 114.968C61.2141 114.968 60.4221 115.296 59.7981 115.952C59.1901 116.592 58.8861 117.456 58.8861 118.544C58.8861 119.632 59.1901 120.504 59.7981 121.16C60.4221 121.8 61.2141 122.12 62.1741 122.12ZM78.6701 116.216C80.3501 116.232 81.6221 116.608 82.4861 117.344C83.3501 118.08 83.7821 119.136 83.7821 120.512C83.7821 121.952 83.2941 123.064 82.3181 123.848C81.3421 124.632 79.9581 125.024 78.1661 125.024L71.8781 125V112.088H75.5981V116.216H78.6701ZM85.1741 112.088H88.8941V125H85.1741V112.088ZM77.8301 122.36C78.5501 122.376 79.1021 122.224 79.4861 121.904C79.8701 121.584 80.0621 121.104 80.0621 120.464C80.0621 119.84 79.8701 119.384 79.4861 119.096C79.1181 118.808 78.5661 118.656 77.8301 118.64L75.5981 118.616V122.36H77.8301ZM112.207 112.088V125H92.5031V112.088H96.2231V121.928H100.519V112.088H104.239V121.928H108.487V112.088H112.207ZM115.8 112.088H119.52V117.128H125.136V112.088H128.88V125H125.136V120.176H119.52V125H115.8V112.088ZM139.256 116.216C140.936 116.232 142.208 116.608 143.072 117.344C143.936 118.08 144.368 119.136 144.368 120.512C144.368 121.952 143.88 123.064 142.904 123.848C141.928 124.632 140.544 125.024 138.752 125.024L132.464 125V112.088H136.184V116.216H139.256ZM145.76 112.088H149.48V125H145.76V112.088ZM138.416 122.36C139.136 122.376 139.688 122.224 140.072 121.904C140.456 121.584 140.648 121.104 140.648 120.464C140.648 119.84 140.456 119.384 140.072 119.096C139.704 118.808 139.152 118.656 138.416 118.64L136.184 118.616V122.36H138.416ZM165.641 118.592C165.641 118.64 165.617 118.976 165.569 119.6H155.801C155.977 120.4 156.393 121.032 157.049 121.496C157.705 121.96 158.521 122.192 159.497 122.192C160.169 122.192 160.761 122.096 161.273 121.904C161.801 121.696 162.289 121.376 162.737 120.944L164.729 123.104C163.513 124.496 161.737 125.192 159.401 125.192C157.945 125.192 156.657 124.912 155.537 124.352C154.417 123.776 153.553 122.984 152.945 121.976C152.337 120.968 152.033 119.824 152.033 118.544C152.033 117.28 152.329 116.144 152.921 115.136C153.529 114.112 154.353 113.32 155.393 112.76C156.449 112.184 157.625 111.896 158.921 111.896C160.185 111.896 161.329 112.168 162.353 112.712C163.377 113.256 164.177 114.04 164.753 115.064C165.345 116.072 165.641 117.248 165.641 118.592ZM158.945 114.728C158.097 114.728 157.385 114.968 156.809 115.448C156.233 115.928 155.881 116.584 155.753 117.416H162.113C161.985 116.6 161.633 115.952 161.057 115.472C160.481 114.976 159.777 114.728 158.945 114.728ZM188.244 112.088L182.412 125.792C181.82 127.28 181.084 128.328 180.204 128.936C179.34 129.544 178.292 129.848 177.06 129.848C176.388 129.848 175.724 129.744 175.068 129.536C174.412 129.328 173.876 129.04 173.46 128.672L174.828 126.008C175.116 126.264 175.444 126.464 175.812 126.608C176.196 126.752 176.572 126.824 176.94 126.824C177.452 126.824 177.868 126.696 178.188 126.44C178.508 126.2 178.796 125.792 179.052 125.216L179.1 125.096L173.508 112.088H177.372L180.996 120.848L184.644 112.088H188.244ZM195.842 125.192C194.466 125.192 193.226 124.912 192.122 124.352C191.034 123.776 190.178 122.984 189.554 121.976C188.946 120.968 188.642 119.824 188.642 118.544C188.642 117.264 188.946 116.12 189.554 115.112C190.178 114.104 191.034 113.32 192.122 112.76C193.226 112.184 194.466 111.896 195.842 111.896C197.202 111.896 198.386 112.184 199.394 112.76C200.418 113.32 201.162 114.128 201.626 115.184L198.722 116.744C198.05 115.56 197.082 114.968 195.818 114.968C194.842 114.968 194.034 115.288 193.394 115.928C192.754 116.568 192.434 117.44 192.434 118.544C192.434 119.648 192.754 120.52 193.394 121.16C194.034 121.8 194.842 122.12 195.818 122.12C197.098 122.12 198.066 121.528 198.722 120.344L201.626 121.928C201.162 122.952 200.418 123.752 199.394 124.328C198.386 124.904 197.202 125.192 195.842 125.192ZM214.703 115.16H210.335V125H206.615V115.16H202.247V112.088H214.703V115.16ZM221.714 111.896C223.714 111.896 225.25 112.376 226.322 113.336C227.394 114.28 227.93 115.712 227.93 117.632V125H224.426V123.392C223.722 124.592 222.41 125.192 220.49 125.192C219.498 125.192 218.634 125.024 217.898 124.688C217.178 124.352 216.626 123.888 216.242 123.296C215.858 122.704 215.666 122.032 215.666 121.28C215.666 120.08 216.114 119.136 217.01 118.448C217.922 117.76 219.322 117.416 221.21 117.416H224.186C224.186 116.6 223.938 115.976 223.442 115.544C222.946 115.096 222.202 114.872 221.21 114.872C220.522 114.872 219.842 114.984 219.17 115.208C218.514 115.416 217.954 115.704 217.49 116.072L216.146 113.456C216.85 112.96 217.69 112.576 218.666 112.304C219.658 112.032 220.674 111.896 221.714 111.896ZM221.426 122.672C222.066 122.672 222.634 122.528 223.13 122.24C223.626 121.936 223.978 121.496 224.186 120.92V119.6H221.618C220.082 119.6 219.314 120.104 219.314 121.112C219.314 121.592 219.498 121.976 219.866 122.264C220.25 122.536 220.77 122.672 221.426 122.672ZM231.183 112.088H234.903V117.128H240.519V112.088H244.263V125H240.519V120.176H234.903V125H231.183V112.088ZM253.895 125.192C252.535 125.192 251.311 124.912 250.223 124.352C249.151 123.776 248.311 122.984 247.703 121.976C247.095 120.968 246.791 119.824 246.791 118.544C246.791 117.264 247.095 116.12 247.703 115.112C248.311 114.104 249.151 113.32 250.223 112.76C251.311 112.184 252.535 111.896 253.895 111.896C255.255 111.896 256.471 112.184 257.543 112.76C258.615 113.32 259.455 114.104 260.063 115.112C260.671 116.12 260.975 117.264 260.975 118.544C260.975 119.824 260.671 120.968 260.063 121.976C259.455 122.984 258.615 123.776 257.543 124.352C256.471 124.912 255.255 125.192 253.895 125.192ZM253.895 122.12C254.855 122.12 255.639 121.8 256.247 121.16C256.871 120.504 257.183 119.632 257.183 118.544C257.183 117.456 256.871 116.592 256.247 115.952C255.639 115.296 254.855 114.968 253.895 114.968C252.935 114.968 252.143 115.296 251.519 115.952C250.895 116.592 250.583 117.456 250.583 118.544C250.583 119.632 250.895 120.504 251.519 121.16C252.143 121.8 252.935 122.12 253.895 122.12ZM273.414 118.256C274.934 118.768 275.694 119.792 275.694 121.328C275.694 122.496 275.254 123.4 274.374 124.04C273.494 124.68 272.182 125 270.438 125H263.55V112.088H270.15C271.766 112.088 273.03 112.384 273.942 112.976C274.854 113.552 275.31 114.368 275.31 115.424C275.31 116.064 275.142 116.632 274.806 117.128C274.486 117.608 274.022 117.984 273.414 118.256ZM266.982 117.392H269.814C271.126 117.392 271.782 116.928 271.782 116C271.782 115.088 271.126 114.632 269.814 114.632H266.982V117.392ZM270.126 122.456C271.502 122.456 272.19 121.984 272.19 121.04C272.19 120.544 272.03 120.184 271.71 119.96C271.39 119.72 270.886 119.6 270.198 119.6H266.982V122.456H270.126ZM284.168 120.104H282.224V125H278.48V112.088H282.224V117.104H284.24L287.744 112.088H291.728L287.216 118.28L292.04 125H287.624L284.168 120.104ZM293.878 112.088H297.598V119.768L303.886 112.088H307.318V125H303.598V117.32L297.334 125H293.878V112.088Z" fill="black"/>
<path d="M42.5625 39.6875V70.3125H99.4375V39.6875H42.5625ZM77.5625 63.75H74.2812V55H67.7188V63.75H64.4375V50.625L71 46.25L77.5625 50.625V63.75Z" fill="#D1CBEC"/>
<path d="M67.7188 55H74.2812V63.75H67.7188V55Z" fill="#D1CBEC"/>
<path d="M67.7188 55H74.2812V63.75H67.7188V55Z" fill="#D1CBEC"/>
<path d="M103.812 80.1562H102.719C102.429 80.1562 102.15 80.2716 101.945 80.4767C101.74 80.6818 101.625 80.9599 101.625 81.25C101.625 81.5401 101.74 81.8183 101.945 82.0234C102.15 82.2285 102.429 82.3438 102.719 82.3438H103.812C104.103 82.3438 104.381 82.2285 104.586 82.0234C104.791 81.8183 104.906 81.5401 104.906 81.25C104.906 80.9599 104.791 80.6818 104.586 80.4767C104.381 80.2716 104.103 80.1562 103.812 80.1562Z" fill="#8573D1"/>
<path d="M99.4375 38.5938H93.9688V36.4062H98.3438C98.6338 36.4062 98.912 36.291 99.1171 36.0859C99.3223 35.8808 99.4375 35.6026 99.4375 35.3125V30.9375C99.4375 30.6474 99.3223 30.3692 99.1171 30.1641C98.912 29.959 98.6338 29.8438 98.3438 29.8438H87.4062C87.1162 29.8438 86.838 29.959 86.6329 30.1641C86.4277 30.3692 86.3125 30.6474 86.3125 30.9375V35.3125C86.3125 35.6026 86.4277 35.8808 86.6329 36.0859C86.838 36.291 87.1162 36.4062 87.4062 36.4062H91.7812V38.5938H72.0938V36.4062H76.4688C76.7588 36.4062 77.037 36.291 77.2421 36.0859C77.4473 35.8808 77.5625 35.6026 77.5625 35.3125V30.9375C77.5625 30.6474 77.4473 30.3692 77.2421 30.1641C77.037 29.959 76.7588 29.8438 76.4688 29.8438H65.5312C65.2412 29.8438 64.963 29.959 64.7579 30.1641C64.5527 30.3692 64.4375 30.6474 64.4375 30.9375V35.3125C64.4375 35.6026 64.5527 35.8808 64.7579 36.0859C64.963 36.291 65.2412 36.4062 65.5312 36.4062H69.9062V38.5938H50.2188V36.4062H54.5938C54.8838 36.4062 55.162 36.291 55.3671 36.0859C55.5723 35.8808 55.6875 35.6026 55.6875 35.3125V30.9375C55.6875 30.6474 55.5723 30.3692 55.3671 30.1641C55.162 29.959 54.8838 29.8438 54.5938 29.8438H43.6562C43.3662 29.8438 43.088 29.959 42.8829 30.1641C42.6777 30.3692 42.5625 30.6474 42.5625 30.9375V35.3125C42.5625 35.6026 42.6777 35.8808 42.8829 36.0859C43.088 36.291 43.3662 36.4062 43.6562 36.4062H48.0312V38.5938H42.5625C42.2724 38.5938 41.9942 38.709 41.7891 38.9141C41.584 39.1192 41.4688 39.3974 41.4688 39.6875V70.3125C41.4688 70.6026 41.584 70.8808 41.7891 71.0859C41.9942 71.291 42.2724 71.4062 42.5625 71.4062H48.0312V80.1562H38.1875C37.8974 80.1562 37.6192 80.2715 37.4141 80.4766C37.209 80.6817 37.0938 80.9599 37.0938 81.25C37.0938 81.5401 37.209 81.8183 37.4141 82.0234C37.6192 82.2285 37.8974 82.3438 38.1875 82.3438H99.4375C99.7276 82.3438 100.006 82.2285 100.211 82.0234C100.416 81.8183 100.531 81.5401 100.531 81.25C100.531 80.9599 100.416 80.6817 100.211 80.4766C100.006 80.2715 99.7276 80.1562 99.4375 80.1562H93.9688V71.4062H99.4375C99.7276 71.4062 100.006 71.291 100.211 71.0859C100.416 70.8808 100.531 70.6026 100.531 70.3125V39.6875C100.531 39.3974 100.416 39.1192 100.211 38.9141C100.006 38.709 99.7276 38.5938 99.4375 38.5938ZM88.5 34.2188V32.0312H97.25V34.2188H88.5ZM66.625 34.2188V32.0312H75.375V34.2188H66.625ZM44.75 34.2188V32.0312H53.5V34.2188H44.75ZM91.7812 80.1562H50.2188V71.4062H91.7812V80.1562ZM98.3438 69.2188H43.6562V40.7812H98.3438V69.2188Z" fill="#8573D1"/>
<path d="M64.4375 64.8439H77.5625C77.8526 64.8439 78.1308 64.7288 78.3359 64.5237C78.541 64.3185 78.6562 64.0402 78.6562 63.7502V50.6252C78.6563 50.4451 78.6119 50.2679 78.527 50.1092C78.4421 49.9504 78.3193 49.8151 78.1695 49.7153L71.607 45.3403C71.4273 45.2203 71.2161 45.1562 71 45.1562C70.7839 45.1562 70.5727 45.2203 70.393 45.3403L63.8305 49.7153C63.6807 49.8151 63.5579 49.9504 63.473 50.1092C63.3881 50.2679 63.3437 50.4451 63.3438 50.6252V63.7502C63.3438 64.0402 63.459 64.3185 63.6641 64.5237C63.8692 64.7288 64.1474 64.8439 64.4375 64.8439ZM68.8125 62.6564V56.0939H73.1875V62.6564H68.8125ZM65.5312 51.2104L71 47.5627L76.4688 51.2081V62.6564H75.375V55.0002C75.375 54.7101 75.2598 54.4319 75.0546 54.2268C74.8495 54.0216 74.5713 53.9064 74.2812 53.9064H67.7188C67.4287 53.9064 67.1505 54.0216 66.9454 54.2268C66.7402 54.4319 66.625 54.7101 66.625 55.0002V62.6564H65.5312V51.2104Z" fill="#8573D1"/>
</svg>
