<svg width="293" height="222" viewBox="0 0 293 222" fill="none" xmlns="http://www.w3.org/2000/svg">
<path d="M45.36 97.2C46.848 97.2 48.136 97.448 49.224 97.944C50.328 98.44 51.176 99.144 51.768 100.056C52.36 100.968 52.656 102.048 52.656 103.296C52.656 104.528 52.36 105.608 51.768 106.536C51.176 107.448 50.328 108.152 49.224 108.648C48.136 109.128 46.848 109.368 45.36 109.368H41.976V114H38.088V97.2H45.36ZM45.144 106.2C46.312 106.2 47.2 105.952 47.808 105.456C48.416 104.944 48.72 104.224 48.72 103.296C48.72 102.352 48.416 101.632 47.808 101.136C47.2 100.624 46.312 100.368 45.144 100.368H41.976V106.2H45.144ZM67.4614 107.592C67.4614 107.64 67.4374 107.976 67.3894 108.6H57.6214C57.7974 109.4 58.2134 110.032 58.8694 110.496C59.5254 110.96 60.3414 111.192 61.3174 111.192C61.9894 111.192 62.5814 111.096 63.0934 110.904C63.6214 110.696 64.1094 110.376 64.5574 109.944L66.5494 112.104C65.3334 113.496 63.5574 114.192 61.2214 114.192C59.7654 114.192 58.4774 113.912 57.3574 113.352C56.2374 112.776 55.3734 111.984 54.7654 110.976C54.1574 109.968 53.8534 108.824 53.8534 107.544C53.8534 106.28 54.1494 105.144 54.7414 104.136C55.3494 103.112 56.1734 102.32 57.2134 101.76C58.2694 101.184 59.4454 100.896 60.7414 100.896C62.0054 100.896 63.1494 101.168 64.1734 101.712C65.1974 102.256 65.9974 103.04 66.5734 104.064C67.1654 105.072 67.4614 106.248 67.4614 107.592ZM60.7654 103.728C59.9174 103.728 59.2054 103.968 58.6294 104.448C58.0534 104.928 57.7014 105.584 57.5734 106.416H63.9334C63.8054 105.6 63.4534 104.952 62.8774 104.472C62.3014 103.976 61.5974 103.728 60.7654 103.728ZM76.0193 109.104H74.0753V114H70.3313V101.088H74.0753V106.104H76.0913L79.5953 101.088H83.5793L79.0673 107.28L83.8913 114H79.4753L76.0193 109.104ZM98.1137 101.088V114H94.3697V104.16H90.2897L90.1697 106.44C90.1057 108.136 89.9457 109.544 89.6897 110.664C89.4337 111.784 89.0177 112.664 88.4417 113.304C87.8657 113.944 87.0657 114.264 86.0417 114.264C85.4977 114.264 84.8497 114.168 84.0977 113.976L84.2897 110.904C84.5457 110.936 84.7297 110.952 84.8417 110.952C85.4017 110.952 85.8177 110.752 86.0897 110.352C86.3777 109.936 86.5697 109.416 86.6657 108.792C86.7617 108.152 86.8337 107.312 86.8817 106.272L87.0737 101.088H98.1137ZM106.73 100.896C108.73 100.896 110.266 101.376 111.338 102.336C112.41 103.28 112.946 104.712 112.946 106.632V114H109.442V112.392C108.738 113.592 107.426 114.192 105.506 114.192C104.514 114.192 103.65 114.024 102.914 113.688C102.194 113.352 101.642 112.888 101.258 112.296C100.874 111.704 100.682 111.032 100.682 110.28C100.682 109.08 101.13 108.136 102.026 107.448C102.938 106.76 104.338 106.416 106.226 106.416H109.202C109.202 105.6 108.954 104.976 108.458 104.544C107.962 104.096 107.218 103.872 106.226 103.872C105.538 103.872 104.858 103.984 104.186 104.208C103.53 104.416 102.97 104.704 102.506 105.072L101.162 102.456C101.866 101.96 102.706 101.576 103.682 101.304C104.674 101.032 105.69 100.896 106.73 100.896ZM106.442 111.672C107.082 111.672 107.65 111.528 108.146 111.24C108.642 110.936 108.994 110.496 109.202 109.92V108.6H106.634C105.098 108.6 104.33 109.104 104.33 110.112C104.33 110.592 104.514 110.976 104.882 111.264C105.266 111.536 105.786 111.672 106.442 111.672ZM128.798 114V106.272L124.934 112.752H123.35L119.582 106.248V114H116.198V101.088H120.11L124.238 108.552L128.63 101.088H132.134L132.182 114H128.798ZM135.769 101.088H139.489V106.128H145.105V101.088H148.849V114H145.105V109.176H139.489V114H135.769V101.088ZM159.225 105.216C160.905 105.232 162.177 105.608 163.041 106.344C163.905 107.08 164.337 108.136 164.337 109.512C164.337 110.952 163.849 112.064 162.873 112.848C161.897 113.632 160.513 114.024 158.721 114.024L152.433 114V101.088H156.153V105.216H159.225ZM165.729 101.088H169.449V114H165.729V101.088ZM158.385 111.36C159.105 111.376 159.657 111.224 160.041 110.904C160.425 110.584 160.617 110.104 160.617 109.464C160.617 108.84 160.425 108.384 160.041 108.096C159.673 107.808 159.121 107.656 158.385 107.64L156.153 107.616V111.36H158.385ZM185.61 107.592C185.61 107.64 185.586 107.976 185.538 108.6H175.77C175.946 109.4 176.362 110.032 177.018 110.496C177.674 110.96 178.49 111.192 179.466 111.192C180.138 111.192 180.73 111.096 181.242 110.904C181.77 110.696 182.258 110.376 182.706 109.944L184.698 112.104C183.482 113.496 181.706 114.192 179.37 114.192C177.914 114.192 176.626 113.912 175.506 113.352C174.386 112.776 173.522 111.984 172.914 110.976C172.306 109.968 172.002 108.824 172.002 107.544C172.002 106.28 172.298 105.144 172.89 104.136C173.498 103.112 174.322 102.32 175.362 101.76C176.418 101.184 177.594 100.896 178.89 100.896C180.154 100.896 181.298 101.168 182.322 101.712C183.346 102.256 184.146 103.04 184.722 104.064C185.314 105.072 185.61 106.248 185.61 107.592ZM178.914 103.728C178.066 103.728 177.354 103.968 176.778 104.448C176.202 104.928 175.85 105.584 175.722 106.416H182.082C181.954 105.6 181.602 104.952 181.026 104.472C180.45 103.976 179.746 103.728 178.914 103.728ZM57.504 130.088V143H37.8V130.088H41.52V139.928H45.816V130.088H49.536V139.928H53.784V130.088H57.504ZM71.9449 133.16H67.5769V143H63.8569V133.16H59.4889V130.088H71.9449V133.16ZM85.9536 136.592C85.9536 136.64 85.9296 136.976 85.8816 137.6H76.1136C76.2896 138.4 76.7056 139.032 77.3616 139.496C78.0176 139.96 78.8336 140.192 79.8096 140.192C80.4816 140.192 81.0736 140.096 81.5856 139.904C82.1136 139.696 82.6016 139.376 83.0496 138.944L85.0416 141.104C83.8256 142.496 82.0496 143.192 79.7136 143.192C78.2576 143.192 76.9696 142.912 75.8496 142.352C74.7296 141.776 73.8656 140.984 73.2576 139.976C72.6496 138.968 72.3456 137.824 72.3456 136.544C72.3456 135.28 72.6416 134.144 73.2336 133.136C73.8416 132.112 74.6656 131.32 75.7056 130.76C76.7616 130.184 77.9376 129.896 79.2336 129.896C80.4976 129.896 81.6416 130.168 82.6656 130.712C83.6896 131.256 84.4896 132.04 85.0656 133.064C85.6576 134.072 85.9536 135.248 85.9536 136.592ZM79.2576 132.728C78.4096 132.728 77.6976 132.968 77.1216 133.448C76.5456 133.928 76.1936 134.584 76.0656 135.416H82.4256C82.2976 134.6 81.9456 133.952 81.3696 133.472C80.7936 132.976 80.0896 132.728 79.2576 132.728ZM88.8234 130.088H92.5434V135.128H98.1594V130.088H101.903V143H98.1594V138.176H92.5434V143H88.8234V130.088ZM119.96 139.928V145.784H116.48V143H107.408V145.784H103.928V139.928H104.456C105.256 139.912 105.808 139.44 106.112 138.512C106.416 137.584 106.608 136.264 106.688 134.552L106.855 130.088H118.112V139.928H119.96ZM110.072 134.816C110.024 136.128 109.92 137.2 109.76 138.032C109.616 138.864 109.336 139.496 108.92 139.928H114.368V133.16H110.144L110.072 134.816ZM134.868 136.592C134.868 136.64 134.844 136.976 134.796 137.6H125.028C125.204 138.4 125.62 139.032 126.276 139.496C126.932 139.96 127.748 140.192 128.724 140.192C129.396 140.192 129.988 140.096 130.5 139.904C131.028 139.696 131.516 139.376 131.964 138.944L133.956 141.104C132.74 142.496 130.964 143.192 128.628 143.192C127.172 143.192 125.884 142.912 124.764 142.352C123.644 141.776 122.78 140.984 122.172 139.976C121.564 138.968 121.26 137.824 121.26 136.544C121.26 135.28 121.556 134.144 122.148 133.136C122.756 132.112 123.58 131.32 124.62 130.76C125.676 130.184 126.852 129.896 128.148 129.896C129.412 129.896 130.556 130.168 131.58 130.712C132.604 131.256 133.404 132.04 133.98 133.064C134.572 134.072 134.868 135.248 134.868 136.592ZM128.172 132.728C127.324 132.728 126.612 132.968 126.036 133.448C125.46 133.928 125.108 134.584 124.98 135.416H131.34C131.212 134.6 130.86 133.952 130.284 133.472C129.708 132.976 129.004 132.728 128.172 132.728ZM145.346 129.896C146.546 129.896 147.634 130.176 148.609 130.736C149.602 131.28 150.378 132.056 150.938 133.064C151.498 134.056 151.778 135.216 151.778 136.544C151.778 137.872 151.498 139.04 150.938 140.048C150.378 141.04 149.602 141.816 148.609 142.376C147.634 142.92 146.546 143.192 145.346 143.192C143.698 143.192 142.402 142.672 141.458 141.632V147.656H137.714V130.088H141.29V131.576C142.218 130.456 143.57 129.896 145.346 129.896ZM144.698 140.12C145.658 140.12 146.442 139.8 147.05 139.16C147.674 138.504 147.986 137.632 147.986 136.544C147.986 135.456 147.674 134.592 147.05 133.952C146.442 133.296 145.658 132.968 144.698 132.968C143.738 132.968 142.946 133.296 142.322 133.952C141.714 134.592 141.41 135.456 141.41 136.544C141.41 137.632 141.714 138.504 142.322 139.16C142.946 139.8 143.738 140.12 144.698 140.12ZM161.194 134.216C162.874 134.232 164.146 134.608 165.01 135.344C165.874 136.08 166.306 137.136 166.306 138.512C166.306 139.952 165.818 141.064 164.842 141.848C163.866 142.632 162.482 143.024 160.69 143.024L154.402 143V130.088H158.122V134.216H161.194ZM167.698 130.088H171.418V143H167.698V130.088ZM160.354 140.36C161.074 140.376 161.626 140.224 162.01 139.904C162.394 139.584 162.586 139.104 162.586 138.464C162.586 137.84 162.394 137.384 162.01 137.096C161.642 136.808 161.09 136.656 160.354 136.64L158.122 136.616V140.36H160.354Z" fill="black"/>
<path d="M66.625 51.5625C73.2697 51.5625 78.6562 46.1759 78.6562 39.5312C78.6562 32.8866 73.2697 27.5 66.625 27.5C59.9803 27.5 54.5938 32.8866 54.5938 39.5312C54.5938 46.1759 59.9803 51.5625 66.625 51.5625Z" fill="#D1CBEC"/>
<path d="M81.9375 71.25H86.3125V77.8125H98.3438L89.5938 12.1875L81.9375 71.25Z" fill="#D1CBEC"/>
<path d="M66.625 51.5625C73.2697 51.5625 78.6562 46.1759 78.6562 39.5312C78.6562 32.8866 73.2697 27.5 66.625 27.5C59.9803 27.5 54.5938 32.8866 54.5938 39.5312C54.5938 46.1759 59.9803 51.5625 66.625 51.5625Z" fill="#D1CBEC"/>
<path d="M99.428 77.6676L90.678 12.0426C90.643 11.78 90.5137 11.5391 90.3142 11.3648C90.1148 11.1905 89.8587 11.0946 89.5938 11.0951V11.0938H52.4063C52.1413 11.0937 51.8853 11.1899 51.6859 11.3644C51.4865 11.5389 51.3573 11.7799 51.3221 12.0426L42.5721 77.6676C42.5515 77.8221 42.5641 77.9792 42.6091 78.1285C42.6542 78.2777 42.7306 78.4156 42.8332 78.5329C42.9359 78.6502 43.0625 78.7442 43.2044 78.8086C43.3464 78.8729 43.5004 78.9063 43.6563 78.9062H55.6876C55.9777 78.9062 56.2559 78.791 56.461 78.5859C56.6661 78.3808 56.7813 78.1026 56.7813 77.8125V72.3438H67.7188V77.8125C67.7188 78.1026 67.8341 78.3808 68.0392 78.5859C68.2443 78.791 68.5225 78.9062 68.8126 78.9062H80.8438C81.1088 78.9063 81.3648 78.8101 81.5642 78.6356C81.7636 78.4611 81.8929 78.2201 81.928 77.9574L82.6759 72.3438H85.2188V77.8125C85.2188 78.1026 85.3341 78.3808 85.5392 78.5859C85.7443 78.791 86.0225 78.9062 86.3126 78.9062H98.3438C98.4997 78.9063 98.6538 78.8729 98.7958 78.8086C98.9377 78.7442 99.0643 78.6502 99.1669 78.5329C99.2696 78.4156 99.346 78.2777 99.391 78.1285C99.4361 77.9792 99.4487 77.8221 99.428 77.6676ZM79.8868 76.7188H69.9063V71.25C69.9063 70.9599 69.7911 70.6817 69.586 70.4766C69.3809 70.2715 69.1027 70.1562 68.8126 70.1562H55.6876C55.3975 70.1562 55.1193 70.2715 54.9142 70.4766C54.7091 70.6817 54.5938 70.9599 54.5938 71.25V76.7188H44.9059L53.3634 13.2812H88.3442L79.8868 76.7188ZM87.4063 76.7188V71.25C87.4063 70.9599 87.2911 70.6817 87.086 70.4766C86.8809 70.2715 86.6027 70.1562 86.3126 70.1562H82.9684L89.5938 20.4617L97.0942 76.7188H87.4063Z" fill="#8573D1"/>
<path d="M66.625 26.4062C64.0291 26.4062 61.4915 27.176 59.3331 28.6182C57.1748 30.0604 55.4925 32.1102 54.4991 34.5085C53.5057 36.9068 53.2458 39.5459 53.7522 42.0919C54.2586 44.6378 55.5087 46.9765 57.3442 48.812C59.1798 50.6476 61.5184 51.8976 64.0644 52.404C66.6104 52.9105 69.2494 52.6507 71.6477 51.6572C74.046 50.6638 76.0958 48.9816 77.538 46.8232C78.9802 44.6648 79.75 42.1271 79.75 39.5312C79.7461 36.0515 78.362 32.7155 75.9015 30.2549C73.4409 27.7943 70.1048 26.4103 66.625 26.4062ZM66.625 50.4688C64.4618 50.4688 62.3471 49.8274 60.5485 48.6255C58.7498 47.4237 57.3479 45.7155 56.5201 43.7169C55.6922 41.7184 55.4756 39.5191 55.8977 37.3974C56.3197 35.2758 57.3614 33.327 58.891 31.7973C60.4207 30.2676 62.3695 29.2259 64.4912 28.8039C66.6129 28.3819 68.812 28.5985 70.8106 29.4263C72.8092 30.2541 74.5174 31.6561 75.7192 33.4548C76.921 35.2535 77.5625 37.368 77.5625 39.5312C77.5592 42.431 76.4058 45.2112 74.3553 47.2617C72.3049 49.312 69.5248 50.4655 66.625 50.4688Z" fill="#8573D1"/>
</svg>
