<svg width="368" height="215" viewBox="0 0 368 215" fill="none" xmlns="http://www.w3.org/2000/svg">
<path d="M49.92 100.368H41.928L41.952 114H38.088V97.2H49.944L49.92 100.368ZM58.3455 100.896C59.5455 100.896 60.6335 101.176 61.6095 101.736C62.6015 102.28 63.3775 103.056 63.9375 104.064C64.4975 105.056 64.7775 106.216 64.7775 107.544C64.7775 108.872 64.4975 110.04 63.9375 111.048C63.3775 112.04 62.6015 112.816 61.6095 113.376C60.6335 113.92 59.5455 114.192 58.3455 114.192C56.6975 114.192 55.4015 113.672 54.4575 112.632V118.656H50.7135V101.088H54.2895V102.576C55.2175 101.456 56.5695 100.896 58.3455 100.896ZM57.6975 111.12C58.6575 111.12 59.4415 110.8 60.0495 110.16C60.6735 109.504 60.9855 108.632 60.9855 107.544C60.9855 106.456 60.6735 105.592 60.0495 104.952C59.4415 104.296 58.6575 103.968 57.6975 103.968C56.7375 103.968 55.9455 104.296 55.3215 104.952C54.7135 105.592 54.4095 106.456 54.4095 107.544C54.4095 108.632 54.7135 109.504 55.3215 110.16C55.9455 110.8 56.7375 111.12 57.6975 111.12ZM72.2066 100.896C74.2066 100.896 75.7426 101.376 76.8146 102.336C77.8866 103.28 78.4226 104.712 78.4226 106.632V114H74.9186V112.392C74.2146 113.592 72.9026 114.192 70.9826 114.192C69.9906 114.192 69.1266 114.024 68.3906 113.688C67.6706 113.352 67.1186 112.888 66.7346 112.296C66.3506 111.704 66.1586 111.032 66.1586 110.28C66.1586 109.08 66.6066 108.136 67.5026 107.448C68.4146 106.76 69.8146 106.416 71.7026 106.416H74.6786C74.6786 105.6 74.4306 104.976 73.9346 104.544C73.4386 104.096 72.6946 103.872 71.7026 103.872C71.0146 103.872 70.3346 103.984 69.6626 104.208C69.0066 104.416 68.4466 104.704 67.9826 105.072L66.6386 102.456C67.3426 101.96 68.1826 101.576 69.1586 101.304C70.1506 101.032 71.1666 100.896 72.2066 100.896ZM71.9186 111.672C72.5586 111.672 73.1266 111.528 73.6226 111.24C74.1186 110.936 74.4706 110.496 74.6786 109.92V108.6H72.1106C70.5746 108.6 69.8066 109.104 69.8066 110.112C69.8066 110.592 69.9906 110.976 70.3586 111.264C70.7426 111.536 71.2626 111.672 71.9186 111.672ZM91.539 107.256C93.059 107.768 93.819 108.792 93.819 110.328C93.819 111.496 93.379 112.4 92.499 113.04C91.619 113.68 90.307 114 88.563 114H81.675V101.088H88.275C89.891 101.088 91.155 101.384 92.067 101.976C92.979 102.552 93.435 103.368 93.435 104.424C93.435 105.064 93.267 105.632 92.931 106.128C92.611 106.608 92.147 106.984 91.539 107.256ZM85.107 106.392H87.939C89.251 106.392 89.907 105.928 89.907 105C89.907 104.088 89.251 103.632 87.939 103.632H85.107V106.392ZM88.251 111.456C89.627 111.456 90.315 110.984 90.315 110.04C90.315 109.544 90.155 109.184 89.835 108.96C89.515 108.72 89.011 108.6 88.323 108.6H85.107V111.456H88.251ZM96.6047 101.088H100.325V108.768L106.613 101.088H110.045V114H106.325V106.32L100.061 114H96.6047V101.088ZM121.252 100.896C122.452 100.896 123.54 101.176 124.516 101.736C125.508 102.28 126.284 103.056 126.844 104.064C127.404 105.056 127.684 106.216 127.684 107.544C127.684 108.872 127.404 110.04 126.844 111.048C126.284 112.04 125.508 112.816 124.516 113.376C123.54 113.92 122.452 114.192 121.252 114.192C119.604 114.192 118.308 113.672 117.364 112.632V118.656H113.62V101.088H117.196V102.576C118.124 101.456 119.476 100.896 121.252 100.896ZM120.604 111.12C121.564 111.12 122.348 110.8 122.956 110.16C123.58 109.504 123.892 108.632 123.892 107.544C123.892 106.456 123.58 105.592 122.956 104.952C122.348 104.296 121.564 103.968 120.604 103.968C119.644 103.968 118.852 104.296 118.228 104.952C117.62 105.592 117.316 106.456 117.316 107.544C117.316 108.632 117.62 109.504 118.228 110.16C118.852 110.8 119.644 111.12 120.604 111.12ZM136.356 114.192C134.996 114.192 133.772 113.912 132.684 113.352C131.612 112.776 130.772 111.984 130.164 110.976C129.556 109.968 129.252 108.824 129.252 107.544C129.252 106.264 129.556 105.12 130.164 104.112C130.772 103.104 131.612 102.32 132.684 101.76C133.772 101.184 134.996 100.896 136.356 100.896C137.716 100.896 138.932 101.184 140.004 101.76C141.076 102.32 141.916 103.104 142.524 104.112C143.132 105.12 143.436 106.264 143.436 107.544C143.436 108.824 143.132 109.968 142.524 110.976C141.916 111.984 141.076 112.776 140.004 113.352C138.932 113.912 137.716 114.192 136.356 114.192ZM136.356 111.12C137.316 111.12 138.1 110.8 138.708 110.16C139.332 109.504 139.644 108.632 139.644 107.544C139.644 106.456 139.332 105.592 138.708 104.952C138.1 104.296 137.316 103.968 136.356 103.968C135.396 103.968 134.604 104.296 133.98 104.952C133.356 105.592 133.044 106.456 133.044 107.544C133.044 108.632 133.356 109.504 133.98 110.16C134.604 110.8 135.396 111.12 136.356 111.12ZM155.875 107.256C157.395 107.768 158.155 108.792 158.155 110.328C158.155 111.496 157.715 112.4 156.835 113.04C155.955 113.68 154.643 114 152.899 114H146.011V101.088H152.611C154.227 101.088 155.491 101.384 156.403 101.976C157.315 102.552 157.771 103.368 157.771 104.424C157.771 105.064 157.603 105.632 157.267 106.128C156.947 106.608 156.483 106.984 155.875 107.256ZM149.443 106.392H152.275C153.587 106.392 154.243 105.928 154.243 105C154.243 104.088 153.587 103.632 152.275 103.632H149.443V106.392ZM152.587 111.456C153.963 111.456 154.651 110.984 154.651 110.04C154.651 109.544 154.491 109.184 154.171 108.96C153.851 108.72 153.347 108.6 152.659 108.6H149.443V111.456H152.587ZM166.629 109.104H164.685V114H160.941V101.088H164.685V106.104H166.701L170.205 101.088H174.189L169.677 107.28L174.501 114H170.085L166.629 109.104ZM181.121 100.896C183.121 100.896 184.657 101.376 185.729 102.336C186.801 103.28 187.337 104.712 187.337 106.632V114H183.833V112.392C183.129 113.592 181.817 114.192 179.897 114.192C178.905 114.192 178.041 114.024 177.305 113.688C176.585 113.352 176.033 112.888 175.649 112.296C175.265 111.704 175.073 111.032 175.073 110.28C175.073 109.08 175.521 108.136 176.417 107.448C177.329 106.76 178.729 106.416 180.617 106.416H183.593C183.593 105.6 183.345 104.976 182.849 104.544C182.353 104.096 181.609 103.872 180.617 103.872C179.929 103.872 179.249 103.984 178.577 104.208C177.921 104.416 177.361 104.704 176.897 105.072L175.553 102.456C176.257 101.96 177.097 101.576 178.073 101.304C179.065 101.032 180.081 100.896 181.121 100.896ZM180.833 111.672C181.473 111.672 182.041 111.528 182.537 111.24C183.033 110.936 183.385 110.496 183.593 109.92V108.6H181.025C179.489 108.6 178.721 109.104 178.721 110.112C178.721 110.592 178.905 110.976 179.273 111.264C179.657 111.536 180.177 111.672 180.833 111.672Z" fill="black"/>
<g clip-path="url(#clip0_183_184)">
<path fill-rule="evenodd" clip-rule="evenodd" d="M71.1354 54.7423C71.5079 54.7423 72.5011 54.1174 72.9977 53.8675C73.6185 53.4926 74.1151 53.1177 74.7359 52.8677C75.2325 52.4928 78.088 50.8683 78.3363 50.8683V52.7428C78.3363 54.3674 78.5846 54.3674 77.8397 54.8672C77.4673 55.1172 74.6117 57.1166 74.4876 57.2416C74.2393 56.9917 71.2596 55.1172 71.1354 54.7423ZM74.4876 43.6201C73.8668 43.995 72.9977 44.4949 72.7494 44.6199C72.2528 44.8698 71.0113 45.6196 70.5147 45.7446V41.3707H78.3363C78.3363 41.6206 78.4605 41.4957 77.9639 41.7456L77.0948 42.1205C76.8465 42.2455 76.1016 42.7453 75.7291 42.8703C75.605 42.9953 75.4808 43.1202 75.3567 43.1202L74.9842 43.3702L74.4876 43.6201ZM73.1219 47.1192L73.4944 46.8693C78.088 44.3699 78.3363 44.2449 78.3363 44.2449V47.994C78.2122 48.119 78.3363 47.994 78.2122 48.119L70.5147 52.3679L70.6388 48.6188C72.8736 47.2442 72.7494 47.3691 73.1219 47.1192ZM63.0655 33.1228C63.0655 31.9981 62.9413 24.375 63.0655 24.0001H85.7855C85.9097 24.375 85.9097 32.7479 85.9097 33.1228C84.6682 33.2478 83.3025 33.1228 82.0609 33.1228H74.4876C73.246 33.1228 71.7562 32.8729 71.3837 33.8726C71.1354 34.4974 71.3837 35.1223 71.7562 35.3722C72.1287 35.6222 72.7494 35.6222 73.3702 35.6222C77.0948 35.6222 81.1919 35.6222 84.7923 35.4972C84.6682 35.7471 82.8059 38.4964 82.4334 38.8713H66.4176C66.2934 38.6214 65.5485 37.4967 65.3002 37.2467L64.1828 35.6222C66.0451 35.3722 67.9074 35.8721 68.5282 35.1223C68.7765 34.7474 68.9007 34.3725 68.7765 33.8726C68.2799 32.9978 67.2867 33.1228 66.1693 33.1228C65.1761 33.1228 63.9345 33.2478 63.0655 33.1228ZM59.5892 9.87875C60.3341 9.75378 61.8239 10.1287 62.0722 8.87901C62.1964 8.37913 62.1964 6.12971 62.1964 5.50487C62.1964 4.38016 61.079 3.75532 60.2099 4.38016C59.465 5.005 59.8375 6.25468 59.7133 7.37939C59.2167 7.50436 58.3476 7.25442 57.7269 7.62933C57.2302 7.87926 57.2302 8.5041 57.2302 9.12894C57.2302 15.2524 56.6095 15.3773 59.5892 15.3773C60.9548 15.3773 62.5688 15.3773 63.9345 15.3773V21.6257C62.693 21.7507 61.3273 21.2508 60.7065 22.2506C60.4582 22.7505 60.5824 25.1248 60.5824 25.9996C60.5824 28.499 60.5824 31.1233 60.5824 33.6227C60.5824 34.9973 60.7065 34.8723 61.6998 36.372L64.0587 39.7461C64.307 40.121 64.5553 40.4959 64.9278 40.8708C65.5485 41.6206 66.5418 41.2457 68.1558 41.3707C68.2799 45.2447 68.1558 49.1187 68.1558 52.9927C68.1558 56.1169 67.7833 55.4921 69.8939 56.9917L73.246 59.3661L73.3702 61.4905H61.2032V57.6165C61.6998 57.3666 62.1964 56.9917 62.4447 56.7417C63.6862 55.3671 63.6862 53.4926 62.9413 51.868C62.1964 50.2434 61.8239 50.1184 60.5824 50.1184H52.14C50.8984 50.1184 50.4018 50.2434 49.781 51.993C49.4086 53.1177 49.4086 54.3674 49.9052 55.4921C50.4018 56.6168 51.0226 57.1167 51.7675 57.8665V61.4905H38.3589L38.4831 57.1166C39.1038 57.1166 41.0903 57.2416 41.5869 56.9917C41.9594 56.8667 42.0835 56.6168 42.3318 56.1169C42.456 55.742 42.7043 55.4921 42.8284 55.1172C43.2009 54.3674 43.5734 53.6175 43.8217 52.8677L46.9255 46.3694C47.6704 44.9948 48.2912 43.4951 49.0361 41.9955C50.4018 39.3712 51.7675 36.122 53.1332 33.3727C54.4989 30.4985 55.8646 27.6242 57.2302 24.7499C57.851 23.5003 57.1061 22.7505 56.3612 22.7505C55.3679 22.7505 55.1196 23.6252 54.7472 24.375C54.1264 25.8747 53.3815 27.2493 52.6366 28.7489C51.2709 31.6232 49.9052 34.4974 48.5395 37.3717C47.9187 38.8713 47.1738 40.246 46.4289 41.7456L40.3454 54.7423C37.9865 54.8672 36 54.1174 36 56.1169C36 57.9914 36 59.8659 36 61.7405C36 62.8652 36 63.49 36.8691 63.8649C37.2415 63.9899 49.5327 63.8649 51.0226 63.8649C51.6433 63.8649 53.1332 63.9899 53.6298 63.74C54.3747 63.1151 54.1264 62.3653 54.1264 61.3656C54.1264 60.3658 54.1264 59.491 54.1264 58.4913C54.1264 57.4916 54.3747 56.6168 53.6298 56.1169C53.009 55.742 52.5124 55.3671 52.14 54.7423C51.7675 54.1174 51.7675 53.2426 52.14 52.4928H60.5824C60.7065 52.6178 60.8307 52.9927 60.9548 53.1177C61.2032 53.9925 61.2032 54.7423 60.5824 55.2421C59.7133 55.9919 58.8442 55.617 58.8442 57.1166C58.8442 58.3663 58.8442 59.616 58.8442 60.8657C58.8442 62.1154 58.5959 63.3651 59.5892 63.74C60.0858 63.9899 81.0677 63.8649 85.1648 63.8649C86.2822 63.8649 87.6478 64.1149 88.1445 63.2401C88.3928 62.7402 88.2686 62.2403 87.8962 61.8654C87.5237 61.4905 87.2754 61.4905 86.5305 61.4905C83.0542 61.4905 78.9571 61.3656 75.605 61.4905C75.7291 60.7407 75.605 60.1159 75.7291 59.3661C75.7291 59.2411 77.0948 58.3663 77.3431 58.1164L79.0813 56.9917C81.0677 55.617 80.6953 55.9919 80.6953 52.9927C80.6953 50.9932 80.6953 49.1187 80.6953 47.1192C80.6953 45.2447 80.6953 43.2452 80.6953 41.3707C81.4402 41.3707 82.0609 41.3707 82.6817 41.3707C83.4266 41.3707 83.6749 41.2457 84.0474 40.7458C84.6682 39.996 86.5305 37.2467 87.2754 36.247C88.2686 34.7474 88.2686 34.8723 88.2686 33.4977C88.2686 30.8734 88.2686 28.374 88.2686 25.7497C88.2686 24.9999 88.5169 22.6255 88.0203 22.1256C87.5237 21.3758 86.2822 21.6257 84.7923 21.6257V15.3773C86.158 15.3773 87.5237 15.3773 89.0135 15.3773C90.8758 15.3773 91 15.1274 91 13.2529C91 6.50461 91.3725 7.75429 88.5169 7.37939C88.2686 6.00474 88.8894 5.12997 88.0203 4.38016C87.3995 3.88029 86.0339 4.13022 86.0339 5.50487C86.0339 6.12971 86.0339 8.5041 86.158 9.00397C86.158 9.37888 86.5305 9.75378 87.0271 9.75378C87.5237 9.87875 88.1445 9.75378 88.6411 9.87875C88.6411 10.2537 88.6411 12.628 88.6411 12.878C88.2686 13.1279 74.6117 13.0029 72.9977 13.0029C72.2528 13.0029 71.7562 12.878 71.3837 13.3779C70.8871 13.8777 70.6388 15.3773 72.6253 15.3773H82.3092V21.6257C81.8126 21.6257 66.7901 21.6257 66.4176 21.5008V15.5023C67.535 15.1274 69.0248 16.0022 69.6456 14.7525C70.0181 14.1277 69.6456 13.5028 69.3973 13.2529C68.9007 12.878 68.2799 13.0029 67.535 13.0029C66.2934 13.0029 60.2099 13.0029 59.5892 13.0029V9.87875Z" fill="#8573D1"/>
<path fill-rule="evenodd" clip-rule="evenodd" d="M63.0655 33.1251C63.9345 33.2501 65.1761 33.1251 66.1693 33.1251C67.2867 33.1251 68.2799 33.0001 68.7765 33.8749C68.9007 34.3748 68.7765 34.7497 68.5282 35.1246C67.9074 35.8744 66.0451 35.3745 64.1828 35.6245L65.3002 37.249C65.5485 37.499 66.2935 38.6237 66.4176 38.8736H82.4334C82.8059 38.4987 84.6682 35.7494 84.7923 35.4995C81.1919 35.6245 77.0948 35.6245 73.3702 35.6245C72.7494 35.6245 72.1287 35.6245 71.7562 35.3745C71.3837 35.1246 71.1354 34.4998 71.3837 33.8749C71.7562 32.8752 73.246 33.1251 74.4876 33.1251H82.0609C83.3025 33.1251 84.6682 33.2501 85.9097 33.1251C85.9097 32.7502 85.9097 24.3773 85.7856 24.0024H63.0655C62.9413 24.3773 63.0655 32.0004 63.0655 33.1251Z" fill="#D1CBEC"/>
<path fill-rule="evenodd" clip-rule="evenodd" d="M56.237 41.998C56.3612 42.1229 56.9819 43.7475 56.9819 43.9975H55.3679C55.3679 43.7475 56.1129 42.1229 56.237 41.998ZM60.0858 45.4971C60.2099 44.8722 59.3409 42.9977 59.0926 42.3729C58.5959 41.4981 58.2235 40.4984 57.851 39.4986C57.4786 38.7488 57.1061 36.9993 55.6163 37.7491C55.1196 37.999 55.1196 38.3739 54.8713 38.9987L53.009 43.2477C52.6366 44.2474 51.7675 45.4971 52.8849 46.2469C53.3815 46.4968 55.9887 46.3719 56.8578 46.3719C57.4786 46.3719 58.2235 46.3719 58.9684 46.3719C59.5892 46.3719 59.8375 45.9969 60.0858 45.4971Z" fill="#8573D1"/>
<path fill-rule="evenodd" clip-rule="evenodd" d="M73.6185 46.7467C72.1287 47.6215 71.5079 47.9964 70.6388 48.6212L70.5147 52.3702L78.2122 48.1213C78.3364 47.9964 78.2122 48.1213 78.3364 47.9964V44.2473C78.088 44.2473 77.7156 44.6222 73.6185 46.7467Z" fill="#D1CBEC"/>
<path fill-rule="evenodd" clip-rule="evenodd" d="M71.1354 54.7446C71.2596 55.1195 74.2393 56.994 74.4876 57.244C74.6117 57.119 77.4673 55.1195 77.8397 54.8696C78.5846 54.3697 78.3363 54.3697 78.3363 52.7451V50.8706C78.088 50.8706 75.2325 52.4952 74.7359 52.8701C74.1151 53.12 73.6185 53.4949 72.9977 53.8698C72.5011 54.1198 71.5079 54.7446 71.1354 54.7446Z" fill="#D1CBEC"/>
<path fill-rule="evenodd" clip-rule="evenodd" d="M74.9842 43.3725L75.3567 43.1226C75.4808 43.1226 75.605 42.9976 75.7291 42.8727C76.1016 42.7477 76.3499 42.4978 76.7224 42.3728L77.9639 41.748C78.4605 41.498 78.3364 41.623 78.3364 41.373H70.5147V45.7469C71.0113 45.622 72.2528 44.8722 72.7494 44.6222C73.1219 44.3723 74.7359 43.4975 74.9842 43.3725Z" fill="#D1CBEC"/>
<path fill-rule="evenodd" clip-rule="evenodd" d="M56.237 41.9978C56.1129 42.1228 55.368 43.7474 55.368 43.9973H56.9819C56.9819 43.7474 56.3612 42.1228 56.237 41.9978Z" fill="#D1CBEC"/>
</g>
<defs>
<clipPath id="clip0_183_184">
<rect width="55" height="60" fill="white" transform="translate(36 4)"/>
</clipPath>
</defs>
</svg>
