<svg width="374" height="207" viewBox="0 0 374 207" fill="none" xmlns="http://www.w3.org/2000/svg">
<path d="M53.256 97.2L46.104 110.496C45.416 111.776 44.584 112.744 43.608 113.4C42.648 114.056 41.6 114.384 40.464 114.384C39.584 114.384 38.672 114.192 37.728 113.808L38.664 110.856C39.336 111.064 39.896 111.168 40.344 111.168C40.824 111.168 41.256 111.056 41.64 110.832C42.024 110.592 42.376 110.224 42.696 109.728L42.84 109.536L36.216 97.2H40.368L44.832 106.224L49.44 97.2H53.256ZM59.9987 114.192C58.6227 114.192 57.3827 113.912 56.2787 113.352C55.1907 112.776 54.3347 111.984 53.7107 110.976C53.1027 109.968 52.7987 108.824 52.7987 107.544C52.7987 106.264 53.1027 105.12 53.7107 104.112C54.3347 103.104 55.1907 102.32 56.2787 101.76C57.3827 101.184 58.6227 100.896 59.9987 100.896C61.3587 100.896 62.5427 101.184 63.5507 101.76C64.5747 102.32 65.3187 103.128 65.7827 104.184L62.8787 105.744C62.2067 104.56 61.2387 103.968 59.9747 103.968C58.9987 103.968 58.1907 104.288 57.5507 104.928C56.9107 105.568 56.5907 106.44 56.5907 107.544C56.5907 108.648 56.9107 109.52 57.5507 110.16C58.1907 110.8 58.9987 111.12 59.9747 111.12C61.2547 111.12 62.2227 110.528 62.8787 109.344L65.7827 110.928C65.3187 111.952 64.5747 112.752 63.5507 113.328C62.5427 113.904 61.3587 114.192 59.9987 114.192ZM80.2543 101.088V114H76.5103V104.16H72.4303L72.3103 106.44C72.2463 108.136 72.0863 109.544 71.8303 110.664C71.5743 111.784 71.1583 112.664 70.5823 113.304C70.0063 113.944 69.2063 114.264 68.1823 114.264C67.6383 114.264 66.9903 114.168 66.2383 113.976L66.4303 110.904C66.6863 110.936 66.8703 110.952 66.9823 110.952C67.5423 110.952 67.9583 110.752 68.2303 110.352C68.5183 109.936 68.7103 109.416 68.8063 108.792C68.9023 108.152 68.9743 107.312 69.0223 106.272L69.2143 101.088H80.2543ZM96.7907 101.088L90.9587 114.792C90.3667 116.28 89.6307 117.328 88.7507 117.936C87.8867 118.544 86.8387 118.848 85.6067 118.848C84.9347 118.848 84.2707 118.744 83.6147 118.536C82.9587 118.328 82.4227 118.04 82.0067 117.672L83.3747 115.008C83.6627 115.264 83.9907 115.464 84.3587 115.608C84.7427 115.752 85.1187 115.824 85.4867 115.824C85.9987 115.824 86.4147 115.696 86.7347 115.44C87.0547 115.2 87.3427 114.792 87.5987 114.216L87.6467 114.096L82.0547 101.088H85.9187L89.5427 109.848L93.1907 101.088H96.7907ZM108.941 104.16H102.317V114H98.5969V101.088H108.941V104.16ZM110.925 101.088H114.645V108.768L120.933 101.088H124.365V114H120.645V106.32L114.381 114H110.925V101.088ZM149.233 110.928V116.784H145.753V114H136.681V116.784H133.201V110.928H133.729C134.529 110.912 135.081 110.44 135.385 109.512C135.689 108.584 135.881 107.264 135.961 105.552L136.129 101.088H147.385V110.928H149.233ZM139.345 105.816C139.297 107.128 139.193 108.2 139.033 109.032C138.889 109.864 138.609 110.496 138.193 110.928H143.641V104.16H139.417L139.345 105.816ZM151.589 101.088H155.309V108.768L161.597 101.088H165.029V114H161.309V106.32L155.045 114H151.589V101.088ZM176.887 107.28C177.655 107.52 178.247 107.888 178.663 108.384C179.095 108.88 179.311 109.472 179.311 110.16C179.311 110.976 179.031 111.696 178.471 112.32C177.911 112.928 177.143 113.4 176.167 113.736C175.191 114.072 174.087 114.24 172.855 114.24C171.847 114.24 170.855 114.136 169.879 113.928C168.903 113.72 167.999 113.408 167.167 112.992L168.175 110.376C169.535 111.032 171.039 111.36 172.687 111.36C173.567 111.36 174.255 111.232 174.751 110.976C175.263 110.704 175.519 110.328 175.519 109.848C175.519 109.432 175.343 109.12 174.991 108.912C174.639 108.688 174.127 108.576 173.455 108.576H170.815V106.248H173.119C173.775 106.248 174.279 106.144 174.631 105.936C174.983 105.728 175.159 105.424 175.159 105.024C175.159 104.608 174.935 104.288 174.487 104.064C174.055 103.84 173.431 103.728 172.615 103.728C171.367 103.728 170.007 104.024 168.535 104.616L167.623 102.024C169.415 101.24 171.159 100.848 172.855 100.848C174.023 100.848 175.063 100.992 175.975 101.28C176.903 101.568 177.631 101.992 178.159 102.552C178.687 103.096 178.951 103.736 178.951 104.472C178.951 105.08 178.767 105.632 178.399 106.128C178.031 106.608 177.527 106.992 176.887 107.28ZM187.05 100.896C189.05 100.896 190.586 101.376 191.658 102.336C192.73 103.28 193.266 104.712 193.266 106.632V114H189.762V112.392C189.058 113.592 187.746 114.192 185.826 114.192C184.834 114.192 183.97 114.024 183.234 113.688C182.514 113.352 181.962 112.888 181.578 112.296C181.194 111.704 181.002 111.032 181.002 110.28C181.002 109.08 181.45 108.136 182.346 107.448C183.258 106.76 184.658 106.416 186.546 106.416H189.522C189.522 105.6 189.274 104.976 188.778 104.544C188.282 104.096 187.538 103.872 186.546 103.872C185.858 103.872 185.178 103.984 184.506 104.208C183.85 104.416 183.29 104.704 182.826 105.072L181.482 102.456C182.186 101.96 183.026 101.576 184.002 101.304C184.994 101.032 186.01 100.896 187.05 100.896ZM186.762 111.672C187.402 111.672 187.97 111.528 188.466 111.24C188.962 110.936 189.314 110.496 189.522 109.92V108.6H186.954C185.418 108.6 184.65 109.104 184.65 110.112C184.65 110.592 184.834 110.976 185.202 111.264C185.586 111.536 186.106 111.672 186.762 111.672ZM196.519 101.088H200.239V108.768L206.527 101.088H209.959V114H206.239V106.32L199.975 114H196.519V101.088ZM202.999 99.696C200.183 99.696 198.767 98.456 198.751 95.976H201.199C201.215 96.536 201.367 96.976 201.655 97.296C201.959 97.6 202.399 97.752 202.975 97.752C203.551 97.752 203.991 97.6 204.295 97.296C204.615 96.976 204.775 96.536 204.775 95.976H207.271C207.255 98.456 205.831 99.696 202.999 99.696ZM213.558 101.088H217.278V106.128H222.894V101.088H226.638V114H222.894V109.176H217.278V114H213.558V101.088ZM235.238 100.896C237.238 100.896 238.774 101.376 239.846 102.336C240.918 103.28 241.454 104.712 241.454 106.632V114H237.95V112.392C237.246 113.592 235.934 114.192 234.014 114.192C233.022 114.192 232.158 114.024 231.422 113.688C230.702 113.352 230.15 112.888 229.766 112.296C229.382 111.704 229.19 111.032 229.19 110.28C229.19 109.08 229.638 108.136 230.534 107.448C231.446 106.76 232.846 106.416 234.734 106.416H237.71C237.71 105.6 237.462 104.976 236.966 104.544C236.47 104.096 235.726 103.872 234.734 103.872C234.046 103.872 233.366 103.984 232.694 104.208C232.038 104.416 231.478 104.704 231.014 105.072L229.67 102.456C230.374 101.96 231.214 101.576 232.19 101.304C233.182 101.032 234.198 100.896 235.238 100.896ZM234.95 111.672C235.59 111.672 236.158 111.528 236.654 111.24C237.15 110.936 237.502 110.496 237.71 109.92V108.6H235.142C233.606 108.6 232.838 109.104 232.838 110.112C232.838 110.592 233.022 110.976 233.39 111.264C233.774 111.536 234.294 111.672 234.95 111.672Z" fill="black"/>
<g clip-path="url(#clip0_196_300)">
<path d="M70.7965 17.6357C76.657 17.6357 81.7849 20.0425 85.6308 23.9304C89.2936 27.6331 91.6744 33.002 91.6744 38.7413C91.6744 44.4805 89.2936 49.8494 85.6308 53.5521C81.7849 57.44 76.657 59.6616 70.7965 59.6616C65.1192 59.6616 59.9913 57.44 56.1454 53.5521C52.4826 49.8494 50.1017 44.4805 50.1017 38.7413C50.1017 33.002 52.4826 27.6331 56.1454 23.9304C59.9913 20.0425 65.1192 17.6357 70.7965 17.6357ZM84.1657 25.2263C80.6861 21.8939 76.1076 19.6722 70.7965 19.6722C65.6686 19.6722 60.907 21.8939 57.6105 25.2263C54.1308 28.7439 52.1163 33.5574 52.1163 38.7413C52.1163 43.9251 54.1308 48.7386 57.6105 52.0711C60.907 55.5886 65.6686 57.6251 70.7965 57.6251C76.1076 57.6251 80.6861 55.5886 84.1657 52.0711C87.4622 48.7386 89.6599 43.9251 89.6599 38.7413C89.6599 33.5574 87.4622 28.7439 84.1657 25.2263Z" fill="#8573D1"/>
<path d="M36.9157 7.08301H65.1192C65.6686 7.08301 66.218 7.45328 66.218 8.00869V36.5196C66.218 37.0751 65.6686 37.6305 65.1192 37.6305H36.9157C36.3663 37.6305 36 37.0751 36 36.5196V8.00869C36 7.45328 36.3663 7.08301 36.9157 7.08301ZM64.2035 9.1195H38.0145V35.594H64.2035V9.1195Z" fill="#8573D1"/>
<path d="M78.4884 38.1861L98.8169 72.4363C99.1831 72.9917 99 73.5471 98.6337 73.9173C98.4506 73.9173 98.2674 73.9173 98.0843 73.9173H57.4273C56.8779 73.9173 56.3285 73.5471 56.3285 72.9917C56.3285 72.8065 56.3285 72.6214 56.5116 72.4363L76.8401 38.1861C77.2064 37.6307 77.7558 37.6307 78.1221 37.8158C78.3052 38.0009 78.4884 38.0009 78.4884 38.1861ZM96.2529 71.8808L77.7558 40.778L59.0756 71.8808H96.2529Z" fill="#8573D1"/>
<path d="M76.657 13.0072C76.657 12.4518 77.2064 12.0815 77.7558 12.0815C78.3052 12.0815 78.6715 12.4518 78.6715 13.0072V26.8924C78.6715 27.4478 78.3052 28.0032 77.7558 28.0032C77.2064 28.0032 76.657 27.4478 76.657 26.8924V13.0072Z" fill="#8573D1"/>
<path d="M81.4186 8.00869C81.4186 7.45328 81.968 7.08301 82.5174 7.08301C83.0668 7.08301 83.4331 7.45328 83.4331 8.00869V31.8912C83.4331 32.4467 83.0668 33.0021 82.5174 33.0021C81.968 33.0021 81.4186 32.4467 81.4186 31.8912V8.00869Z" fill="#8573D1"/>
<path d="M47.5378 44.6654C46.9884 44.6654 46.439 44.2951 46.439 43.7397C46.439 43.1843 46.9884 42.6289 47.5378 42.6289H61.4564C62.0058 42.6289 62.3721 43.1843 62.3721 43.7397C62.3721 44.2951 62.0058 44.6654 61.4564 44.6654H47.5378Z" fill="#8573D1"/>
<path d="M40.2122 50.0345C39.6628 50.0345 39.2965 49.4791 39.2965 48.9237C39.2965 48.3683 39.6628 47.998 40.2122 47.998H51.0174C51.5669 47.998 52.1163 48.3683 52.1163 48.9237C52.1163 49.4791 51.5669 50.0345 51.0174 50.0345H40.2122Z" fill="#8573D1"/>
<path d="M41.6773 43.5548C42.0819 43.5548 42.4099 43.2233 42.4099 42.8143C42.4099 42.4053 42.0819 42.0737 41.6773 42.0737C41.2727 42.0737 40.9448 42.4053 40.9448 42.8143C40.9448 43.2233 41.2727 43.5548 41.6773 43.5548Z" fill="#2B2A29"/>
<path d="M41.6773 40.9629C42.2268 40.9629 42.593 41.148 42.9593 41.5183C43.1425 41.8886 43.3256 42.2588 43.3256 42.8142C43.3256 43.3697 43.1425 43.7399 42.9593 44.1102C42.593 44.2953 42.2268 44.4805 41.6773 44.4805C41.1279 44.4805 40.7616 44.2953 40.3954 44.1102C40.0291 43.7399 39.8459 43.3697 39.8459 42.8142C39.8459 42.2588 40.0291 41.8886 40.3954 41.5183C40.7616 41.148 41.1279 40.9629 41.6773 40.9629ZM41.8605 42.6291L41.6773 42.8142V42.6291H41.4942L41.6773 42.8142L41.4942 42.9994H41.6773V42.8142H41.4942V42.9994L41.8605 42.6291ZM41.8605 42.8142H41.6773L41.8605 42.9994V42.8142Z" fill="#8573D1"/>
</g>
<defs>
<clipPath id="clip0_196_300">
<rect width="63" height="67" fill="white" transform="translate(36 7)"/>
</clipPath>
</defs>
</svg>
