<svg width="312" height="158" viewBox="0 0 312 158" fill="none" xmlns="http://www.w3.org/2000/svg">
<path d="M49.728 116.24C50.752 116.544 51.536 117.04 52.08 117.728C52.624 118.416 52.896 119.264 52.896 120.272C52.896 121.76 52.328 122.92 51.192 123.752C50.072 124.584 48.464 125 46.368 125H38.088V108.2H45.912C47.864 108.2 49.384 108.576 50.472 109.328C51.56 110.08 52.104 111.152 52.104 112.544C52.104 113.376 51.896 114.112 51.48 114.752C51.064 115.376 50.48 115.872 49.728 116.24ZM41.952 115.16H45.576C46.424 115.16 47.064 114.992 47.496 114.656C47.928 114.304 48.144 113.792 48.144 113.12C48.144 112.464 47.92 111.96 47.472 111.608C47.04 111.256 46.408 111.08 45.576 111.08H41.952V115.16ZM46.224 122.12C48.048 122.12 48.96 121.4 48.96 119.96C48.96 118.568 48.048 117.872 46.224 117.872H41.952V122.12H46.224ZM62.4748 116.216C64.1548 116.232 65.4268 116.608 66.2908 117.344C67.1548 118.08 67.5868 119.136 67.5868 120.512C67.5868 121.952 67.0988 123.064 66.1228 123.848C65.1468 124.632 63.7628 125.024 61.9708 125.024L55.6828 125V112.088H59.4028V116.216H62.4748ZM68.9788 112.088H72.6988V125H68.9788V112.088ZM61.6348 122.36C62.3548 122.376 62.9068 122.224 63.2908 121.904C63.6748 121.584 63.8668 121.104 63.8668 120.464C63.8668 119.84 63.6748 119.384 63.2908 119.096C62.9228 118.808 62.3708 118.656 61.6348 118.64L59.4028 118.616V122.36H61.6348ZM86.1718 118.256C87.6918 118.768 88.4518 119.792 88.4518 121.328C88.4518 122.496 88.0118 123.4 87.1318 124.04C86.2518 124.68 84.9398 125 83.1958 125H76.3078V112.088H82.9078C84.5238 112.088 85.7878 112.384 86.6998 112.976C87.6118 113.552 88.0678 114.368 88.0678 115.424C88.0678 116.064 87.8998 116.632 87.5638 117.128C87.2438 117.608 86.7798 117.984 86.1718 118.256ZM79.7398 117.392H82.5718C83.8838 117.392 84.5398 116.928 84.5398 116C84.5398 115.088 83.8838 114.632 82.5718 114.632H79.7398V117.392ZM82.8838 122.456C84.2598 122.456 84.9478 121.984 84.9478 121.04C84.9478 120.544 84.7878 120.184 84.4678 119.96C84.1478 119.72 83.6438 119.6 82.9558 119.6H79.7398V122.456H82.8838ZM103.79 118.592C103.79 118.64 103.766 118.976 103.718 119.6H93.9495C94.1255 120.4 94.5415 121.032 95.1975 121.496C95.8535 121.96 96.6695 122.192 97.6455 122.192C98.3175 122.192 98.9095 122.096 99.4215 121.904C99.9495 121.696 100.438 121.376 100.886 120.944L102.878 123.104C101.662 124.496 99.8855 125.192 97.5495 125.192C96.0935 125.192 94.8055 124.912 93.6855 124.352C92.5655 123.776 91.7015 122.984 91.0935 121.976C90.4855 120.968 90.1815 119.824 90.1815 118.544C90.1815 117.28 90.4775 116.144 91.0695 115.136C91.6775 114.112 92.5015 113.32 93.5415 112.76C94.5975 112.184 95.7735 111.896 97.0695 111.896C98.3335 111.896 99.4775 112.168 100.502 112.712C101.526 113.256 102.326 114.04 102.902 115.064C103.494 116.072 103.79 117.248 103.79 118.592ZM97.0935 114.728C96.2455 114.728 95.5335 114.968 94.9575 115.448C94.3815 115.928 94.0295 116.584 93.9015 117.416H100.262C100.134 116.6 99.7815 115.952 99.2055 115.472C98.6295 114.976 97.9255 114.728 97.0935 114.728ZM112.803 125.192C111.427 125.192 110.187 124.912 109.083 124.352C107.995 123.776 107.139 122.984 106.515 121.976C105.907 120.968 105.603 119.824 105.603 118.544C105.603 117.264 105.907 116.12 106.515 115.112C107.139 114.104 107.995 113.32 109.083 112.76C110.187 112.184 111.427 111.896 112.803 111.896C114.163 111.896 115.347 112.184 116.355 112.76C117.379 113.32 118.123 114.128 118.587 115.184L115.683 116.744C115.011 115.56 114.043 114.968 112.779 114.968C111.803 114.968 110.995 115.288 110.355 115.928C109.715 116.568 109.395 117.44 109.395 118.544C109.395 119.648 109.715 120.52 110.355 121.16C110.995 121.8 111.803 122.12 112.779 122.12C114.059 122.12 115.027 121.528 115.683 120.344L118.587 121.928C118.123 122.952 117.379 123.752 116.355 124.328C115.347 124.904 114.163 125.192 112.803 125.192ZM126.551 120.104H124.607V125H120.863V112.088H124.607V117.104H126.623L130.127 112.088H134.111L129.599 118.28L134.423 125H130.007L126.551 120.104ZM136.261 112.088H139.981V119.768L146.269 112.088H149.701V125H145.981V117.32L139.717 125H136.261V112.088Z" fill="black"/>
<path d="M38.1875 51.625V82.25H103.812V51.625H38.1875ZM99.4375 77.875H42.5625V56H99.4375V77.875Z" fill="#D1CBEC"/>
<path d="M71 36.3125C72.8122 36.3125 74.2812 34.8434 74.2812 33.0312C74.2812 31.2191 72.8122 29.75 71 29.75C69.1878 29.75 67.7188 31.2191 67.7188 33.0312C67.7188 34.8434 69.1878 36.3125 71 36.3125Z" fill="#D1CBEC"/>
<path d="M103.812 50.5312H97.5986L75.0879 34.5871C75.3405 33.9247 75.4283 33.2108 75.3438 32.5068C75.2593 31.8029 75.005 31.1301 74.6028 30.5463C74.2006 29.9625 73.6625 29.4851 73.0349 29.1554C72.4073 28.8256 71.709 28.6533 71 28.6533C70.291 28.6533 69.5927 28.8256 68.9651 29.1554C68.3375 29.4851 67.7994 29.9625 67.3972 30.5463C66.995 31.1301 66.7407 31.8029 66.6562 32.5068C66.5717 33.2108 66.6595 33.9247 66.9121 34.5871L44.4014 50.5312H38.1875C37.8974 50.5312 37.6192 50.6465 37.4141 50.8516C37.209 51.0567 37.0938 51.3349 37.0938 51.625V82.25C37.0938 82.5401 37.209 82.8183 37.4141 83.0234C37.6192 83.2285 37.8974 83.3437 38.1875 83.3437H103.812C104.103 83.3437 104.381 83.2285 104.586 83.0234C104.791 82.8183 104.906 82.5401 104.906 82.25V51.625C104.906 51.3349 104.791 51.0567 104.586 50.8516C104.381 50.6465 104.103 50.5312 103.812 50.5312ZM71 30.8437C71.4326 30.8437 71.8556 30.972 72.2153 31.2124C72.575 31.4528 72.8554 31.7944 73.021 32.1941C73.1866 32.5938 73.2299 33.0337 73.1455 33.458C73.0611 33.8823 72.8527 34.2721 72.5468 34.578C72.2409 34.884 71.8511 35.0923 71.4268 35.1767C71.0024 35.2611 70.5626 35.2178 70.1629 35.0522C69.7632 34.8867 69.4215 34.6063 69.1812 34.2465C68.9408 33.8868 68.8125 33.4639 68.8125 33.0312C68.8133 32.4513 69.044 31.8953 69.454 31.4853C69.8641 31.0752 70.4201 30.8445 71 30.8437ZM68.1781 36.3713C68.9665 37.0395 69.9665 37.4062 71 37.4062C72.0335 37.4062 73.0335 37.0395 73.8219 36.3713L93.8143 50.5312H48.1857L68.1781 36.3713ZM102.719 81.1562H39.2812V52.7187H102.719V81.1562Z" fill="#8573D1"/>
<path d="M42.5625 78.9688H99.4375C99.7276 78.9688 100.006 78.8535 100.211 78.6484C100.416 78.4433 100.531 78.1651 100.531 77.875V56C100.531 55.7099 100.416 55.4318 100.211 55.2267C100.006 55.0216 99.7276 54.9062 99.4375 54.9062H42.5625C42.2724 54.9062 41.9942 55.0216 41.7891 55.2267C41.584 55.4318 41.4688 55.7099 41.4688 56V77.875C41.4688 78.1651 41.584 78.4433 41.7891 78.6484C41.9942 78.8535 42.2724 78.9688 42.5625 78.9688ZM43.6562 57.0938H98.3438V76.7812H43.6562V57.0938Z" fill="#8573D1"/>
<path d="M53.5 60.375H46.9375C46.6474 60.375 46.3692 60.4902 46.1641 60.6954C45.959 60.9005 45.8438 61.1787 45.8438 61.4688V72.4062C45.8438 72.6963 45.959 72.9745 46.1641 73.1796C46.3692 73.3848 46.6474 73.5 46.9375 73.5H53.5C53.7901 73.5 54.0683 73.3848 54.2734 73.1796C54.4785 72.9745 54.5938 72.6963 54.5938 72.4062V61.4688C54.5938 61.1787 54.4785 60.9005 54.2734 60.6954C54.0683 60.4902 53.7901 60.375 53.5 60.375ZM52.4062 71.3125H48.0312V62.5625H52.4062V71.3125Z" fill="#8573D1"/>
<path d="M86.3125 62.5625C86.6026 62.5625 86.8808 62.4473 87.0859 62.2421C87.291 62.037 87.4062 61.7588 87.4062 61.4688C87.4062 61.1787 87.291 60.9005 87.0859 60.6954C86.8808 60.4902 86.6026 60.375 86.3125 60.375H79.75C79.4599 60.375 79.1817 60.4902 78.9766 60.6954C78.7715 60.9005 78.6562 61.1787 78.6562 61.4688V72.4062C78.6562 72.6963 78.7715 72.9745 78.9766 73.1796C79.1817 73.3848 79.4599 73.5 79.75 73.5H86.3125C86.6026 73.5 86.8808 73.3848 87.0859 73.1796C87.291 72.9745 87.4062 72.6963 87.4062 72.4062C87.4062 72.1162 87.291 71.838 87.0859 71.6329C86.8808 71.4277 86.6026 71.3125 86.3125 71.3125H80.8438V62.5625H86.3125Z" fill="#8573D1"/>
<path d="M96.1562 62.5625C96.4463 62.5625 96.7245 62.4473 96.9296 62.2421C97.1348 62.037 97.25 61.7588 97.25 61.4688C97.25 61.1787 97.1348 60.9005 96.9296 60.6954C96.7245 60.4902 96.4463 60.375 96.1562 60.375H89.5938C89.3037 60.375 89.0255 60.4902 88.8204 60.6954C88.6152 60.9005 88.5 61.1787 88.5 61.4688V72.4062C88.5 72.6963 88.6152 72.9745 88.8204 73.1796C89.0255 73.3848 89.3037 73.5 89.5938 73.5H96.1562C96.4463 73.5 96.7245 73.3848 96.9296 73.1796C97.1348 72.9745 97.25 72.6963 97.25 72.4062C97.25 72.1162 97.1348 71.838 96.9296 71.6329C96.7245 71.4277 96.4463 71.3125 96.1562 71.3125H90.6875V68.0312H95.0625C95.3526 68.0312 95.6308 67.916 95.8359 67.7109C96.041 67.5058 96.1562 67.2276 96.1562 66.9375C96.1562 66.6474 96.041 66.3692 95.8359 66.1641C95.6308 65.959 95.3526 65.8438 95.0625 65.8438H90.6875V62.5625H96.1562Z" fill="#8573D1"/>
<path d="M63.3438 60.375H56.7812C56.4912 60.375 56.213 60.4902 56.0079 60.6954C55.8027 60.9005 55.6875 61.1787 55.6875 61.4688V72.4062C55.6875 72.6963 55.8027 72.9745 56.0079 73.1796C56.213 73.3848 56.4912 73.5 56.7812 73.5C57.0713 73.5 57.3495 73.3848 57.5546 73.1796C57.7598 72.9745 57.875 72.6963 57.875 72.4062V68.0312H62.25C62.5401 68.0312 62.8183 67.916 63.0234 67.7109C63.2285 67.5058 63.3438 67.2276 63.3438 66.9375C63.3438 66.6474 63.2285 66.3692 63.0234 66.1641C62.8183 65.959 62.5401 65.8438 62.25 65.8438H57.875V62.5625H63.3438C63.6338 62.5625 63.912 62.4473 64.1171 62.2421C64.3223 62.037 64.4375 61.7588 64.4375 61.4688C64.4375 61.1787 64.3223 60.9005 64.1171 60.6954C63.912 60.4902 63.6338 60.375 63.3438 60.375Z" fill="#8573D1"/>
<path d="M73.1875 60.375H66.625C66.3349 60.375 66.0567 60.4902 65.8516 60.6954C65.6465 60.9005 65.5312 61.1787 65.5312 61.4688V72.4062C65.5312 72.6963 65.6465 72.9745 65.8516 73.1796C66.0567 73.3848 66.3349 73.5 66.625 73.5C66.9151 73.5 67.1933 73.3848 67.3984 73.1796C67.6035 72.9745 67.7188 72.6963 67.7188 72.4062V68.0312H72.0938C72.3838 68.0312 72.662 67.916 72.8671 67.7109C73.0723 67.5058 73.1875 67.2276 73.1875 66.9375C73.1875 66.6474 73.0723 66.3692 72.8671 66.1641C72.662 65.959 72.3838 65.8438 72.0938 65.8438H67.7188V62.5625H73.1875C73.4776 62.5625 73.7558 62.4473 73.9609 62.2421C74.166 62.037 74.2812 61.7588 74.2812 61.4688C74.2812 61.1787 74.166 60.9005 73.9609 60.6954C73.7558 60.4902 73.4776 60.375 73.1875 60.375Z" fill="#8573D1"/>
<path d="M76.4688 60.375C76.1787 60.375 75.9005 60.4902 75.6954 60.6954C75.4902 60.9005 75.375 61.1787 75.375 61.4688V72.4062C75.375 72.6963 75.4902 72.9745 75.6954 73.1796C75.9005 73.3848 76.1787 73.5 76.4688 73.5C76.7588 73.5 77.037 73.3848 77.2421 73.1796C77.4473 72.9745 77.5625 72.6963 77.5625 72.4062V61.4688C77.5625 61.1787 77.4473 60.9005 77.2421 60.6954C77.037 60.4902 76.7588 60.375 76.4688 60.375Z" fill="#8573D1"/>
</svg>
