<svg width="330" height="240" viewBox="0 0 330 240" fill="none" xmlns="http://www.w3.org/2000/svg">
<g clip-path="url(#clip0_186_243)">
<path d="M44.784 104.04C46.256 104.28 47.384 104.832 48.168 105.696C48.952 106.544 49.344 107.6 49.344 108.864C49.344 109.84 49.088 110.744 48.576 111.576C48.064 112.392 47.28 113.048 46.224 113.544C45.184 114.04 43.904 114.288 42.384 114.288C41.2 114.288 40.032 114.136 38.88 113.832C37.744 113.512 36.776 113.064 35.976 112.488L37.488 109.512C38.128 109.992 38.864 110.368 39.696 110.64C40.544 110.896 41.408 111.024 42.288 111.024C43.264 111.024 44.032 110.84 44.592 110.472C45.152 110.088 45.432 109.552 45.432 108.864C45.432 107.488 44.384 106.8 42.288 106.8H40.512V104.232L43.968 100.32H36.816V97.2H48.576V99.72L44.784 104.04ZM52.1951 97.2H59.8271C61.6511 97.2 63.2591 97.552 64.6511 98.256C66.0591 98.944 67.1471 99.92 67.9151 101.184C68.6991 102.448 69.0911 103.92 69.0911 105.6C69.0911 107.28 68.6991 108.752 67.9151 110.016C67.1471 111.28 66.0591 112.264 64.6511 112.968C63.2591 113.656 61.6511 114 59.8271 114H52.1951V97.2ZM59.6351 110.808C61.3151 110.808 62.6511 110.344 63.6431 109.416C64.6511 108.472 65.1551 107.2 65.1551 105.6C65.1551 104 64.6511 102.736 63.6431 101.808C62.6511 100.864 61.3151 100.392 59.6351 100.392H56.0831V110.808H59.6351ZM91.2281 114V106.272L87.3641 112.752H85.7801L82.0121 106.248V114H78.6281V101.088H82.5401L86.6681 108.552L91.0601 101.088H94.5641L94.6121 114H91.2281ZM104.246 114.192C102.886 114.192 101.662 113.912 100.574 113.352C99.5024 112.776 98.6624 111.984 98.0544 110.976C97.4464 109.968 97.1424 108.824 97.1424 107.544C97.1424 106.264 97.4464 105.12 98.0544 104.112C98.6624 103.104 99.5024 102.32 100.574 101.76C101.662 101.184 102.886 100.896 104.246 100.896C105.606 100.896 106.822 101.184 107.894 101.76C108.966 102.32 109.806 103.104 110.414 104.112C111.022 105.12 111.326 106.264 111.326 107.544C111.326 108.824 111.022 109.968 110.414 110.976C109.806 111.984 108.966 112.776 107.894 113.352C106.822 113.912 105.606 114.192 104.246 114.192ZM104.246 111.12C105.206 111.12 105.99 110.8 106.598 110.16C107.222 109.504 107.534 108.632 107.534 107.544C107.534 106.456 107.222 105.592 106.598 104.952C105.99 104.296 105.206 103.968 104.246 103.968C103.286 103.968 102.494 104.296 101.87 104.952C101.246 105.592 100.934 106.456 100.934 107.544C100.934 108.632 101.246 109.504 101.87 110.16C102.494 110.8 103.286 111.12 104.246 111.12ZM128.186 110.928V116.784H124.706V114H115.634V116.784H112.154V110.928H112.682C113.482 110.912 114.034 110.44 114.338 109.512C114.642 108.584 114.834 107.264 114.914 105.552L115.082 101.088H126.338V110.928H128.186ZM118.298 105.816C118.25 107.128 118.146 108.2 117.986 109.032C117.842 109.864 117.562 110.496 117.146 110.928H122.594V104.16H118.37L118.298 105.816ZM143.094 107.592C143.094 107.64 143.07 107.976 143.022 108.6H133.254C133.43 109.4 133.846 110.032 134.502 110.496C135.158 110.96 135.974 111.192 136.95 111.192C137.622 111.192 138.214 111.096 138.726 110.904C139.254 110.696 139.742 110.376 140.19 109.944L142.182 112.104C140.966 113.496 139.19 114.192 136.854 114.192C135.398 114.192 134.11 113.912 132.99 113.352C131.87 112.776 131.006 111.984 130.398 110.976C129.79 109.968 129.486 108.824 129.486 107.544C129.486 106.28 129.782 105.144 130.374 104.136C130.982 103.112 131.806 102.32 132.846 101.76C133.902 101.184 135.078 100.896 136.374 100.896C137.638 100.896 138.782 101.168 139.806 101.712C140.83 102.256 141.63 103.04 142.206 104.064C142.798 105.072 143.094 106.248 143.094 107.592ZM136.398 103.728C135.55 103.728 134.838 103.968 134.262 104.448C133.686 104.928 133.334 105.584 133.206 106.416H139.566C139.438 105.6 139.086 104.952 138.51 104.472C137.934 103.976 137.23 103.728 136.398 103.728ZM158.231 101.088V114H154.487V104.16H150.407L150.287 106.44C150.223 108.136 150.063 109.544 149.807 110.664C149.551 111.784 149.135 112.664 148.559 113.304C147.983 113.944 147.183 114.264 146.159 114.264C145.615 114.264 144.967 114.168 144.215 113.976L144.407 110.904C144.663 110.936 144.847 110.952 144.959 110.952C145.519 110.952 145.935 110.752 146.207 110.352C146.495 109.936 146.687 109.416 146.783 108.792C146.879 108.152 146.951 107.312 146.999 106.272L147.191 101.088H158.231ZM161.831 101.088H165.551V108.768L171.839 101.088H175.271V114H171.551V106.32L165.287 114H161.831V101.088ZM186.478 100.896C187.678 100.896 188.766 101.176 189.742 101.736C190.734 102.28 191.51 103.056 192.07 104.064C192.63 105.056 192.91 106.216 192.91 107.544C192.91 108.872 192.63 110.04 192.07 111.048C191.51 112.04 190.734 112.816 189.742 113.376C188.766 113.92 187.678 114.192 186.478 114.192C184.83 114.192 183.534 113.672 182.59 112.632V118.656H178.846V101.088H182.422V102.576C183.35 101.456 184.702 100.896 186.478 100.896ZM185.83 111.12C186.79 111.12 187.574 110.8 188.182 110.16C188.806 109.504 189.118 108.632 189.118 107.544C189.118 106.456 188.806 105.592 188.182 104.952C187.574 104.296 186.79 103.968 185.83 103.968C184.87 103.968 184.078 104.296 183.454 104.952C182.846 105.592 182.542 106.456 182.542 107.544C182.542 108.632 182.846 109.504 183.454 110.16C184.078 110.8 184.87 111.12 185.83 111.12ZM201.582 114.192C200.222 114.192 198.998 113.912 197.91 113.352C196.838 112.776 195.998 111.984 195.39 110.976C194.782 109.968 194.478 108.824 194.478 107.544C194.478 106.264 194.782 105.12 195.39 104.112C195.998 103.104 196.838 102.32 197.91 101.76C198.998 101.184 200.222 100.896 201.582 100.896C202.942 100.896 204.158 101.184 205.23 101.76C206.302 102.32 207.142 103.104 207.75 104.112C208.358 105.12 208.662 106.264 208.662 107.544C208.662 108.824 208.358 109.968 207.75 110.976C207.142 111.984 206.302 112.776 205.23 113.352C204.158 113.912 202.942 114.192 201.582 114.192ZM201.582 111.12C202.542 111.12 203.326 110.8 203.934 110.16C204.558 109.504 204.87 108.632 204.87 107.544C204.87 106.456 204.558 105.592 203.934 104.952C203.326 104.296 202.542 103.968 201.582 103.968C200.622 103.968 199.83 104.296 199.206 104.952C198.582 105.592 198.27 106.456 198.27 107.544C198.27 108.632 198.582 109.504 199.206 110.16C199.83 110.8 200.622 111.12 201.582 111.12ZM221.102 107.256C222.622 107.768 223.382 108.792 223.382 110.328C223.382 111.496 222.942 112.4 222.062 113.04C221.182 113.68 219.87 114 218.126 114H211.238V101.088H217.838C219.454 101.088 220.718 101.384 221.63 101.976C222.542 102.552 222.997 103.368 222.997 104.424C222.997 105.064 222.83 105.632 222.494 106.128C222.174 106.608 221.71 106.984 221.102 107.256ZM214.67 106.392H217.502C218.814 106.392 219.47 105.928 219.47 105C219.47 104.088 218.814 103.632 217.502 103.632H214.67V106.392ZM217.814 111.456C219.19 111.456 219.878 110.984 219.878 110.04C219.878 109.544 219.718 109.184 219.398 108.96C219.078 108.72 218.574 108.6 217.886 108.6H214.67V111.456H217.814ZM231.183 100.896C233.183 100.896 234.719 101.376 235.791 102.336C236.863 103.28 237.399 104.712 237.399 106.632V114H233.895V112.392C233.191 113.592 231.879 114.192 229.959 114.192C228.967 114.192 228.103 114.024 227.367 113.688C226.647 113.352 226.095 112.888 225.711 112.296C225.327 111.704 225.135 111.032 225.135 110.28C225.135 109.08 225.583 108.136 226.479 107.448C227.391 106.76 228.791 106.416 230.679 106.416H233.655C233.655 105.6 233.407 104.976 232.911 104.544C232.415 104.096 231.671 103.872 230.679 103.872C229.991 103.872 229.311 103.984 228.639 104.208C227.983 104.416 227.423 104.704 226.959 105.072L225.615 102.456C226.319 101.96 227.159 101.576 228.135 101.304C229.127 101.032 230.143 100.896 231.183 100.896ZM230.895 111.672C231.535 111.672 232.103 111.528 232.599 111.24C233.095 110.936 233.447 110.496 233.655 109.92V108.6H231.087C229.551 108.6 228.783 109.104 228.783 110.112C228.783 110.592 228.967 110.976 229.335 111.264C229.719 111.536 230.239 111.672 230.895 111.672ZM240.652 101.088H244.372V106.128H249.988V101.088H253.732V114H249.988V109.176H244.372V114H240.652V101.088ZM257.316 101.088H261.036V108.768L267.324 101.088H270.756V114H267.036V106.32L260.772 114H257.316V101.088ZM286.907 107.592C286.907 107.64 286.883 107.976 286.835 108.6H277.067C277.243 109.4 277.659 110.032 278.315 110.496C278.971 110.96 279.787 111.192 280.763 111.192C281.435 111.192 282.027 111.096 282.539 110.904C283.067 110.696 283.555 110.376 284.003 109.944L285.995 112.104C284.779 113.496 283.003 114.192 280.667 114.192C279.211 114.192 277.923 113.912 276.803 113.352C275.683 112.776 274.819 111.984 274.211 110.976C273.603 109.968 273.299 108.824 273.299 107.544C273.299 106.28 273.595 105.144 274.187 104.136C274.795 103.112 275.619 102.32 276.659 101.76C277.715 101.184 278.891 100.896 280.187 100.896C281.451 100.896 282.595 101.168 283.619 101.712C284.643 102.256 285.443 103.04 286.019 104.064C286.611 105.072 286.907 106.248 286.907 107.592ZM280.211 103.728C279.363 103.728 278.651 103.968 278.075 104.448C277.499 104.928 277.147 105.584 277.019 106.416H283.379C283.251 105.6 282.899 104.952 282.323 104.472C281.747 103.976 281.043 103.728 280.211 103.728Z" fill="black"/>
<g clip-path="url(#clip1_186_243)">
<path fill-rule="evenodd" clip-rule="evenodd" d="M61.308 61.7678C60.42 59.5365 62.048 54.1813 63.824 52.3962C66.488 49.7186 67.968 48.6773 71.224 48.0823C77.884 47.041 83.804 52.2475 84.692 58.1977C85.58 64.7429 80.696 70.9906 74.48 71.7344C71.668 72.0319 68.116 71.2881 65.6 69.2056C62.196 66.0817 62.344 65.0404 61.308 61.7678ZM59.236 56.8589C58.052 56.4126 55.684 54.9251 54.5 54.1813C53.168 53.5863 53.908 49.1236 53.908 47.4873C53.908 42.5784 53.908 37.6695 53.908 32.7606L71.816 42.8759V45.7022C69.448 45.7022 65.896 47.3386 63.528 49.2724C61.604 51.0574 59.236 55.0738 59.236 56.8589ZM71.816 3.7533V18.4801C70.484 19.2238 68.56 20.1164 67.228 21.0089C66.192 21.7527 62.936 22.794 63.972 24.2815C64.86 25.6203 67.08 23.6865 68.412 22.9427C69.152 22.4964 72.704 20.4139 73 20.4139C73.296 20.5626 91.056 30.678 91.056 30.678C91.056 30.678 73.444 40.7933 73 40.7933C72.556 40.7933 54.944 30.678 54.796 30.678C54.944 30.3805 58.792 28.2979 59.532 28.0004C59.976 27.7029 61.456 26.8103 61.752 26.6616C62.492 25.9178 62.196 24.579 61.012 24.579C60.272 24.7278 57.164 26.6616 56.128 27.2566C55.388 27.5541 54.648 28.1491 53.908 28.4467C53.316 28.7442 51.688 30.083 51.688 30.083C51.688 37.372 51.688 44.661 51.688 52.0987C51.688 54.4788 52.132 53.14 49.172 55.0738C48.284 55.6688 46.804 56.4126 45.62 57.0076C44.584 57.4539 39.108 60.8753 38.664 60.8753C39.108 59.6852 39.404 58.1977 39.848 57.0076C40.44 54.6276 38.368 54.4788 37.776 55.6688C37.332 56.5614 35.556 62.8091 36.148 63.7016C36.592 64.7429 38.516 65.0404 39.552 65.3379C40.884 65.6354 42.364 66.0817 43.548 66.3792C45.028 66.8255 45.916 64.5941 43.844 64.1479C43.104 63.9991 40.292 63.2553 39.996 62.8091C39.996 62.6603 50.06 57.3051 51.688 56.2639C53.02 55.5201 53.02 56.1151 54.204 56.7101C55.684 57.3051 57.46 58.6439 58.94 59.239C58.94 78.8746 87.06 78.8746 87.06 59.239C88.392 58.7927 90.168 57.4539 91.648 56.7101C92.832 56.1151 92.832 55.5201 94.164 56.2639L106.004 62.8091C105.708 63.2553 102.748 63.8504 102.156 64.1479C99.936 64.7429 100.972 66.6767 102.304 66.3792C103.488 66.2305 105.116 65.6354 106.3 65.3379C107.336 65.0404 109.26 64.5941 109.852 63.7016C110.444 62.8091 108.668 56.7101 108.076 55.6688C107.632 54.4788 105.56 54.7763 106.152 57.0076C106.448 58.1977 106.892 59.6852 107.336 60.8753L94.312 53.735C94.312 51.2062 94.312 48.8261 94.312 46.2973C94.312 44.9585 94.016 43.7684 92.832 44.2147C91.796 44.661 92.092 46.1485 92.092 47.3386C92.092 48.9749 92.684 53.4375 91.5 54.1813C90.464 54.9251 87.8 56.4126 86.764 56.8589C85.728 51.3549 79.512 45.7022 74.184 45.7022V42.8759L92.092 32.7606C92.092 34.9919 92.092 37.2232 92.092 39.4545C92.092 40.6446 92.092 41.6859 93.572 41.3883C94.46 41.0908 94.312 39.9008 94.312 38.7108C94.312 36.4794 94.312 34.2481 94.312 32.0168C94.312 28.8929 93.868 29.6367 91.352 28.1491C88.984 26.6616 74.776 19.2238 74.184 18.4801V3.7533C74.48 3.7533 76.552 5.98463 76.996 6.43089C78.92 8.36471 79.808 6.13338 78.92 5.24085C77.736 4.05081 74.332 0.0344238 73 0.0344238C71.52 0.0344238 68.116 4.05081 66.932 5.24085C66.044 6.28214 67.08 8.36471 69.004 6.43089C69.3 6.13338 71.52 3.7533 71.816 3.7533Z" fill="#8573D1"/>
<path fill-rule="evenodd" clip-rule="evenodd" d="M75.664 62.5115V57.3051C78.328 57.3051 78.624 57.3051 78.624 59.8339C78.624 62.5115 78.328 62.5115 75.664 62.5115ZM74.924 55.0737C74.628 55.2225 74.036 55.0737 73.74 55.8175C73.444 56.4125 73.444 57.0076 73.444 57.7513C73.444 59.2389 73.444 60.7264 73.444 62.214C73.444 63.7015 73.592 64.5941 75.072 64.8916C76.552 65.0403 78.032 64.7428 78.92 64.2966C80.844 63.404 81.584 60.2802 80.844 57.7513C80.4 56.5613 79.956 55.9663 78.772 55.3712C78.328 55.2225 75.664 54.6275 74.924 55.0737Z" fill="#8573D1"/>
<path fill-rule="evenodd" clip-rule="evenodd" d="M69.448 57.3051V58.7927C67.968 58.7927 65.008 58.1977 65.008 59.834C65.008 61.619 67.968 61.024 69.448 61.024V62.5116C68.264 62.5116 65.896 62.0653 65.304 62.9578C63.972 64.4454 66.192 64.8916 67.524 64.8916C72.112 64.8916 71.816 64.4454 71.816 59.834C71.816 55.3713 71.964 54.925 67.524 54.925C66.192 54.925 63.972 55.3713 65.304 56.8589C65.896 57.6026 68.264 57.3051 69.448 57.3051Z" fill="#8573D1"/>
</g>
</g>
<defs>
<clipPath id="clip0_186_243">
<rect width="330" height="240" fill="white"/>
</clipPath>
<clipPath id="clip1_186_243">
<rect width="74" height="74" fill="white" transform="translate(36)"/>
</clipPath>
</defs>
</svg>
