<svg width="160" height="160" viewBox="0 0 160 160" fill="none" xmlns="http://www.w3.org/2000/svg">
<path d="M53.3333 20C34.9533 20 20 34.9533 20 53.3333V106.667C20 125.047 34.9533 140 53.3333 140H106.667C125.047 140 140 125.047 140 106.667V53.3333C140 34.9533 125.047 20 106.667 20H53.3333ZM53.3333 33.3333H106.667C117.693 33.3333 126.667 42.3067 126.667 53.3333V106.667C126.667 117.693 117.693 126.667 106.667 126.667H53.3333C42.3067 126.667 33.3333 117.693 33.3333 106.667V53.3333C33.3333 42.3067 42.3067 33.3333 53.3333 33.3333ZM113.333 40C111.565 40 109.87 40.7024 108.619 41.9526C107.369 43.2029 106.667 44.8986 106.667 46.6667C106.667 48.4348 107.369 50.1305 108.619 51.3807C109.87 52.631 111.565 53.3333 113.333 53.3333C115.101 53.3333 116.797 52.631 118.047 51.3807C119.298 50.1305 120 48.4348 120 46.6667C120 44.8986 119.298 43.2029 118.047 41.9526C116.797 40.7024 115.101 40 113.333 40ZM80 46.6667C61.62 46.6667 46.6667 61.62 46.6667 80C46.6667 98.38 61.62 113.333 80 113.333C98.38 113.333 113.333 98.38 113.333 80C113.333 61.62 98.38 46.6667 80 46.6667ZM80 60C91.0267 60 100 68.9733 100 80C100 91.0267 91.0267 100 80 100C68.9733 100 60 91.0267 60 80C60 68.9733 68.9733 60 80 60Z" fill="black"/>
</svg>
