<svg width="160" height="160" viewBox="0 0 160 160" fill="none" xmlns="http://www.w3.org/2000/svg">
<path d="M128 21.3335H32C26.1067 21.3335 21.3333 26.1068 21.3333 32.0002V128C21.3333 133.894 26.1067 138.667 32 138.667H128C133.893 138.667 138.667 133.894 138.667 128V32.0002C138.667 26.1068 133.888 21.3335 128 21.3335ZM121.008 71.8615C120.315 71.9255 119.616 71.9682 118.912 71.9682C110.939 71.9682 103.931 67.8722 99.8507 61.6695C99.8507 77.9308 99.8507 96.4375 99.8507 96.7468C99.8507 111.067 88.24 122.672 73.9253 122.672C59.6107 122.667 48 111.056 48 96.7415C48 82.4215 59.6107 70.8162 73.9253 70.8162C74.4693 70.8162 74.9973 70.8642 75.5253 70.8962V83.6748C74.992 83.6108 74.4747 83.5148 73.9253 83.5148C66.6187 83.5148 60.6933 89.4402 60.6933 96.7468C60.6933 104.053 66.6133 109.979 73.9253 109.979C81.2373 109.979 87.6907 104.219 87.6907 96.9122C87.6907 96.6188 87.8187 37.3388 87.8187 37.3388H100.027C101.173 48.2562 109.989 56.8748 121.008 57.6642V71.8615Z" fill="black"/>
</svg>
