<svg width="354" height="96" viewBox="0 0 354 96" fill="none" xmlns="http://www.w3.org/2000/svg">
<path d="M84.363 41.714V0.56543H73.5836V54.918H86.4946L108.885 13.7651V54.918H119.666V0.56543H106.761L84.363 41.714Z" fill="white"/>
<path d="M47.3806 54.918H62.7968V16.7139L62.7145 8.32422L47.3806 54.918Z" fill="white"/>
<path d="M21.7107 16.7139V54.918H37.1333L21.792 8.32422L21.7107 16.7139Z" fill="white"/>
<path d="M0.148621 46.7629L10.9321 54.918V0.56543H0.148621V46.7629Z" fill="white"/>
<path d="M29.1538 0.56543L42.142 41.7928H42.3695L55.3617 0.56543H29.1538Z" fill="white"/>
<path d="M146.02 0.56543H130.316V54.918H141.09V34.4974H147.995C161.591 34.4974 166.45 24.714 166.45 17.5691C166.45 14.1477 165.311 0.56543 146.02 0.56543H146.02ZM146.02 25.9572H141.09V9.10522H146.02C152.255 9.10522 155.06 12.7505 155.06 17.2593C155.06 21.3693 152.55 25.9572 146.02 25.9572Z" fill="white"/>
<path d="M214.052 54.918H245.801V45.2872H224.849V31.3871H243.903V22.4603H224.849V10.1883H245.801V0.56543H214.052V54.918Z" fill="white"/>
<path d="M275.795 25.1803L296.711 0.56543H285.139L265.709 23.7765V0.56543H254.913V54.918H265.709V27.891L285.68 54.918H298.723L275.795 25.1803Z" fill="white"/>
<path d="M171.525 10.1883H181.478V54.9178H192.269V10.1883H207.6V0.56543H165.382C168.428 3.29399 170.409 6.66332 171.525 10.1883H171.525Z" fill="white"/>
<path d="M151.631 78.7451V86.1143L151.555 88.0477L151.526 88.6523L157.821 78.7451H160.015V90.3688H158.372V83.2645L158.404 81.8634L158.459 80.4835L152.17 90.369H149.976V78.7453H151.631V78.7451ZM165.967 83.5684C168.169 83.5684 169.267 82.96 169.267 81.7431C169.267 80.5991 168.375 80.0268 166.593 80.0268C166.05 80.0268 165.553 80.0777 165.108 80.1759C164.663 80.2735 164.08 80.4728 163.355 80.7693L162.729 79.3356C163.931 78.7959 165.246 78.5281 166.669 78.5281C168.006 78.5281 169.06 78.8031 169.831 79.3498C170.603 79.9003 170.987 80.6465 170.987 81.5946C170.987 82.8983 170.262 83.7491 168.81 84.1548V84.2381C169.705 84.4989 170.353 84.8719 170.766 85.3574C171.175 85.8422 171.382 86.4508 171.382 87.1785C171.382 88.2539 170.948 89.0905 170.082 89.6882C169.212 90.2853 168.017 90.5857 166.488 90.5857C164.811 90.5857 163.515 90.3362 162.602 89.8332V88.2178C163.898 88.8262 165.206 89.1301 166.528 89.1301C167.55 89.1301 168.318 88.9562 168.839 88.6052C169.357 88.2539 169.618 87.751 169.618 87.0917C169.618 85.7415 168.516 85.0679 166.319 85.0679H164.703V83.5686H165.967V83.5684ZM184.28 84.5463C184.28 86.4436 183.802 87.9246 182.849 88.9894C181.893 90.0538 180.575 90.5857 178.89 90.5857C177.851 90.5857 176.927 90.3434 176.12 89.8543C175.315 89.3663 174.692 88.663 174.255 87.751C173.812 86.8387 173.595 85.7702 173.595 84.5465C173.595 82.6492 174.069 81.1718 175.018 80.114C175.963 79.0568 177.282 78.5284 178.963 78.5284C180.592 78.5284 181.882 79.0674 182.842 80.1507C183.802 81.2333 184.28 82.6994 184.28 84.5465L184.28 84.5463ZM175.421 84.5463C175.421 86.0308 175.718 87.1643 176.311 87.9431C176.905 88.721 177.779 89.109 178.934 89.109C180.086 89.109 180.962 88.721 181.56 87.9466C182.157 87.1713 182.454 86.038 182.454 84.5463C182.454 83.0689 182.157 81.9459 181.56 81.1786C180.962 80.4113 180.079 80.0268 178.912 80.0268C177.757 80.0268 176.887 80.4035 176.301 81.1601C175.714 81.917 175.421 83.047 175.421 84.5463ZM186.764 83.4015C186.764 80.8563 187.137 78.872 187.888 77.4455C188.637 76.019 189.826 75.1313 191.452 74.7766C193.473 74.3456 195.254 73.9944 196.798 73.7266L197.127 75.2761C194.671 75.6854 192.918 76.011 191.865 76.2505C190.84 76.4859 190.071 77.0362 189.557 77.9046C189.047 78.7738 188.764 79.9616 188.717 81.4611H188.844C189.282 80.8634 189.847 80.3961 190.539 80.0601C191.234 79.7193 191.959 79.5491 192.716 79.5491C194.143 79.5491 195.258 80.0127 196.055 80.9397C196.856 81.8667 197.255 83.152 197.255 84.7921C197.255 86.6103 196.791 88.0298 195.864 89.0507C194.94 90.0754 193.647 90.5855 191.991 90.5855C190.358 90.5855 189.08 89.9595 188.152 88.7067C187.225 87.4575 186.765 85.6865 186.765 83.4013L186.764 83.4015ZM192.151 89.1088C194.309 89.1088 195.385 87.7323 195.385 84.9843C195.385 82.3592 194.406 81.0486 192.448 81.0486C191.911 81.0486 191.394 81.1601 190.894 81.3814C190.397 81.6061 189.942 81.8993 189.528 82.2682C189.112 82.6344 188.793 83.0144 188.568 83.4017C188.568 85.2629 188.862 86.679 189.449 87.6499C190.035 88.6236 190.937 89.109 192.151 89.109L192.151 89.1088ZM205.737 90.5855C204.979 90.5855 204.288 90.4449 203.661 90.166C203.038 89.8867 202.509 89.4565 202.086 88.8771H201.959C202.042 89.5541 202.086 90.1984 202.086 90.807V95.5829H200.325V78.7451H201.756L202.003 80.3313H202.086C202.538 79.694 203.067 79.2339 203.668 78.9514C204.27 78.6694 204.958 78.5284 205.737 78.5284C207.28 78.5284 208.471 79.0568 209.312 80.1103C210.149 81.1646 210.568 82.6414 210.568 84.5465C210.568 86.4588 210.142 87.9433 209.29 89.0003C208.435 90.0575 207.254 90.5859 205.737 90.5859L205.737 90.5855ZM205.483 80.0268C204.295 80.0268 203.433 80.3568 202.904 81.0119C202.372 81.6711 202.1 82.7177 202.086 84.1548V84.5463C202.086 86.1793 202.357 87.3489 202.904 88.0511C203.448 88.7577 204.324 89.109 205.526 89.109C206.53 89.109 207.32 88.7032 207.888 87.8885C208.457 87.0739 208.743 85.9545 208.743 84.5243C208.743 83.0759 208.457 81.9643 207.888 81.1892C207.32 80.4148 206.515 80.0268 205.483 80.0268ZM218.555 90.5855C216.834 90.5855 215.479 90.0606 214.487 89.014C213.491 87.9675 212.995 86.5121 212.995 84.6506C212.995 82.7753 213.455 81.2873 214.379 80.1827C215.302 79.0783 216.541 78.5279 218.098 78.5279C219.554 78.5279 220.71 79.0055 221.557 79.9651C222.405 80.9247 222.833 82.1886 222.833 83.7566V84.8717H214.821C214.857 86.2369 215.201 87.2728 215.853 87.9823C216.509 88.688 217.429 89.0427 218.62 89.0427C219.87 89.0427 221.109 88.7819 222.333 88.257V89.8285C221.711 90.1006 221.119 90.2921 220.565 90.4114C220.011 90.5273 219.341 90.5853 218.555 90.5853L218.555 90.5855ZM218.077 80.0055C217.143 80.0055 216.4 80.3094 215.846 80.9178C215.288 81.5227 214.962 82.3627 214.864 83.4382H220.942C220.942 82.3303 220.696 81.4788 220.199 80.8889C219.703 80.2989 218.997 80.0055 218.078 80.0055H218.077ZM233.681 80.2444H229.899V90.3688H228.138V80.2444H224.401V78.7451H233.681V80.2444H233.681ZM243.13 90.3688L242.78 88.7139H242.692C242.113 89.4416 241.537 89.9378 240.961 90.1984C240.381 90.4557 239.664 90.5857 238.802 90.5857C237.647 90.5857 236.746 90.2888 236.089 89.6954C235.438 89.0977 235.107 88.2539 235.107 87.153C235.107 84.8036 236.988 83.5719 240.74 83.4595L242.714 83.3945V82.6738C242.714 81.765 242.519 81.0916 242.128 80.6569C241.732 80.2224 241.106 80.0055 240.244 80.0055C239.273 80.0055 238.18 80.3024 236.955 80.8958L236.415 79.5491C236.988 79.2374 237.614 78.9918 238.295 78.8144C238.979 78.6368 239.664 78.5501 240.348 78.5501C241.736 78.5501 242.761 78.8575 243.431 79.4728C244.101 80.089 244.435 81.0732 244.435 82.4312V90.3686H243.131L243.13 90.3688ZM239.15 89.1299C240.248 89.1299 241.11 88.8295 241.733 88.2283C242.359 87.6277 242.674 86.7876 242.674 85.705V84.655L240.911 84.7306C239.513 84.778 238.502 84.9949 237.883 85.3827C237.263 85.7665 236.955 86.3671 236.955 87.1783C236.955 87.8155 237.147 88.3011 237.535 88.6302C237.919 88.9638 238.458 89.1297 239.15 89.1297V89.1299ZM248.65 90.3688H246.589L249.933 85.455C249.034 85.2557 248.346 84.8721 247.867 84.3031C247.393 83.7351 247.155 83.0215 247.155 82.1567C247.155 81.0988 247.51 80.2663 248.223 79.658C248.94 79.0496 249.936 78.7451 251.215 78.7451H256.394V90.3688H254.631V85.7193H251.693L248.65 90.3688ZM248.872 82.1778C248.872 83.5251 249.849 84.1987 251.798 84.1987H254.631V80.2665H251.439C249.726 80.2665 248.872 80.9038 248.872 82.178V82.1778ZM265.174 83.4017C265.174 80.8565 265.547 78.8722 266.297 77.4457C267.047 76.0192 268.235 75.1315 269.861 74.7768C271.883 74.3458 273.664 73.9946 275.208 73.7268L275.537 75.2763C273.081 75.6856 271.328 76.0112 270.274 76.2507C269.25 76.4861 268.481 77.0364 267.967 77.9048C267.456 78.774 267.174 79.9618 267.127 81.4613H267.254C267.692 80.8636 268.257 80.3963 268.948 80.0603C269.644 79.7195 270.368 79.5493 271.126 79.5493C272.552 79.5493 273.668 80.0129 274.465 80.9399C275.265 81.8669 275.664 83.1522 275.664 84.7923C275.664 86.6105 275.201 88.03 274.273 89.0509C273.349 90.0756 272.057 90.5857 270.401 90.5857C268.768 90.5857 267.489 89.9597 266.562 88.7069C265.634 87.4577 265.174 85.6867 265.174 83.4015L265.174 83.4017ZM270.561 89.109C272.719 89.109 273.795 87.7325 273.795 84.9845C273.795 82.3594 272.817 81.0488 270.857 81.0488C270.321 81.0488 269.804 81.1603 269.303 81.3816C268.807 81.6063 268.351 81.8995 267.938 82.2684C267.521 82.6346 267.203 83.0146 266.978 83.4019C266.978 85.2631 267.272 86.6792 267.859 87.6501C268.445 88.6238 269.347 89.1092 270.561 89.1092L270.561 89.109ZM276.888 78.7451H278.775L281.325 85.3716C281.882 86.885 282.23 87.979 282.364 88.6489H282.448C282.542 88.2863 282.734 87.6708 283.027 86.7983C283.321 85.9256 284.28 83.2426 285.91 78.7451H287.798L282.799 91.9764C282.303 93.287 281.727 94.214 281.064 94.7611C280.402 95.308 279.59 95.5829 278.627 95.5829C278.09 95.5829 277.558 95.5214 277.037 95.4056V94.0008C277.424 94.0842 277.858 94.1273 278.34 94.1273C279.55 94.1273 280.416 93.447 280.93 92.0922L281.578 90.4338L276.888 78.7451H276.888ZM299.355 94.3879H297.645V90.3688H289.513V94.3879H287.815V88.8482H288.727C289.677 87.5629 290.419 86.0528 290.959 84.3215C291.494 82.5912 291.774 80.7297 291.796 78.7451H297.689V88.8482H299.355V94.3879ZM295.99 88.8482V80.1355H293.378C293.284 81.7035 292.984 83.2934 292.469 84.901C291.955 86.5084 291.317 87.8227 290.553 88.848H295.99L295.99 88.8482ZM299.829 78.7451H301.716L304.266 85.3716C304.824 86.885 305.172 87.979 305.306 88.6489H305.389C305.483 88.2863 305.676 87.6708 305.968 86.7983C306.262 85.9256 307.222 83.2426 308.852 78.7451H310.739L305.741 91.9764C305.245 93.287 304.668 94.214 304.005 94.7611C303.343 95.308 302.532 95.5829 301.568 95.5829C301.032 95.5829 300.5 95.5214 299.978 95.4056V94.0008C300.365 94.0842 300.8 94.1273 301.282 94.1273C302.491 94.1273 303.357 93.447 303.872 92.0922L304.52 90.4338L299.829 78.7451H299.829ZM321.293 88.8482H326.451V78.767H328.215V88.8482H329.877V94.366H328.095V90.3688H312.625V78.767H314.386V88.8482H319.533V78.767H321.293V88.8482H321.293ZM337.03 90.5857C335.31 90.5857 333.955 90.0608 332.963 89.0142C331.967 87.9677 331.471 86.5123 331.471 84.6508C331.471 82.7755 331.931 81.2875 332.855 80.1829C333.777 79.0785 335.017 78.5281 336.574 78.5281C338.03 78.5281 339.186 79.0057 340.033 79.9653C340.881 80.9249 341.308 82.1888 341.308 83.7568V84.8719H333.296C333.333 86.2371 333.677 87.273 334.329 87.9825C334.984 88.6882 335.904 89.043 337.096 89.043C338.345 89.043 339.584 88.7821 340.808 88.2572V89.8287C340.186 90.1008 339.595 90.2923 339.041 90.4116C338.487 90.5275 337.817 90.5855 337.03 90.5855L337.03 90.5857ZM336.552 80.0057C335.618 80.0057 334.876 80.3096 334.322 80.918C333.764 81.5229 333.438 82.3629 333.34 83.4384H339.418C339.418 82.3305 339.172 81.479 338.676 80.8891C338.18 80.2991 337.472 80.0057 336.553 80.0057H336.552ZM349.222 90.5857C347.502 90.5857 346.147 90.0608 345.155 89.0142C344.159 87.9677 343.663 86.5123 343.663 84.6508C343.663 82.7755 344.123 81.2875 345.046 80.1829C345.969 79.0785 347.209 78.5281 348.766 78.5281C350.222 78.5281 351.378 79.0057 352.225 79.9653C353.073 80.9249 353.5 82.1888 353.5 83.7568V84.8719H345.488C345.525 86.2371 345.869 87.273 346.521 87.9825C347.176 88.6882 348.096 89.043 349.288 89.043C350.537 89.043 351.776 88.7821 353 88.2572V89.8287C352.378 90.1008 351.787 90.2923 351.233 90.4116C350.678 90.5275 350.009 90.5855 349.222 90.5855L349.222 90.5857ZM348.744 80.0057C347.81 80.0057 347.068 80.3096 346.514 80.918C345.955 81.5229 345.63 82.3629 345.532 83.4384H351.609C351.609 82.3305 351.364 81.479 350.867 80.8891C350.371 80.2991 349.664 80.0057 348.745 80.0057H348.744Z" fill="white" stroke="white" stroke-width="0.756092" stroke-miterlimit="22.9256"/>
<path d="M316.034 10.2918H317.491C318.208 10.2918 318.782 10.1077 319.219 9.7349C319.655 9.36172 319.871 8.88765 319.871 8.31229C319.871 7.63543 319.679 7.15644 319.292 6.86199C318.906 6.57185 318.295 6.42463 317.463 6.42463H316.034V10.292V10.2918ZM321.88 8.25672C321.88 8.975 321.687 9.61024 321.306 10.1628C320.924 10.7152 320.386 11.1298 319.697 11.3968L322.901 16.7284H320.639L317.854 11.9494H316.034V16.7284H314.044V4.71187H317.555C319.044 4.71187 320.138 5.00201 320.832 5.5866C321.531 6.17119 321.88 7.05986 321.88 8.25693V8.25672ZM307.646 10.7107C307.646 8.91513 308.096 7.23005 308.992 5.6555C309.889 4.08094 311.125 2.83774 312.697 1.93061C314.264 1.02369 315.96 0.567871 317.771 0.567871C319.568 0.567871 321.251 1.01897 322.822 1.91687C324.39 2.81457 325.631 4.05305 326.536 5.62781C327.442 7.20237 327.897 8.89667 327.897 10.7107C327.897 12.4834 327.46 14.15 326.591 15.7061C325.718 17.2622 324.5 18.5054 322.928 19.4402C321.356 20.3748 319.637 20.8443 317.771 20.8443C315.914 20.8443 314.2 20.3793 312.628 19.4492C311.056 18.5193 309.833 17.2716 308.96 15.7198C308.082 14.1637 307.646 12.4926 307.646 10.7107ZM309.061 10.7107C309.061 12.2668 309.452 13.7216 310.229 15.0754C311.01 16.4289 312.077 17.4972 313.428 18.2751C314.779 19.0533 316.227 19.4402 317.771 19.4402C319.334 19.4402 320.782 19.0485 322.119 18.2659C323.457 17.4832 324.518 16.4244 325.304 15.0893C326.09 13.754 326.481 12.2945 326.481 10.7107C326.481 9.14991 326.09 7.6951 325.313 6.35532C324.532 5.01554 323.475 3.95197 322.142 3.16459C320.809 2.37741 319.352 1.98598 317.771 1.98598C316.208 1.98598 314.761 2.37741 313.423 3.16007C312.086 3.94274 311.024 5.00181 310.238 6.33687C309.452 7.67193 309.061 9.13145 309.061 10.7107Z" fill="white" stroke="white" stroke-width="0.288071" stroke-miterlimit="22.9256"/>
</svg>
